{"glyphs":{"0":{"ha":1442,"x_min":38,"x_max":1404,"o":"m 721 -31 q 456 7 579 -31 q 238 110 332 44 q 90 265 143 176 q 38 453 38 353 q 85 638 38 551 q 223 791 133 725 q 438 894 313 857 q 721 931 564 931 q 1004 894 878 931 q 1220 791 1131 857 q 1357 638 1310 725 q 1404 453 1404 551 q 1351 265 1404 353 q 1204 110 1299 176 q 986 7 1110 44 q 721 -31 863 -31 m 721 26 q 881 134 824 26 q 939 450 939 242 q 920 684 939 590 q 854 826 901 778 q 721 874 807 874 q 588 826 635 874 q 522 684 540 778 q 503 450 503 590 q 560 134 503 242 q 721 26 618 26 m 415 54 l 418 61 q 239 224 308 122 q 169 451 169 325 q 239 681 169 579 q 418 843 308 783 l 415 850 q 247 751 319 811 q 133 614 174 690 q 93 451 93 538 q 133 290 93 367 q 247 153 174 214 q 415 54 319 93 m 963 69 q 1033 172 1001 111 q 1083 304 1064 232 q 1103 451 1103 376 q 1083 600 1103 528 q 1033 733 1064 672 q 963 835 1001 794 l 956 831 q 1006 653 989 747 q 1024 451 1024 558 q 1006 251 1024 346 q 956 74 989 157 l 963 69 z "},"1":{"ha":1285,"x_min":79,"x_max":1206,"o":"m 210 0 l 210 60 l 318 60 q 424 94 379 60 q 468 211 468 128 l 468 601 q 483 751 468 699 q 497 803 497 803 l 138 554 l 79 625 l 524 903 l 1206 903 l 1206 843 l 1097 843 q 1022 822 1057 843 q 967 767 988 801 q 947 690 947 732 l 947 211 q 992 94 947 128 q 1097 60 1036 60 l 1206 60 l 1206 0 l 210 0 m 561 60 l 651 60 l 651 843 l 561 843 l 561 60 z "},"2":{"ha":1401,"x_min":69,"x_max":1322,"o":"m 69 0 l 69 92 q 207 138 129 110 q 369 205 285 167 q 535 291 454 243 q 681 395 615 339 q 785 515 746 451 q 824 649 824 578 q 799 772 824 726 q 740 840 775 818 q 674 869 706 863 q 625 875 642 875 q 468 842 544 875 q 328 756 392 810 q 222 635 264 701 q 167 503 179 569 l 118 503 l 118 881 l 167 881 l 167 806 q 288 864 218 835 q 454 912 357 893 q 682 931 551 931 q 831 923 747 931 q 1001 898 915 915 q 1160 849 1088 881 q 1278 771 1233 818 q 1322 658 1322 724 q 1264 527 1322 590 q 1106 406 1206 464 q 883 296 1007 347 q 624 201 758 244 q 363 124 490 158 q 131 65 235 89 l 131 58 q 590 78 389 60 q 957 129 792 96 q 1268 206 1122 163 l 1268 319 l 1317 319 l 1317 0 l 69 0 m 728 346 q 752 355 728 346 q 812 384 776 364 q 882 438 847 404 q 941 524 917 472 q 965 644 965 575 q 945 728 965 690 q 898 792 925 765 q 851 833 871 819 q 831 847 831 847 l 826 843 q 845 822 826 843 q 882 759 864 801 q 900 649 900 717 q 870 524 900 582 q 799 423 840 467 q 725 353 758 379 l 728 346 z "},"3":{"ha":1424,"x_min":72,"x_max":1353,"o":"m 668 -31 q 360 -1 504 -31 q 121 68 215 28 l 121 8 l 72 8 l 72 296 l 121 296 q 193 191 142 240 q 317 104 244 142 q 473 46 389 67 q 644 25 557 25 q 774 54 719 25 q 857 133 828 83 q 886 243 886 183 q 822 403 886 342 q 649 464 758 464 q 535 449 588 464 q 452 405 483 435 q 421 328 421 375 l 374 328 l 374 638 l 421 638 q 448 561 421 588 q 519 525 475 535 q 614 515 564 515 q 774 565 717 515 q 831 690 831 614 q 808 780 831 738 q 739 849 786 822 q 614 875 692 875 q 444 845 531 875 q 284 755 357 815 q 167 603 211 694 l 118 603 l 118 868 l 167 868 l 167 810 q 309 869 238 842 q 467 914 381 897 q 668 931 554 931 q 980 897 849 931 q 1183 808 1111 863 q 1256 693 1256 754 q 1199 601 1256 644 q 1045 528 1143 558 q 822 486 947 499 q 1106 442 988 475 q 1289 357 1225 408 q 1353 240 1353 306 q 1299 135 1353 185 q 1152 49 1246 86 q 934 -10 1058 11 q 668 -31 810 -31 m 867 533 q 944 608 915 564 q 974 696 974 651 q 944 784 974 740 q 867 858 915 828 l 860 854 q 893 777 881 818 q 906 696 906 736 q 893 615 906 656 q 860 538 881 574 l 867 533 m 915 46 q 991 133 961 82 q 1021 236 1021 183 q 992 339 1021 289 q 915 426 963 389 l 910 419 q 945 327 936 376 q 954 236 954 278 q 945 145 954 194 q 910 51 936 96 l 915 46 z "},"4":{"ha":1406,"x_min":79,"x_max":1328,"o":"m 331 0 l 331 60 l 438 60 q 544 93 500 60 q 589 210 589 126 l 589 247 l 79 247 l 79 306 l 644 903 l 1326 903 l 1326 843 l 1218 843 q 1143 822 1178 843 q 1088 767 1108 801 q 1068 690 1068 732 l 1068 306 l 1328 306 l 1328 247 l 1068 247 l 1068 210 q 1113 93 1068 126 q 1218 60 1157 60 l 1326 60 l 1326 0 l 331 0 m 682 58 l 772 58 l 772 843 l 682 843 l 682 58 m 199 306 l 589 306 l 589 590 q 603 740 589 688 q 618 792 618 792 l 199 306 z "},"5":{"ha":1417,"x_min":68,"x_max":1349,"o":"m 614 -31 q 415 -17 506 -31 q 257 15 324 -3 q 154 46 190 32 q 118 60 118 60 l 118 0 l 69 0 l 69 276 l 118 276 q 198 190 154 233 q 300 108 242 146 q 435 48 358 71 q 611 25 511 25 q 744 51 693 25 q 820 115 794 76 q 855 197 846 154 q 864 274 864 239 q 854 352 864 308 q 810 437 844 396 q 706 505 776 478 q 514 532 635 532 q 339 507 417 532 q 206 449 261 482 q 121 390 150 415 q 92 365 92 365 l 68 388 l 488 921 l 515 921 q 521 917 515 921 q 549 908 526 913 q 624 903 572 903 l 1231 903 q 1301 912 1285 903 q 1317 921 1317 921 l 1349 903 l 997 729 l 399 729 l 231 514 q 365 562 300 542 q 510 594 429 582 q 710 606 592 606 q 864 596 781 606 q 1029 565 947 586 q 1180 507 1111 543 q 1290 418 1249 471 q 1331 293 1331 365 q 1286 167 1331 221 q 1167 75 1242 113 q 999 14 1093 38 q 806 -20 906 -10 q 614 -31 707 -31 m 842 25 q 865 34 842 25 q 919 69 889 43 q 972 146 949 94 q 996 281 996 197 q 978 392 996 346 q 933 467 960 438 q 878 511 906 496 q 832 532 850 526 q 814 538 814 538 l 811 532 q 828 519 811 532 q 869 476 846 506 q 909 398 892 447 q 926 278 926 349 q 913 159 926 207 q 883 83 900 111 q 853 42 867 54 q 840 31 840 31 l 842 25 z "},"6":{"ha":1524,"x_min":79,"x_max":1444,"o":"m 751 -31 q 507 3 626 -31 q 290 100 388 38 q 136 250 193 163 q 79 446 79 338 q 136 643 79 554 q 292 797 193 732 q 520 896 392 861 q 792 931 649 931 q 990 917 903 931 q 1138 887 1078 904 q 1231 856 1199 869 q 1263 843 1263 843 l 1263 893 l 1310 893 l 1310 661 l 1263 661 q 1238 683 1263 661 q 1172 736 1214 704 q 1076 800 1131 768 q 959 853 1021 832 q 833 875 897 875 q 665 828 728 875 q 574 696 601 781 q 547 497 547 611 q 580 510 547 497 q 669 541 613 524 q 799 572 725 558 q 956 585 872 585 q 1124 567 1038 585 q 1283 513 1210 549 q 1400 425 1356 478 q 1444 301 1444 372 q 1405 178 1444 232 q 1297 84 1365 124 q 1139 19 1228 44 q 951 -18 1050 -6 q 751 -31 851 -31 m 415 74 l 419 81 q 392 105 419 81 q 326 176 364 129 q 261 291 289 222 q 233 447 233 360 q 255 576 233 518 q 308 677 276 633 q 372 751 340 721 q 426 797 404 782 q 447 813 447 813 l 443 821 q 414 808 443 821 q 342 768 385 796 q 256 697 299 740 q 185 591 214 653 q 156 447 156 529 q 182 303 156 365 q 247 198 208 242 q 324 126 286 154 q 389 86 363 99 q 415 74 415 74 m 990 39 q 1011 51 990 39 q 1058 91 1032 63 q 1106 169 1085 119 q 1126 293 1126 218 q 1106 416 1126 368 q 1057 491 1085 464 q 1008 528 1029 518 q 988 539 988 539 l 985 533 q 1003 510 985 533 q 1041 433 1022 486 q 1060 293 1060 381 q 1042 151 1060 206 q 1005 70 1024 96 q 986 44 986 44 l 990 39 m 761 24 q 891 53 844 24 q 958 126 938 82 q 982 213 978 169 q 986 286 986 257 q 968 395 986 342 q 912 483 950 449 q 811 518 874 518 q 717 506 764 518 q 632 480 671 494 q 569 453 593 465 q 546 442 546 442 l 546 385 q 551 255 546 319 q 576 138 557 190 q 640 55 596 86 q 761 24 685 24 z "},"7":{"ha":1536,"x_min":67,"x_max":1457,"o":"m 447 0 q 480 226 447 117 q 560 432 513 336 l 336 432 l 336 493 l 592 493 q 686 642 638 575 q 777 758 735 710 q 845 833 819 807 q 871 860 871 860 q 852 862 871 860 q 799 864 833 864 q 667 853 747 864 q 492 812 588 843 q 297 719 396 781 q 106 556 197 658 l 67 556 l 67 903 l 1457 903 l 1457 840 l 1329 840 q 1294 819 1329 840 q 1204 754 1258 797 q 1091 646 1150 711 q 986 493 1032 581 l 1193 493 l 1193 432 l 958 432 q 920 306 935 374 q 906 161 906 239 q 908 112 906 136 q 913 60 910 88 l 1118 60 l 1118 0 l 447 0 m 536 60 l 611 60 q 642 269 611 168 q 721 459 672 369 q 823 622 769 549 q 925 749 876 696 q 1004 832 974 803 q 1035 861 1035 861 l 960 861 q 929 832 960 861 q 850 749 899 803 q 748 623 801 696 q 646 460 694 550 q 567 269 597 371 q 536 60 536 168 m 136 681 l 193 724 l 193 840 l 136 840 l 136 681 z "},"8":{"ha":1525,"x_min":79,"x_max":1446,"o":"m 763 -31 q 497 -9 621 -31 q 279 49 374 13 q 132 136 185 86 q 79 242 79 186 q 192 397 79 328 q 506 494 304 465 l 506 500 q 334 549 408 518 q 218 619 260 579 q 176 704 176 660 q 249 818 176 767 q 452 900 321 869 q 763 931 583 931 q 1074 900 943 931 q 1278 818 1206 869 q 1350 704 1350 767 q 1308 619 1350 660 q 1192 549 1267 579 q 1021 500 1118 518 l 1021 494 q 1333 397 1221 465 q 1446 242 1446 328 q 1393 136 1446 186 q 1246 49 1340 86 q 1028 -9 1151 13 q 763 -31 904 -31 m 763 513 q 923 558 865 513 q 981 701 981 604 q 962 808 981 765 q 896 874 943 851 q 763 896 849 896 q 631 874 678 896 q 565 808 583 851 q 546 701 546 765 q 603 558 546 604 q 763 513 661 513 m 490 528 l 493 533 q 369 608 415 564 q 322 704 322 651 q 370 803 322 757 q 499 879 418 849 l 497 885 q 322 809 388 857 q 256 704 256 761 q 320 604 256 650 q 490 528 385 558 m 1008 531 q 1088 608 1058 564 q 1117 704 1117 653 q 1088 801 1117 757 q 1010 879 1058 846 l 1004 874 q 1036 792 1024 835 q 1049 704 1049 749 q 1036 616 1049 658 q 1003 535 1024 574 l 1008 531 m 763 17 q 923 74 865 17 q 981 242 981 131 q 933 415 981 350 q 763 479 886 479 q 597 421 649 479 q 544 242 544 363 q 602 74 544 131 q 763 17 660 17 m 446 28 l 449 33 q 292 123 351 68 q 233 242 233 178 q 291 361 233 307 q 446 450 349 415 l 443 456 q 234 365 313 421 q 156 242 156 310 q 235 117 156 174 q 446 28 315 61 m 1017 35 q 1110 126 1076 72 q 1143 242 1143 181 q 1110 358 1143 304 q 1015 450 1076 411 l 1013 444 q 1052 347 1038 399 q 1067 242 1067 296 q 1052 136 1067 188 q 1011 39 1038 85 l 1017 35 z "},"9":{"ha":1510,"x_min":79,"x_max":1431,"o":"m 719 -31 q 465 -13 571 -31 q 304 21 360 4 q 249 38 249 38 l 249 -10 l 200 -10 l 200 219 l 249 219 q 272 200 249 219 q 338 151 296 181 q 435 93 381 122 q 552 44 490 64 q 678 25 614 25 q 899 119 836 25 q 963 383 963 213 q 930 370 963 383 q 841 340 897 357 q 711 310 785 324 q 556 297 638 297 q 388 313 472 297 q 234 361 304 328 q 122 449 164 394 q 79 581 79 503 q 138 722 79 660 q 294 830 196 785 q 513 899 392 875 q 758 922 633 922 q 1003 890 883 922 q 1220 795 1124 857 q 1374 642 1317 733 q 1431 435 1431 551 q 1374 240 1431 326 q 1217 94 1317 154 q 990 1 1118 33 q 719 -31 863 -31 m 700 364 q 794 376 747 364 q 879 403 840 388 q 941 430 918 418 q 964 442 964 442 l 964 531 q 958 651 964 592 q 932 760 953 711 q 868 838 911 808 q 750 867 825 867 q 623 838 669 867 q 556 767 576 810 q 529 681 535 725 q 524 606 524 638 q 542 485 524 540 q 599 397 560 429 q 700 364 638 364 m 946 35 q 974 58 946 35 q 1038 131 1001 82 q 1103 256 1075 181 q 1131 433 1131 331 q 1110 612 1131 536 q 1061 737 1089 688 q 1013 810 1033 786 q 990 833 992 835 l 986 831 q 1003 794 986 831 q 1036 671 1019 757 q 1053 433 1053 585 q 1036 273 1053 346 q 998 148 1019 200 q 960 67 976 96 q 943 39 943 39 l 946 35 m 328 367 l 329 371 q 315 382 329 371 q 281 417 300 393 q 247 479 261 440 q 232 572 232 518 q 247 667 232 626 q 281 733 263 707 q 315 771 300 758 q 326 782 329 783 l 325 786 q 301 776 325 786 q 246 742 278 767 q 190 676 214 718 q 167 572 167 635 q 190 469 167 510 q 245 407 214 429 q 301 376 276 385 q 328 367 326 367 z "},"A":{"ha":1940,"x_min":-19,"x_max":1958,"o":"m -19 0 l -19 60 q 71 81 26 60 q 153 134 115 103 q 221 197 192 165 q 267 249 250 228 q 283 271 283 271 l 640 725 l 606 768 q 539 824 575 806 q 435 843 503 843 l 325 843 l 325 903 l 1119 903 l 1800 60 l 1958 60 l 1958 0 l 915 0 l 915 60 l 1018 60 q 1076 75 1053 60 q 1100 119 1100 90 q 1060 206 1100 156 l 1008 269 l 393 269 q 363 208 372 238 q 353 156 353 179 q 383 85 353 110 q 457 60 413 60 l 586 60 l 586 0 l -19 0 m 1289 60 l 1396 60 l 764 843 l 657 843 l 1289 60 m 446 336 l 956 336 l 694 658 l 446 336 z "},"Á":{"ha":1940,"x_min":-19,"x_max":1958,"o":"m -19 0 l -19 60 q 71 81 26 60 q 153 134 115 103 q 221 197 192 165 q 267 249 250 228 q 283 271 283 271 l 640 725 l 606 768 q 539 824 575 806 q 435 843 503 843 l 325 843 l 325 903 l 1119 903 l 1800 60 l 1958 60 l 1958 0 l 915 0 l 915 60 l 1018 60 q 1076 75 1053 60 q 1100 119 1100 90 q 1060 206 1100 156 l 1008 269 l 393 269 q 363 208 372 238 q 353 156 353 179 q 383 85 353 110 q 457 60 413 60 l 586 60 l 586 0 l -19 0 m 1289 60 l 1396 60 l 764 843 l 657 843 l 1289 60 m 446 336 l 956 336 l 694 658 l 446 336 m 425 994 l 425 1044 q 600 1063 533 1044 q 708 1115 667 1081 q 785 1197 750 1149 l 1189 1197 q 1181 1176 1189 1197 q 1151 1124 1172 1154 q 1089 1064 1129 1093 q 983 1019 1049 1035 q 880 1005 943 1010 q 747 998 817 1000 q 611 995 676 996 q 500 994 546 994 l 425 994 m 700 1049 q 819 1072 772 1053 q 892 1117 865 1092 q 929 1158 918 1142 l 840 1158 q 803 1112 828 1133 q 749 1076 778 1090 q 700 1054 721 1061 l 700 1049 z "},"Ă":{"ha":1940,"x_min":-19,"x_max":1958,"o":"m -19 0 l -19 60 q 71 81 26 60 q 153 134 115 103 q 221 197 192 165 q 267 249 250 228 q 283 271 283 271 l 640 725 l 606 768 q 539 824 575 806 q 435 843 503 843 l 325 843 l 325 903 l 1119 903 l 1800 60 l 1958 60 l 1958 0 l 915 0 l 915 60 l 1018 60 q 1076 75 1053 60 q 1100 119 1100 90 q 1060 206 1100 156 l 1008 269 l 393 269 q 363 208 372 238 q 353 156 353 179 q 383 85 353 110 q 457 60 413 60 l 586 60 l 586 0 l -19 0 m 1289 60 l 1396 60 l 764 843 l 657 843 l 1289 60 m 446 336 l 956 336 l 694 658 l 446 336 m 808 949 q 672 984 735 949 q 573 1080 610 1019 q 536 1213 536 1140 l 565 1221 q 666 1161 608 1186 q 808 1136 724 1136 q 951 1161 894 1136 q 1050 1221 1008 1186 l 1078 1213 q 1042 1080 1078 1140 q 945 984 1006 1019 q 808 949 885 949 m 808 993 q 922 1023 869 993 q 1001 1103 974 1053 l 994 1107 q 913 1065 961 1082 q 808 1049 865 1049 q 706 1065 756 1049 q 624 1107 657 1082 l 617 1103 q 697 1023 644 1053 q 808 993 749 993 z "},"Â":{"ha":1940,"x_min":-19,"x_max":1958,"o":"m -19 0 l -19 60 q 71 81 26 60 q 153 134 115 103 q 221 197 192 165 q 267 249 250 228 q 283 271 283 271 l 640 725 l 606 768 q 539 824 575 806 q 435 843 503 843 l 325 843 l 325 903 l 1119 903 l 1800 60 l 1958 60 l 1958 0 l 915 0 l 915 60 l 1018 60 q 1076 75 1053 60 q 1100 119 1100 90 q 1060 206 1100 156 l 1008 269 l 393 269 q 363 208 372 238 q 353 156 353 179 q 383 85 353 110 q 457 60 413 60 l 586 60 l 586 0 l -19 0 m 1289 60 l 1396 60 l 764 843 l 657 843 l 1289 60 m 446 336 l 956 336 l 694 658 l 446 336 m 396 994 l 582 1197 l 1032 1197 l 1217 994 l 1096 994 l 953 1150 l 808 994 l 396 994 m 550 1047 l 636 1047 l 740 1163 l 654 1163 l 550 1047 z "},"Ä":{"ha":1940,"x_min":-19,"x_max":1958,"o":"m -19 0 l -19 60 q 71 81 26 60 q 153 134 115 103 q 221 197 192 165 q 267 249 250 228 q 283 271 283 271 l 640 725 l 606 768 q 539 824 575 806 q 435 843 503 843 l 325 843 l 325 903 l 1119 903 l 1800 60 l 1958 60 l 1958 0 l 915 0 l 915 60 l 1018 60 q 1076 75 1053 60 q 1100 119 1100 90 q 1060 206 1100 156 l 1008 269 l 393 269 q 363 208 372 238 q 353 156 353 179 q 383 85 353 110 q 457 60 413 60 l 586 60 l 586 0 l -19 0 m 1289 60 l 1396 60 l 764 843 l 657 843 l 1289 60 m 446 336 l 956 336 l 694 658 l 446 336 m 1122 951 q 1028 972 1071 951 q 959 1029 985 993 q 933 1108 933 1065 q 959 1189 933 1153 q 1028 1247 985 1225 q 1122 1268 1071 1268 q 1219 1247 1176 1268 q 1288 1189 1263 1225 q 1314 1108 1314 1153 q 1288 1029 1314 1065 q 1219 972 1263 993 q 1122 951 1176 951 m 489 951 q 394 972 438 951 q 326 1029 351 993 q 300 1108 300 1065 q 326 1189 300 1153 q 394 1247 351 1225 q 489 1268 438 1268 q 586 1247 543 1268 q 655 1189 629 1225 q 681 1108 681 1153 q 655 1029 681 1065 q 586 972 629 993 q 489 951 543 951 m 447 983 l 451 988 q 420 1040 432 1010 q 408 1108 408 1071 q 420 1176 408 1146 q 451 1229 432 1207 l 447 1233 q 378 1182 406 1215 q 351 1108 351 1149 q 378 1035 351 1069 q 447 983 406 1001 m 1081 983 l 1085 988 q 1053 1040 1065 1010 q 1042 1108 1042 1071 q 1053 1176 1042 1146 q 1085 1229 1065 1207 l 1081 1233 q 1012 1182 1039 1215 q 985 1108 985 1149 q 1012 1035 985 1069 q 1081 983 1039 1001 z "},"À":{"ha":1940,"x_min":-19,"x_max":1958,"o":"m -19 0 l -19 60 q 71 81 26 60 q 153 134 115 103 q 221 197 192 165 q 267 249 250 228 q 283 271 283 271 l 640 725 l 606 768 q 539 824 575 806 q 435 843 503 843 l 325 843 l 325 903 l 1119 903 l 1800 60 l 1958 60 l 1958 0 l 915 0 l 915 60 l 1018 60 q 1076 75 1053 60 q 1100 119 1100 90 q 1060 206 1100 156 l 1008 269 l 393 269 q 363 208 372 238 q 353 156 353 179 q 383 85 353 110 q 457 60 413 60 l 586 60 l 586 0 l -19 0 m 1289 60 l 1396 60 l 764 843 l 657 843 l 1289 60 m 446 336 l 956 336 l 694 658 l 446 336 m 1114 994 q 1003 995 1068 994 q 867 998 938 996 q 734 1005 797 1000 q 631 1019 671 1010 q 526 1064 567 1035 q 463 1124 485 1093 q 433 1176 442 1154 q 425 1197 425 1197 l 829 1197 q 906 1115 864 1149 q 1014 1063 947 1081 q 1189 1044 1081 1044 l 1189 994 l 1114 994 m 756 1049 l 756 1054 q 706 1076 735 1061 q 653 1112 678 1090 q 615 1158 628 1133 l 526 1158 q 565 1117 539 1142 q 637 1072 590 1092 q 756 1049 683 1053 z "},"Ā":{"ha":1940,"x_min":-19,"x_max":1958,"o":"m -19 0 l -19 60 q 71 81 26 60 q 153 134 115 103 q 221 197 192 165 q 267 249 250 228 q 283 271 283 271 l 640 725 l 606 768 q 539 824 575 806 q 435 843 503 843 l 325 843 l 325 903 l 1119 903 l 1800 60 l 1958 60 l 1958 0 l 915 0 l 915 60 l 1018 60 q 1076 75 1053 60 q 1100 119 1100 90 q 1060 206 1100 156 l 1008 269 l 393 269 q 363 208 372 238 q 353 156 353 179 q 383 85 353 110 q 457 60 413 60 l 586 60 l 586 0 l -19 0 m 1289 60 l 1396 60 l 764 843 l 657 843 l 1289 60 m 446 336 l 956 336 l 694 658 l 446 336 m 525 1003 l 525 1189 l 1088 1189 l 1088 1003 l 525 1003 m 610 1031 l 685 1031 l 685 1161 l 610 1161 l 610 1031 z "},"Ą":{"ha":1940,"x_min":-19,"x_max":1958,"o":"m -19 0 l -19 60 q 71 81 26 60 q 153 134 115 103 q 221 197 192 165 q 267 249 250 228 q 283 271 283 271 l 640 725 l 606 768 q 539 824 575 806 q 435 843 503 843 l 325 843 l 325 903 l 1119 903 l 1800 60 l 1958 60 l 1958 0 l 915 0 l 915 60 l 1018 60 q 1076 75 1053 60 q 1100 119 1100 90 q 1060 206 1100 156 l 1008 269 l 393 269 q 363 208 372 238 q 353 156 353 179 q 383 85 353 110 q 457 60 413 60 l 586 60 l 586 0 l -19 0 m 1289 60 l 1396 60 l 764 843 l 657 843 l 1289 60 m 446 336 l 956 336 l 694 658 l 446 336 m 1635 -311 q 1522 -307 1579 -311 q 1417 -290 1464 -303 q 1340 -252 1369 -276 q 1311 -186 1311 -228 q 1351 -97 1311 -135 q 1460 -32 1392 -58 q 1612 10 1528 -6 q 1785 31 1696 25 l 1785 8 q 1648 -48 1693 -6 q 1603 -147 1603 -90 q 1635 -222 1603 -199 q 1711 -244 1667 -244 q 1788 -226 1749 -244 q 1858 -178 1826 -208 q 1904 -111 1890 -147 l 1958 -111 l 1958 -262 q 1819 -297 1906 -282 q 1635 -311 1733 -311 m 1508 -279 l 1511 -272 q 1459 -228 1482 -260 q 1436 -165 1436 -196 q 1499 -61 1436 -97 l 1494 -54 q 1403 -101 1440 -71 q 1367 -172 1367 -131 q 1403 -241 1367 -211 q 1508 -279 1440 -271 z "},"Å":{"ha":1940,"x_min":-19,"x_max":1958,"o":"m -19 0 l -19 60 q 71 81 26 60 q 153 134 115 103 q 221 197 192 165 q 267 249 250 228 q 283 271 283 271 l 640 725 l 606 768 q 539 824 575 806 q 435 843 503 843 l 325 843 l 325 903 l 1119 903 l 1800 60 l 1958 60 l 1958 0 l 915 0 l 915 60 l 1018 60 q 1076 75 1053 60 q 1100 119 1100 90 q 1060 206 1100 156 l 1008 269 l 393 269 q 363 208 372 238 q 353 156 353 179 q 383 85 353 110 q 457 60 413 60 l 586 60 l 586 0 l -19 0 m 1289 60 l 1396 60 l 764 843 l 657 843 l 1289 60 m 446 336 l 956 336 l 694 658 l 446 336 m 806 928 q 697 952 746 928 q 617 1017 647 976 q 588 1108 588 1058 q 617 1200 588 1158 q 697 1267 647 1242 q 806 1292 746 1292 q 917 1267 867 1292 q 997 1200 967 1242 q 1026 1108 1026 1158 q 997 1017 1026 1058 q 917 952 967 976 q 806 928 867 928 m 806 971 q 853 1011 833 971 q 872 1108 872 1051 q 853 1206 872 1165 q 806 1246 833 1246 q 759 1206 779 1246 q 739 1108 739 1165 q 759 1011 739 1051 q 806 971 779 971 m 726 979 l 731 983 q 699 1039 711 1007 q 688 1108 688 1071 q 731 1233 688 1183 l 726 1238 q 658 1184 685 1219 q 632 1108 632 1149 q 658 1034 632 1069 q 726 979 685 999 z "},"Ǻ":{"ha":1940,"x_min":-19,"x_max":1958,"o":"m 814 928 q 705 950 754 928 q 626 1010 656 972 q 596 1094 596 1049 q 621 1178 596 1147 q 685 1230 646 1210 q 767 1269 724 1250 q 846 1317 810 1289 q 900 1393 882 1346 l 1174 1393 q 1147 1339 1169 1374 q 1075 1272 1124 1304 q 944 1231 1026 1240 q 1010 1172 985 1207 q 1035 1094 1035 1136 q 1005 1010 1035 1049 q 925 950 975 972 q 814 928 875 928 m 806 1244 q 922 1268 876 1249 q 993 1313 967 1288 q 1031 1354 1019 1338 l 942 1354 q 903 1308 929 1329 q 850 1272 878 1286 q 801 1250 822 1257 l 806 1244 m 814 971 q 861 1007 842 971 q 881 1094 881 1043 q 861 1182 881 1146 q 814 1218 842 1218 q 767 1182 788 1218 q 747 1094 747 1146 q 767 1007 747 1043 q 814 971 788 971 m 735 979 l 739 983 q 708 1033 719 1004 q 696 1094 696 1061 q 708 1158 696 1128 q 739 1210 719 1188 l 735 1214 q 667 1163 693 1196 q 640 1094 640 1131 q 667 1028 640 1060 q 735 979 693 996 m -19 0 l -19 60 q 71 81 26 60 q 153 134 115 103 q 221 197 192 165 q 267 249 250 228 q 283 271 283 271 l 640 725 l 606 768 q 539 824 575 806 q 435 843 503 843 l 325 843 l 325 903 l 1119 903 l 1800 60 l 1958 60 l 1958 0 l 915 0 l 915 60 l 1018 60 q 1076 75 1053 60 q 1100 119 1100 90 q 1060 206 1100 156 l 1008 269 l 393 269 q 363 208 372 238 q 353 156 353 179 q 383 85 353 110 q 457 60 413 60 l 586 60 l 586 0 l -19 0 m 1289 60 l 1396 60 l 764 843 l 657 843 l 1289 60 m 446 336 l 956 336 l 694 658 l 446 336 z "},"Ã":{"ha":1940,"x_min":-19,"x_max":1958,"o":"m -19 0 l -19 60 q 71 81 26 60 q 153 134 115 103 q 221 197 192 165 q 267 249 250 228 q 283 271 283 271 l 640 725 l 606 768 q 539 824 575 806 q 435 843 503 843 l 325 843 l 325 903 l 1119 903 l 1800 60 l 1958 60 l 1958 0 l 915 0 l 915 60 l 1018 60 q 1076 75 1053 60 q 1100 119 1100 90 q 1060 206 1100 156 l 1008 269 l 393 269 q 363 208 372 238 q 353 156 353 179 q 383 85 353 110 q 457 60 413 60 l 586 60 l 586 0 l -19 0 m 1289 60 l 1396 60 l 764 843 l 657 843 l 1289 60 m 446 336 l 956 336 l 694 658 l 446 336 m 957 979 q 817 990 875 979 q 709 1013 758 1000 q 608 1037 660 1026 q 489 1047 557 1047 q 435 1033 458 1047 q 403 996 413 1019 l 364 996 q 387 1060 367 1022 q 446 1134 407 1097 q 543 1196 485 1171 q 678 1221 601 1221 q 810 1213 756 1221 q 910 1196 865 1206 q 997 1178 954 1186 q 1096 1171 1040 1171 q 1166 1184 1142 1171 q 1204 1219 1190 1197 l 1250 1219 q 1228 1151 1247 1192 q 1174 1072 1210 1111 q 1083 1006 1138 1032 q 957 979 1029 979 m 967 1026 q 1066 1044 1015 1026 q 1151 1090 1117 1061 l 1149 1096 q 1078 1081 1119 1086 q 1006 1075 1036 1075 q 868 1084 925 1075 q 766 1106 811 1093 q 676 1127 721 1118 q 575 1136 632 1136 q 510 1124 536 1136 q 464 1094 483 1111 l 468 1089 q 498 1094 483 1092 q 526 1096 513 1096 q 649 1078 585 1096 q 792 1044 714 1061 q 967 1026 869 1026 z "},"Æ":{"ha":2546,"x_min":-19,"x_max":2435,"o":"m -19 0 l -19 60 q 71 81 26 60 q 153 134 115 103 q 221 197 192 165 q 267 249 250 228 q 283 271 283 271 l 640 725 l 606 768 q 539 824 575 806 q 435 843 503 843 l 325 843 l 325 903 l 2435 903 l 2435 583 l 2394 583 q 2269 703 2350 644 q 2067 801 2189 763 q 1774 840 1946 840 q 1659 803 1701 840 q 1617 706 1617 765 l 1617 658 q 1625 597 1617 631 q 1659 540 1633 564 q 1739 517 1685 517 q 1836 531 1785 517 q 1936 568 1888 544 q 2022 624 1985 592 q 2076 693 2060 656 l 2128 693 l 2128 269 l 2076 269 q 1997 359 2054 322 q 1869 415 1939 396 q 1739 433 1800 433 q 1665 415 1692 433 q 1628 367 1639 396 q 1617 310 1617 339 l 1617 260 q 1624 153 1617 199 q 1656 84 1631 108 q 1736 60 1681 60 l 1771 60 q 1928 65 1846 60 q 2094 92 2011 69 q 2254 162 2178 114 q 2394 294 2331 210 l 2435 294 l 2435 0 l 758 0 l 758 60 l 925 60 q 1033 93 989 60 q 1076 210 1076 126 l 1076 433 l 521 433 l 393 269 q 361 209 369 239 q 353 156 353 179 q 383 85 353 110 q 457 60 413 60 l 586 60 l 586 0 l -19 0 m 925 843 l 840 843 l 586 517 l 1076 517 l 1076 704 q 1043 804 1076 765 q 925 843 1010 843 m 1169 60 l 1261 60 l 1261 843 l 1169 843 l 1169 60 z "},"Ǽ":{"ha":2546,"x_min":-19,"x_max":2435,"o":"m -19 0 l -19 60 q 71 81 26 60 q 153 134 115 103 q 221 197 192 165 q 267 249 250 228 q 283 271 283 271 l 640 725 l 606 768 q 539 824 575 806 q 435 843 503 843 l 325 843 l 325 903 l 2435 903 l 2435 583 l 2394 583 q 2269 703 2350 644 q 2067 801 2189 763 q 1774 840 1946 840 q 1659 803 1701 840 q 1617 706 1617 765 l 1617 658 q 1625 597 1617 631 q 1659 540 1633 564 q 1739 517 1685 517 q 1836 531 1785 517 q 1936 568 1888 544 q 2022 624 1985 592 q 2076 693 2060 656 l 2128 693 l 2128 269 l 2076 269 q 1997 359 2054 322 q 1869 415 1939 396 q 1739 433 1800 433 q 1665 415 1692 433 q 1628 367 1639 396 q 1617 310 1617 339 l 1617 260 q 1624 153 1617 199 q 1656 84 1631 108 q 1736 60 1681 60 l 1771 60 q 1928 65 1846 60 q 2094 92 2011 69 q 2254 162 2178 114 q 2394 294 2331 210 l 2435 294 l 2435 0 l 758 0 l 758 60 l 925 60 q 1033 93 989 60 q 1076 210 1076 126 l 1076 433 l 521 433 l 393 269 q 361 209 369 239 q 353 156 353 179 q 383 85 353 110 q 457 60 413 60 l 586 60 l 586 0 l -19 0 m 925 843 l 840 843 l 586 517 l 1076 517 l 1076 704 q 1043 804 1076 765 q 925 843 1010 843 m 1169 60 l 1261 60 l 1261 843 l 1169 843 l 1169 60 m 892 994 l 892 1044 q 1067 1063 1000 1044 q 1175 1115 1133 1081 q 1251 1197 1217 1149 l 1656 1197 q 1647 1176 1656 1197 q 1617 1124 1639 1154 q 1556 1064 1596 1093 q 1450 1019 1515 1035 q 1347 1005 1410 1010 q 1213 998 1283 1000 q 1078 995 1143 996 q 967 994 1013 994 l 892 994 m 1167 1049 q 1285 1072 1239 1053 q 1358 1117 1332 1092 q 1396 1158 1385 1142 l 1307 1158 q 1269 1112 1294 1133 q 1216 1076 1244 1090 q 1167 1054 1188 1061 l 1167 1049 z "},"B":{"ha":2057,"x_min":101,"x_max":1974,"o":"m 101 0 l 101 60 l 268 60 q 374 94 331 60 q 418 210 418 128 l 418 690 q 398 767 418 732 q 344 822 378 801 q 268 843 310 843 l 101 843 l 101 903 l 1438 903 q 1613 896 1531 903 q 1758 869 1694 889 q 1856 808 1821 849 q 1892 701 1892 768 q 1870 613 1892 650 q 1817 549 1849 575 q 1756 508 1786 524 q 1706 486 1725 493 l 1706 479 q 1773 461 1729 475 q 1863 421 1817 447 q 1942 351 1910 394 q 1974 243 1974 307 q 1945 141 1974 183 q 1870 72 1917 99 q 1767 28 1824 44 q 1653 6 1710 13 q 1547 0 1596 0 l 101 0 m 513 60 l 603 60 l 603 843 l 513 843 l 513 60 m 961 503 l 1179 503 q 1263 520 1221 503 q 1333 575 1304 538 q 1361 672 1361 613 q 1300 798 1361 754 q 1125 842 1239 842 q 1005 804 1049 842 q 961 706 961 767 l 961 503 m 1422 506 q 1529 567 1486 526 q 1572 664 1572 608 q 1530 762 1572 721 q 1422 821 1488 803 l 1418 817 q 1459 748 1444 785 q 1474 664 1474 711 q 1460 581 1474 618 q 1418 511 1446 544 l 1422 506 m 1078 60 l 1204 60 q 1299 78 1251 60 q 1381 138 1347 96 q 1414 256 1414 181 q 1349 404 1414 358 q 1189 450 1285 450 l 961 450 l 961 201 q 988 99 961 139 q 1078 60 1014 60 m 1449 65 q 1577 140 1526 90 q 1628 256 1628 190 q 1577 374 1628 324 q 1449 449 1526 424 l 1444 443 q 1507 363 1483 410 q 1531 256 1531 317 q 1508 150 1531 196 q 1446 71 1485 104 l 1449 65 z "},"C":{"ha":1524,"x_min":31,"x_max":1506,"o":"m 925 -31 q 585 -3 746 -31 q 299 83 424 25 q 102 234 174 142 q 31 456 31 326 q 81 640 31 561 q 216 776 131 719 q 410 867 301 832 q 639 919 519 903 q 875 936 758 936 q 1142 904 1015 936 q 1374 833 1268 872 l 1374 903 l 1440 903 l 1440 571 l 1374 571 q 1296 676 1347 622 q 1176 774 1244 729 q 1028 847 1107 819 q 868 875 950 875 q 742 849 788 875 q 677 777 696 822 q 658 674 658 732 l 658 293 q 718 91 658 154 q 929 28 778 28 q 1156 53 1061 28 q 1314 113 1250 79 q 1416 173 1378 147 q 1472 199 1454 199 q 1494 193 1482 199 q 1506 171 1506 188 q 1468 122 1506 150 q 1361 58 1431 94 q 1187 -3 1292 24 q 925 -31 1082 -31 m 494 82 l 496 89 q 355 172 419 122 q 251 290 290 222 q 211 444 211 358 q 251 615 211 540 q 355 744 290 689 q 496 833 419 799 l 494 840 q 297 750 383 810 q 161 613 210 690 q 113 444 113 535 q 161 291 113 363 q 297 165 210 219 q 494 82 383 111 z "},"Ć":{"ha":1524,"x_min":31,"x_max":1506,"o":"m 925 -31 q 585 -3 746 -31 q 299 83 424 25 q 102 234 174 142 q 31 456 31 326 q 81 640 31 561 q 216 776 131 719 q 410 867 301 832 q 639 919 519 903 q 875 936 758 936 q 1142 904 1015 936 q 1374 833 1268 872 l 1374 903 l 1440 903 l 1440 571 l 1374 571 q 1296 676 1347 622 q 1176 774 1244 729 q 1028 847 1107 819 q 868 875 950 875 q 742 849 788 875 q 677 777 696 822 q 658 674 658 732 l 658 293 q 718 91 658 154 q 929 28 778 28 q 1156 53 1061 28 q 1314 113 1250 79 q 1416 173 1378 147 q 1472 199 1454 199 q 1494 193 1482 199 q 1506 171 1506 188 q 1468 122 1506 150 q 1361 58 1431 94 q 1187 -3 1292 24 q 925 -31 1082 -31 m 494 82 l 496 89 q 355 172 419 122 q 251 290 290 222 q 211 444 211 358 q 251 615 211 540 q 355 744 290 689 q 496 833 419 799 l 494 840 q 297 750 383 810 q 161 613 210 690 q 113 444 113 535 q 161 291 113 363 q 297 165 210 219 q 494 82 383 111 m 492 994 l 492 1044 q 667 1063 600 1044 q 775 1115 733 1081 q 851 1197 817 1149 l 1256 1197 q 1247 1176 1256 1197 q 1217 1124 1239 1154 q 1156 1064 1196 1093 q 1050 1019 1115 1035 q 947 1005 1010 1010 q 813 998 883 1000 q 678 995 743 996 q 567 994 613 994 l 492 994 m 767 1049 q 885 1072 839 1053 q 958 1117 932 1092 q 996 1158 985 1142 l 907 1158 q 869 1112 894 1133 q 816 1076 844 1090 q 767 1054 788 1061 l 767 1049 z "},"Č":{"ha":1524,"x_min":31,"x_max":1506,"o":"m 925 -31 q 585 -3 746 -31 q 299 83 424 25 q 102 234 174 142 q 31 456 31 326 q 81 640 31 561 q 216 776 131 719 q 410 867 301 832 q 639 919 519 903 q 875 936 758 936 q 1142 904 1015 936 q 1374 833 1268 872 l 1374 903 l 1440 903 l 1440 571 l 1374 571 q 1296 676 1347 622 q 1176 774 1244 729 q 1028 847 1107 819 q 868 875 950 875 q 742 849 788 875 q 677 777 696 822 q 658 674 658 732 l 658 293 q 718 91 658 154 q 929 28 778 28 q 1156 53 1061 28 q 1314 113 1250 79 q 1416 173 1378 147 q 1472 199 1454 199 q 1494 193 1482 199 q 1506 171 1506 188 q 1468 122 1506 150 q 1361 58 1431 94 q 1187 -3 1292 24 q 925 -31 1082 -31 m 494 82 l 496 89 q 355 172 419 122 q 251 290 290 222 q 211 444 211 358 q 251 615 211 540 q 355 744 290 689 q 496 833 419 799 l 494 840 q 297 750 383 810 q 161 613 210 690 q 113 444 113 535 q 161 291 113 363 q 297 165 210 219 q 494 82 383 111 m 649 994 l 463 1197 l 875 1197 l 1019 1042 l 1163 1197 l 1283 1197 l 1099 994 l 649 994 m 721 1029 l 807 1029 l 703 1144 l 617 1144 l 721 1029 z "},"Ç":{"ha":1524,"x_min":31,"x_max":1506,"o":"m 925 -31 q 585 -3 746 -31 q 299 83 424 25 q 102 234 174 142 q 31 456 31 326 q 81 640 31 561 q 216 776 131 719 q 410 867 301 832 q 639 919 519 903 q 875 936 758 936 q 1142 904 1015 936 q 1374 833 1268 872 l 1374 903 l 1440 903 l 1440 571 l 1374 571 q 1296 676 1347 622 q 1176 774 1244 729 q 1028 847 1107 819 q 868 875 950 875 q 742 849 788 875 q 677 777 696 822 q 658 674 658 732 l 658 293 q 718 91 658 154 q 929 28 778 28 q 1156 53 1061 28 q 1314 113 1250 79 q 1416 173 1378 147 q 1472 199 1454 199 q 1494 193 1482 199 q 1506 171 1506 188 q 1468 122 1506 150 q 1361 58 1431 94 q 1187 -3 1292 24 q 925 -31 1082 -31 m 494 82 l 496 89 q 355 172 419 122 q 251 290 290 222 q 211 444 211 358 q 251 615 211 540 q 355 744 290 689 q 496 833 419 799 l 494 840 q 297 750 383 810 q 161 613 210 690 q 113 444 113 535 q 161 291 113 363 q 297 165 210 219 q 494 82 383 111 m 761 -310 q 576 -295 663 -310 q 438 -261 490 -281 l 438 -110 l 492 -110 q 538 -176 507 -146 q 609 -225 569 -207 q 685 -243 649 -243 q 761 -220 729 -243 q 793 -146 793 -197 q 611 0 793 -26 l 611 22 q 784 9 700 22 q 936 -31 868 -4 q 1044 -95 1004 -57 q 1085 -185 1085 -133 q 1056 -251 1085 -226 q 979 -288 1026 -275 q 875 -306 932 -301 q 761 -310 818 -310 m 818 -261 q 876 -238 846 -254 q 926 -199 906 -222 q 946 -149 946 -175 q 909 -78 946 -104 q 818 -33 872 -51 l 813 -42 q 876 -149 876 -81 q 860 -209 876 -179 q 814 -253 843 -239 l 818 -261 z "},"Ĉ":{"ha":1524,"x_min":31,"x_max":1506,"o":"m 925 -31 q 585 -3 746 -31 q 299 83 424 25 q 102 234 174 142 q 31 456 31 326 q 81 640 31 561 q 216 776 131 719 q 410 867 301 832 q 639 919 519 903 q 875 936 758 936 q 1142 904 1015 936 q 1374 833 1268 872 l 1374 903 l 1440 903 l 1440 571 l 1374 571 q 1296 676 1347 622 q 1176 774 1244 729 q 1028 847 1107 819 q 868 875 950 875 q 742 849 788 875 q 677 777 696 822 q 658 674 658 732 l 658 293 q 718 91 658 154 q 929 28 778 28 q 1156 53 1061 28 q 1314 113 1250 79 q 1416 173 1378 147 q 1472 199 1454 199 q 1494 193 1482 199 q 1506 171 1506 188 q 1468 122 1506 150 q 1361 58 1431 94 q 1187 -3 1292 24 q 925 -31 1082 -31 m 494 82 l 496 89 q 355 172 419 122 q 251 290 290 222 q 211 444 211 358 q 251 615 211 540 q 355 744 290 689 q 496 833 419 799 l 494 840 q 297 750 383 810 q 161 613 210 690 q 113 444 113 535 q 161 291 113 363 q 297 165 210 219 q 494 82 383 111 m 463 994 l 649 1197 l 1099 1197 l 1283 994 l 1163 994 l 1019 1150 l 875 994 l 463 994 m 617 1047 l 703 1047 l 807 1163 l 721 1163 l 617 1047 z "},"Ċ":{"ha":1524,"x_min":31,"x_max":1506,"o":"m 925 -31 q 585 -3 746 -31 q 299 83 424 25 q 102 234 174 142 q 31 456 31 326 q 81 640 31 561 q 216 776 131 719 q 410 867 301 832 q 639 919 519 903 q 875 936 758 936 q 1142 904 1015 936 q 1374 833 1268 872 l 1374 903 l 1440 903 l 1440 571 l 1374 571 q 1296 676 1347 622 q 1176 774 1244 729 q 1028 847 1107 819 q 868 875 950 875 q 742 849 788 875 q 677 777 696 822 q 658 674 658 732 l 658 293 q 718 91 658 154 q 929 28 778 28 q 1156 53 1061 28 q 1314 113 1250 79 q 1416 173 1378 147 q 1472 199 1454 199 q 1494 193 1482 199 q 1506 171 1506 188 q 1468 122 1506 150 q 1361 58 1431 94 q 1187 -3 1292 24 q 925 -31 1082 -31 m 494 82 l 496 89 q 355 172 419 122 q 251 290 290 222 q 211 444 211 358 q 251 615 211 540 q 355 744 290 689 q 496 833 419 799 l 494 840 q 297 750 383 810 q 161 613 210 690 q 113 444 113 535 q 161 291 113 363 q 297 165 210 219 q 494 82 383 111 m 872 951 q 778 972 821 951 q 709 1029 735 993 q 683 1108 683 1065 q 709 1189 683 1153 q 778 1247 735 1225 q 872 1268 821 1268 q 969 1247 926 1268 q 1038 1189 1013 1225 q 1064 1108 1064 1153 q 1038 1029 1064 1065 q 969 972 1013 993 q 872 951 926 951 m 804 996 l 807 1000 q 780 1048 790 1019 q 769 1108 769 1076 q 780 1169 769 1140 q 807 1217 790 1197 l 804 1221 q 744 1174 768 1204 q 721 1108 721 1143 q 744 1043 721 1074 q 804 996 768 1013 z "},"D":{"ha":2040,"x_min":97,"x_max":2008,"o":"m 97 0 l 97 60 l 264 60 q 371 94 326 60 q 415 211 415 128 l 415 692 q 395 767 415 733 q 340 822 375 801 q 264 843 306 843 l 97 843 l 97 903 l 1157 903 q 1408 888 1285 903 q 1640 842 1532 874 q 1831 760 1749 811 q 1961 636 1914 708 q 2008 468 2008 564 q 1973 299 2008 371 q 1878 174 1938 226 q 1743 88 1818 122 q 1587 35 1668 54 q 1427 8 1506 15 q 1285 0 1349 0 l 97 0 m 508 60 l 599 60 l 599 843 l 508 843 l 508 60 m 1072 60 l 1199 60 q 1308 93 1264 60 q 1379 182 1353 126 q 1418 308 1406 238 q 1431 450 1431 378 q 1403 650 1431 561 q 1308 790 1375 739 q 1121 842 1240 842 q 1000 805 1044 842 q 956 706 956 768 l 956 201 q 982 99 956 139 q 1072 60 1008 60 m 1436 69 q 1604 219 1542 129 q 1667 450 1667 310 q 1604 681 1667 590 q 1436 831 1542 771 l 1433 826 q 1523 652 1492 747 q 1554 450 1554 557 q 1523 249 1554 344 q 1433 74 1492 153 l 1436 69 z "},"Ð":{"ha":2040,"x_min":97,"x_max":2008,"o":"m 97 0 l 97 60 l 264 60 q 371 94 326 60 q 415 211 415 128 l 415 396 l 206 396 l 206 507 l 415 507 l 415 692 q 395 767 415 733 q 340 822 375 801 q 264 843 306 843 l 97 843 l 97 903 l 1157 903 q 1408 888 1285 903 q 1640 842 1532 874 q 1831 760 1749 811 q 1961 636 1914 708 q 2008 468 2008 564 q 1973 299 2008 371 q 1878 174 1938 226 q 1743 88 1818 122 q 1587 35 1668 54 q 1427 8 1506 15 q 1285 0 1349 0 l 97 0 m 508 60 l 599 60 l 599 843 l 508 843 l 508 60 m 1072 60 l 1199 60 q 1308 93 1264 60 q 1379 182 1353 126 q 1418 308 1406 238 q 1431 450 1431 378 q 1403 650 1431 561 q 1308 790 1375 739 q 1121 842 1240 842 q 1000 805 1044 842 q 956 706 956 768 l 956 507 l 1217 507 l 1217 396 l 956 396 l 956 201 q 982 99 956 139 q 1072 60 1008 60 m 1436 69 q 1604 219 1542 129 q 1667 450 1667 310 q 1604 681 1667 590 q 1436 831 1542 771 l 1433 826 q 1523 652 1492 747 q 1554 450 1554 557 q 1523 249 1554 344 q 1433 74 1492 153 l 1436 69 z "},"Ď":{"ha":2040,"x_min":97,"x_max":2008,"o":"m 97 0 l 97 60 l 264 60 q 371 94 326 60 q 415 211 415 128 l 415 692 q 395 767 415 733 q 340 822 375 801 q 264 843 306 843 l 97 843 l 97 903 l 1157 903 q 1408 888 1285 903 q 1640 842 1532 874 q 1831 760 1749 811 q 1961 636 1914 708 q 2008 468 2008 564 q 1973 299 2008 371 q 1878 174 1938 226 q 1743 88 1818 122 q 1587 35 1668 54 q 1427 8 1506 15 q 1285 0 1349 0 l 97 0 m 508 60 l 599 60 l 599 843 l 508 843 l 508 60 m 1072 60 l 1199 60 q 1308 93 1264 60 q 1379 182 1353 126 q 1418 308 1406 238 q 1431 450 1431 378 q 1403 650 1431 561 q 1308 790 1375 739 q 1121 842 1240 842 q 1000 805 1044 842 q 956 706 956 768 l 956 201 q 982 99 956 139 q 1072 60 1008 60 m 1436 69 q 1604 219 1542 129 q 1667 450 1667 310 q 1604 681 1667 590 q 1436 831 1542 771 l 1433 826 q 1523 652 1492 747 q 1554 450 1554 557 q 1523 249 1554 344 q 1433 74 1492 153 l 1436 69 m 796 994 l 610 1197 l 1022 1197 l 1167 1042 l 1310 1197 l 1431 1197 l 1246 994 l 796 994 m 868 1029 l 954 1029 l 850 1144 l 764 1144 l 868 1029 z "},"Đ":{"ha":2040,"x_min":97,"x_max":2008,"o":"m 97 0 l 97 60 l 264 60 q 371 94 326 60 q 415 211 415 128 l 415 396 l 206 396 l 206 507 l 415 507 l 415 692 q 395 767 415 733 q 340 822 375 801 q 264 843 306 843 l 97 843 l 97 903 l 1157 903 q 1408 888 1285 903 q 1640 842 1532 874 q 1831 760 1749 811 q 1961 636 1914 708 q 2008 468 2008 564 q 1973 299 2008 371 q 1878 174 1938 226 q 1743 88 1818 122 q 1587 35 1668 54 q 1427 8 1506 15 q 1285 0 1349 0 l 97 0 m 508 60 l 599 60 l 599 843 l 508 843 l 508 60 m 1072 60 l 1199 60 q 1308 93 1264 60 q 1379 182 1353 126 q 1418 308 1406 238 q 1431 450 1431 378 q 1403 650 1431 561 q 1308 790 1375 739 q 1121 842 1240 842 q 1000 805 1044 842 q 956 706 956 768 l 956 507 l 1217 507 l 1217 396 l 956 396 l 956 201 q 982 99 956 139 q 1072 60 1008 60 m 1436 69 q 1604 219 1542 129 q 1667 450 1667 310 q 1604 681 1667 590 q 1436 831 1542 771 l 1433 826 q 1523 652 1492 747 q 1554 450 1554 557 q 1523 249 1554 344 q 1433 74 1492 153 l 1436 69 z "},"E":{"ha":1889,"x_min":101,"x_max":1778,"o":"m 101 0 l 101 60 l 268 60 q 376 93 332 60 q 419 210 419 126 l 419 690 q 399 767 419 732 q 345 822 379 801 q 268 843 311 843 l 101 843 l 101 903 l 1778 903 l 1778 583 l 1738 583 q 1613 703 1693 644 q 1410 801 1532 763 q 1117 840 1289 840 q 1002 803 1044 840 q 960 706 960 765 l 960 658 q 967 597 960 631 q 1001 540 975 564 q 1082 517 1028 517 q 1179 531 1128 517 q 1279 568 1231 544 q 1365 624 1328 592 q 1419 693 1403 656 l 1471 693 l 1471 269 l 1419 269 q 1340 359 1397 322 q 1213 415 1282 396 q 1082 433 1143 433 q 1008 415 1035 433 q 971 367 982 396 q 960 310 960 339 l 960 260 q 967 153 960 199 q 999 84 974 108 q 1079 60 1024 60 l 1114 60 q 1272 65 1189 60 q 1438 92 1354 69 q 1597 162 1521 114 q 1738 294 1674 210 l 1778 294 l 1778 0 l 101 0 m 513 60 l 604 60 l 604 843 l 513 843 l 513 60 z "},"É":{"ha":1889,"x_min":101,"x_max":1778,"o":"m 101 0 l 101 60 l 268 60 q 376 93 332 60 q 419 210 419 126 l 419 690 q 399 767 419 732 q 345 822 379 801 q 268 843 311 843 l 101 843 l 101 903 l 1778 903 l 1778 583 l 1738 583 q 1613 703 1693 644 q 1410 801 1532 763 q 1117 840 1289 840 q 1002 803 1044 840 q 960 706 960 765 l 960 658 q 967 597 960 631 q 1001 540 975 564 q 1082 517 1028 517 q 1179 531 1128 517 q 1279 568 1231 544 q 1365 624 1328 592 q 1419 693 1403 656 l 1471 693 l 1471 269 l 1419 269 q 1340 359 1397 322 q 1213 415 1282 396 q 1082 433 1143 433 q 1008 415 1035 433 q 971 367 982 396 q 960 310 960 339 l 960 260 q 967 153 960 199 q 999 84 974 108 q 1079 60 1024 60 l 1114 60 q 1272 65 1189 60 q 1438 92 1354 69 q 1597 162 1521 114 q 1738 294 1674 210 l 1778 294 l 1778 0 l 101 0 m 513 60 l 604 60 l 604 843 l 513 843 l 513 60 m 701 994 l 701 1044 q 876 1063 810 1044 q 985 1115 943 1081 q 1061 1197 1026 1149 l 1465 1197 q 1457 1176 1465 1197 q 1427 1124 1449 1154 q 1365 1064 1406 1093 q 1260 1019 1325 1035 q 1156 1005 1219 1010 q 1023 998 1093 1000 q 888 995 953 996 q 776 994 822 994 l 701 994 m 976 1049 q 1095 1072 1049 1053 q 1168 1117 1142 1092 q 1206 1158 1194 1142 l 1117 1158 q 1079 1112 1104 1133 q 1026 1076 1054 1090 q 976 1054 997 1061 l 976 1049 z "},"Ĕ":{"ha":1889,"x_min":101,"x_max":1778,"o":"m 101 0 l 101 60 l 268 60 q 376 93 332 60 q 419 210 419 126 l 419 690 q 399 767 419 732 q 345 822 379 801 q 268 843 311 843 l 101 843 l 101 903 l 1778 903 l 1778 583 l 1738 583 q 1613 703 1693 644 q 1410 801 1532 763 q 1117 840 1289 840 q 1002 803 1044 840 q 960 706 960 765 l 960 658 q 967 597 960 631 q 1001 540 975 564 q 1082 517 1028 517 q 1179 531 1128 517 q 1279 568 1231 544 q 1365 624 1328 592 q 1419 693 1403 656 l 1471 693 l 1471 269 l 1419 269 q 1340 359 1397 322 q 1213 415 1282 396 q 1082 433 1143 433 q 1008 415 1035 433 q 971 367 982 396 q 960 310 960 339 l 960 260 q 967 153 960 199 q 999 84 974 108 q 1079 60 1024 60 l 1114 60 q 1272 65 1189 60 q 1438 92 1354 69 q 1597 162 1521 114 q 1738 294 1674 210 l 1778 294 l 1778 0 l 101 0 m 513 60 l 604 60 l 604 843 l 513 843 l 513 60 m 1085 949 q 949 984 1011 949 q 849 1080 886 1019 q 813 1213 813 1140 l 842 1221 q 942 1161 885 1186 q 1085 1136 1000 1136 q 1228 1161 1171 1136 q 1326 1221 1285 1186 l 1354 1213 q 1318 1080 1354 1140 q 1222 984 1282 1019 q 1085 949 1161 949 m 1085 993 q 1198 1023 1146 993 q 1278 1103 1250 1053 l 1271 1107 q 1190 1065 1238 1082 q 1085 1049 1142 1049 q 983 1065 1032 1049 q 900 1107 933 1082 l 893 1103 q 973 1023 921 1053 q 1085 993 1025 993 z "},"Ě":{"ha":1889,"x_min":101,"x_max":1778,"o":"m 101 0 l 101 60 l 268 60 q 376 93 332 60 q 419 210 419 126 l 419 690 q 399 767 419 732 q 345 822 379 801 q 268 843 311 843 l 101 843 l 101 903 l 1778 903 l 1778 583 l 1738 583 q 1613 703 1693 644 q 1410 801 1532 763 q 1117 840 1289 840 q 1002 803 1044 840 q 960 706 960 765 l 960 658 q 967 597 960 631 q 1001 540 975 564 q 1082 517 1028 517 q 1179 531 1128 517 q 1279 568 1231 544 q 1365 624 1328 592 q 1419 693 1403 656 l 1471 693 l 1471 269 l 1419 269 q 1340 359 1397 322 q 1213 415 1282 396 q 1082 433 1143 433 q 1008 415 1035 433 q 971 367 982 396 q 960 310 960 339 l 960 260 q 967 153 960 199 q 999 84 974 108 q 1079 60 1024 60 l 1114 60 q 1272 65 1189 60 q 1438 92 1354 69 q 1597 162 1521 114 q 1738 294 1674 210 l 1778 294 l 1778 0 l 101 0 m 513 60 l 604 60 l 604 843 l 513 843 l 513 60 m 858 994 l 672 1197 l 1085 1197 l 1229 1042 l 1372 1197 l 1493 1197 l 1308 994 l 858 994 m 931 1029 l 1017 1029 l 913 1144 l 826 1144 l 931 1029 z "},"Ê":{"ha":1889,"x_min":101,"x_max":1778,"o":"m 101 0 l 101 60 l 268 60 q 376 93 332 60 q 419 210 419 126 l 419 690 q 399 767 419 732 q 345 822 379 801 q 268 843 311 843 l 101 843 l 101 903 l 1778 903 l 1778 583 l 1738 583 q 1613 703 1693 644 q 1410 801 1532 763 q 1117 840 1289 840 q 1002 803 1044 840 q 960 706 960 765 l 960 658 q 967 597 960 631 q 1001 540 975 564 q 1082 517 1028 517 q 1179 531 1128 517 q 1279 568 1231 544 q 1365 624 1328 592 q 1419 693 1403 656 l 1471 693 l 1471 269 l 1419 269 q 1340 359 1397 322 q 1213 415 1282 396 q 1082 433 1143 433 q 1008 415 1035 433 q 971 367 982 396 q 960 310 960 339 l 960 260 q 967 153 960 199 q 999 84 974 108 q 1079 60 1024 60 l 1114 60 q 1272 65 1189 60 q 1438 92 1354 69 q 1597 162 1521 114 q 1738 294 1674 210 l 1778 294 l 1778 0 l 101 0 m 513 60 l 604 60 l 604 843 l 513 843 l 513 60 m 672 994 l 858 1197 l 1308 1197 l 1493 994 l 1372 994 l 1229 1150 l 1085 994 l 672 994 m 826 1047 l 913 1047 l 1017 1163 l 931 1163 l 826 1047 z "},"Ë":{"ha":1889,"x_min":101,"x_max":1778,"o":"m 101 0 l 101 60 l 268 60 q 376 93 332 60 q 419 210 419 126 l 419 690 q 399 767 419 732 q 345 822 379 801 q 268 843 311 843 l 101 843 l 101 903 l 1778 903 l 1778 583 l 1738 583 q 1613 703 1693 644 q 1410 801 1532 763 q 1117 840 1289 840 q 1002 803 1044 840 q 960 706 960 765 l 960 658 q 967 597 960 631 q 1001 540 975 564 q 1082 517 1028 517 q 1179 531 1128 517 q 1279 568 1231 544 q 1365 624 1328 592 q 1419 693 1403 656 l 1471 693 l 1471 269 l 1419 269 q 1340 359 1397 322 q 1213 415 1282 396 q 1082 433 1143 433 q 1008 415 1035 433 q 971 367 982 396 q 960 310 960 339 l 960 260 q 967 153 960 199 q 999 84 974 108 q 1079 60 1024 60 l 1114 60 q 1272 65 1189 60 q 1438 92 1354 69 q 1597 162 1521 114 q 1738 294 1674 210 l 1778 294 l 1778 0 l 101 0 m 513 60 l 604 60 l 604 843 l 513 843 l 513 60 m 1399 951 q 1304 972 1347 951 q 1235 1029 1261 993 q 1210 1108 1210 1065 q 1235 1189 1210 1153 q 1304 1247 1261 1225 q 1399 1268 1347 1268 q 1496 1247 1453 1268 q 1565 1189 1539 1225 q 1590 1108 1590 1153 q 1565 1029 1590 1065 q 1496 972 1539 993 q 1399 951 1453 951 m 765 951 q 671 972 714 951 q 602 1029 628 993 q 576 1108 576 1065 q 602 1189 576 1153 q 671 1247 628 1225 q 765 1268 714 1268 q 863 1247 819 1268 q 931 1189 906 1225 q 957 1108 957 1153 q 931 1029 957 1065 q 863 972 906 993 q 765 951 819 951 m 724 983 l 728 988 q 697 1040 708 1010 q 685 1108 685 1071 q 697 1176 685 1146 q 728 1229 708 1207 l 724 1233 q 655 1182 682 1215 q 628 1108 628 1149 q 655 1035 628 1069 q 724 983 682 1001 m 1357 983 l 1361 988 q 1330 1040 1342 1010 q 1318 1108 1318 1071 q 1330 1176 1318 1146 q 1361 1229 1342 1207 l 1357 1233 q 1288 1182 1315 1215 q 1261 1108 1261 1149 q 1288 1035 1261 1069 q 1357 983 1315 1001 z "},"Ė":{"ha":1889,"x_min":101,"x_max":1778,"o":"m 101 0 l 101 60 l 268 60 q 376 93 332 60 q 419 210 419 126 l 419 690 q 399 767 419 732 q 345 822 379 801 q 268 843 311 843 l 101 843 l 101 903 l 1778 903 l 1778 583 l 1738 583 q 1613 703 1693 644 q 1410 801 1532 763 q 1117 840 1289 840 q 1002 803 1044 840 q 960 706 960 765 l 960 658 q 967 597 960 631 q 1001 540 975 564 q 1082 517 1028 517 q 1179 531 1128 517 q 1279 568 1231 544 q 1365 624 1328 592 q 1419 693 1403 656 l 1471 693 l 1471 269 l 1419 269 q 1340 359 1397 322 q 1213 415 1282 396 q 1082 433 1143 433 q 1008 415 1035 433 q 971 367 982 396 q 960 310 960 339 l 960 260 q 967 153 960 199 q 999 84 974 108 q 1079 60 1024 60 l 1114 60 q 1272 65 1189 60 q 1438 92 1354 69 q 1597 162 1521 114 q 1738 294 1674 210 l 1778 294 l 1778 0 l 101 0 m 513 60 l 604 60 l 604 843 l 513 843 l 513 60 m 1082 951 q 988 972 1031 951 q 919 1029 944 993 q 893 1108 893 1065 q 919 1189 893 1153 q 988 1247 944 1225 q 1082 1268 1031 1268 q 1179 1247 1136 1268 q 1248 1189 1222 1225 q 1274 1108 1274 1153 q 1248 1029 1274 1065 q 1179 972 1222 993 q 1082 951 1136 951 m 1014 996 l 1017 1000 q 990 1048 1000 1019 q 979 1108 979 1076 q 990 1169 979 1140 q 1017 1217 1000 1197 l 1014 1221 q 954 1174 978 1204 q 931 1108 931 1143 q 954 1043 931 1074 q 1014 996 978 1013 z "},"È":{"ha":1889,"x_min":101,"x_max":1778,"o":"m 101 0 l 101 60 l 268 60 q 376 93 332 60 q 419 210 419 126 l 419 690 q 399 767 419 732 q 345 822 379 801 q 268 843 311 843 l 101 843 l 101 903 l 1778 903 l 1778 583 l 1738 583 q 1613 703 1693 644 q 1410 801 1532 763 q 1117 840 1289 840 q 1002 803 1044 840 q 960 706 960 765 l 960 658 q 967 597 960 631 q 1001 540 975 564 q 1082 517 1028 517 q 1179 531 1128 517 q 1279 568 1231 544 q 1365 624 1328 592 q 1419 693 1403 656 l 1471 693 l 1471 269 l 1419 269 q 1340 359 1397 322 q 1213 415 1282 396 q 1082 433 1143 433 q 1008 415 1035 433 q 971 367 982 396 q 960 310 960 339 l 960 260 q 967 153 960 199 q 999 84 974 108 q 1079 60 1024 60 l 1114 60 q 1272 65 1189 60 q 1438 92 1354 69 q 1597 162 1521 114 q 1738 294 1674 210 l 1778 294 l 1778 0 l 101 0 m 513 60 l 604 60 l 604 843 l 513 843 l 513 60 m 1390 994 q 1279 995 1344 994 q 1144 998 1214 996 q 1010 1005 1074 1000 q 907 1019 947 1010 q 802 1064 843 1035 q 740 1124 761 1093 q 710 1176 718 1154 q 701 1197 701 1197 l 1106 1197 q 1182 1115 1140 1149 q 1290 1063 1224 1081 q 1465 1044 1357 1044 l 1465 994 l 1390 994 m 1032 1049 l 1032 1054 q 983 1076 1011 1061 q 929 1112 954 1090 q 892 1158 904 1133 l 803 1158 q 841 1117 815 1142 q 913 1072 867 1092 q 1032 1049 960 1053 z "},"Ē":{"ha":1889,"x_min":101,"x_max":1778,"o":"m 101 0 l 101 60 l 268 60 q 376 93 332 60 q 419 210 419 126 l 419 690 q 399 767 419 732 q 345 822 379 801 q 268 843 311 843 l 101 843 l 101 903 l 1778 903 l 1778 583 l 1738 583 q 1613 703 1693 644 q 1410 801 1532 763 q 1117 840 1289 840 q 1002 803 1044 840 q 960 706 960 765 l 960 658 q 967 597 960 631 q 1001 540 975 564 q 1082 517 1028 517 q 1179 531 1128 517 q 1279 568 1231 544 q 1365 624 1328 592 q 1419 693 1403 656 l 1471 693 l 1471 269 l 1419 269 q 1340 359 1397 322 q 1213 415 1282 396 q 1082 433 1143 433 q 1008 415 1035 433 q 971 367 982 396 q 960 310 960 339 l 960 260 q 967 153 960 199 q 999 84 974 108 q 1079 60 1024 60 l 1114 60 q 1272 65 1189 60 q 1438 92 1354 69 q 1597 162 1521 114 q 1738 294 1674 210 l 1778 294 l 1778 0 l 101 0 m 513 60 l 604 60 l 604 843 l 513 843 l 513 60 m 801 1003 l 801 1189 l 1364 1189 l 1364 1003 l 801 1003 m 886 1031 l 961 1031 l 961 1161 l 886 1161 l 886 1031 z "},"Ę":{"ha":1889,"x_min":101,"x_max":1778,"o":"m 101 0 l 101 60 l 268 60 q 376 93 332 60 q 419 210 419 126 l 419 690 q 399 767 419 732 q 345 822 379 801 q 268 843 311 843 l 101 843 l 101 903 l 1778 903 l 1778 583 l 1738 583 q 1613 703 1693 644 q 1410 801 1532 763 q 1117 840 1289 840 q 1002 803 1044 840 q 960 706 960 765 l 960 658 q 967 597 960 631 q 1001 540 975 564 q 1082 517 1028 517 q 1179 531 1128 517 q 1279 568 1231 544 q 1365 624 1328 592 q 1419 693 1403 656 l 1471 693 l 1471 269 l 1419 269 q 1340 359 1397 322 q 1213 415 1282 396 q 1082 433 1143 433 q 1008 415 1035 433 q 971 367 982 396 q 960 310 960 339 l 960 260 q 967 153 960 199 q 999 84 974 108 q 1079 60 1024 60 l 1114 60 q 1272 65 1189 60 q 1438 92 1354 69 q 1597 162 1521 114 q 1738 294 1674 210 l 1778 294 l 1778 0 l 101 0 m 513 60 l 604 60 l 604 843 l 513 843 l 513 60 m 1454 -311 q 1341 -307 1399 -311 q 1236 -290 1283 -303 q 1160 -252 1189 -276 q 1131 -186 1131 -228 q 1171 -97 1131 -135 q 1279 -32 1211 -58 q 1431 10 1347 -6 q 1604 31 1515 25 l 1604 8 q 1467 -48 1513 -6 q 1422 -147 1422 -90 q 1454 -222 1422 -199 q 1531 -244 1486 -244 q 1607 -226 1568 -244 q 1678 -178 1646 -208 q 1724 -111 1710 -147 l 1778 -111 l 1778 -262 q 1639 -297 1725 -282 q 1454 -311 1553 -311 m 1328 -279 l 1331 -272 q 1278 -228 1301 -260 q 1256 -165 1256 -196 q 1318 -61 1256 -97 l 1314 -54 q 1223 -101 1260 -71 q 1186 -172 1186 -131 q 1223 -241 1186 -211 q 1328 -279 1260 -271 z "},"F":{"ha":1715,"x_min":101,"x_max":1678,"o":"m 101 0 l 101 60 l 268 60 q 374 94 331 60 q 418 211 418 128 l 418 690 q 374 798 418 753 q 268 843 331 843 l 101 843 l 101 903 l 1678 903 l 1678 643 l 1639 643 q 1569 712 1607 676 q 1474 776 1531 747 q 1331 824 1417 806 q 1117 842 1244 842 q 1002 803 1043 842 q 961 706 961 765 l 961 658 q 969 597 961 631 q 1002 540 976 564 q 1082 517 1028 517 q 1236 554 1172 517 q 1335 643 1300 592 l 1386 643 l 1386 296 l 1335 296 q 1236 406 1300 376 q 1082 435 1172 435 q 1008 416 1035 435 q 972 369 982 397 q 961 310 961 340 l 961 204 q 978 109 961 140 q 1031 69 994 78 q 1125 60 1067 60 l 1264 60 l 1264 0 l 101 0 m 513 60 l 603 60 l 603 843 l 513 843 l 513 60 z "},"G":{"ha":1906,"x_min":31,"x_max":1949,"o":"m 925 -32 q 575 -5 738 -32 q 290 80 413 22 q 99 231 168 138 q 31 456 31 324 q 75 650 31 568 q 199 787 119 732 q 384 875 278 842 q 615 922 490 908 q 875 936 740 936 q 1185 912 1021 936 q 1499 843 1349 888 l 1499 903 l 1565 903 l 1565 610 l 1499 610 q 1413 703 1468 657 q 1285 789 1358 750 q 1126 851 1211 828 q 950 874 1042 874 q 803 853 869 874 q 697 788 736 833 q 658 669 658 743 l 658 282 q 669 190 658 235 q 710 108 681 144 q 792 51 739 72 q 929 29 846 29 q 1000 38 961 29 q 1074 68 1039 46 q 1133 133 1110 90 q 1156 243 1156 175 l 1156 343 q 1132 415 1156 383 q 1072 465 1108 447 q 997 483 1036 483 l 838 483 l 838 543 l 1949 543 l 1949 483 l 1685 483 l 1685 0 l 1618 0 q 1593 63 1618 38 q 1519 88 1568 88 q 1431 69 1481 88 q 1312 28 1381 51 q 1148 -14 1243 4 q 925 -32 1053 -32 m 417 93 l 418 99 q 276 248 332 150 q 221 465 221 346 q 276 681 221 585 q 418 828 332 778 l 415 835 q 262 752 329 807 q 156 624 194 697 q 118 465 118 550 q 156 306 118 381 q 262 177 194 232 q 417 93 329 122 m 1269 99 q 1302 126 1286 99 q 1328 199 1318 153 q 1339 299 1339 244 l 1339 481 l 1249 481 l 1249 207 q 1254 119 1249 140 q 1269 99 1260 99 z "},"Ğ":{"ha":1906,"x_min":31,"x_max":1949,"o":"m 925 -32 q 575 -5 738 -32 q 290 80 413 22 q 99 231 168 138 q 31 456 31 324 q 75 650 31 568 q 199 787 119 732 q 384 875 278 842 q 615 922 490 908 q 875 936 740 936 q 1185 912 1021 936 q 1499 843 1349 888 l 1499 903 l 1565 903 l 1565 610 l 1499 610 q 1413 703 1468 657 q 1285 789 1358 750 q 1126 851 1211 828 q 950 874 1042 874 q 803 853 869 874 q 697 788 736 833 q 658 669 658 743 l 658 282 q 669 190 658 235 q 710 108 681 144 q 792 51 739 72 q 929 29 846 29 q 1000 38 961 29 q 1074 68 1039 46 q 1133 133 1110 90 q 1156 243 1156 175 l 1156 343 q 1132 415 1156 383 q 1072 465 1108 447 q 997 483 1036 483 l 838 483 l 838 543 l 1949 543 l 1949 483 l 1685 483 l 1685 0 l 1618 0 q 1593 63 1618 38 q 1519 88 1568 88 q 1431 69 1481 88 q 1312 28 1381 51 q 1148 -14 1243 4 q 925 -32 1053 -32 m 417 93 l 418 99 q 276 248 332 150 q 221 465 221 346 q 276 681 221 585 q 418 828 332 778 l 415 835 q 262 752 329 807 q 156 624 194 697 q 118 465 118 550 q 156 306 118 381 q 262 177 194 232 q 417 93 329 122 m 1269 99 q 1302 126 1286 99 q 1328 199 1318 153 q 1339 299 1339 244 l 1339 481 l 1249 481 l 1249 207 q 1254 119 1249 140 q 1269 99 1260 99 m 899 949 q 763 984 825 949 q 663 1080 700 1019 q 626 1213 626 1140 l 656 1221 q 756 1161 699 1186 q 899 1136 814 1136 q 1042 1161 985 1136 q 1140 1221 1099 1186 l 1168 1213 q 1132 1080 1168 1140 q 1035 984 1096 1019 q 899 949 975 949 m 899 993 q 1012 1023 960 993 q 1092 1103 1064 1053 l 1085 1107 q 1003 1065 1051 1082 q 899 1049 956 1049 q 797 1065 846 1049 q 714 1107 747 1082 l 707 1103 q 787 1023 735 1053 q 899 993 839 993 z "},"Ĝ":{"ha":1906,"x_min":31,"x_max":1949,"o":"m 925 -32 q 575 -5 738 -32 q 290 80 413 22 q 99 231 168 138 q 31 456 31 324 q 75 650 31 568 q 199 787 119 732 q 384 875 278 842 q 615 922 490 908 q 875 936 740 936 q 1185 912 1021 936 q 1499 843 1349 888 l 1499 903 l 1565 903 l 1565 610 l 1499 610 q 1413 703 1468 657 q 1285 789 1358 750 q 1126 851 1211 828 q 950 874 1042 874 q 803 853 869 874 q 697 788 736 833 q 658 669 658 743 l 658 282 q 669 190 658 235 q 710 108 681 144 q 792 51 739 72 q 929 29 846 29 q 1000 38 961 29 q 1074 68 1039 46 q 1133 133 1110 90 q 1156 243 1156 175 l 1156 343 q 1132 415 1156 383 q 1072 465 1108 447 q 997 483 1036 483 l 838 483 l 838 543 l 1949 543 l 1949 483 l 1685 483 l 1685 0 l 1618 0 q 1593 63 1618 38 q 1519 88 1568 88 q 1431 69 1481 88 q 1312 28 1381 51 q 1148 -14 1243 4 q 925 -32 1053 -32 m 417 93 l 418 99 q 276 248 332 150 q 221 465 221 346 q 276 681 221 585 q 418 828 332 778 l 415 835 q 262 752 329 807 q 156 624 194 697 q 118 465 118 550 q 156 306 118 381 q 262 177 194 232 q 417 93 329 122 m 1269 99 q 1302 126 1286 99 q 1328 199 1318 153 q 1339 299 1339 244 l 1339 481 l 1249 481 l 1249 207 q 1254 119 1249 140 q 1269 99 1260 99 m 486 994 l 672 1197 l 1122 1197 l 1307 994 l 1186 994 l 1043 1150 l 899 994 l 486 994 m 640 1047 l 726 1047 l 831 1163 l 744 1163 l 640 1047 z "},"Ģ":{"ha":1906,"x_min":31,"x_max":1949,"o":"m 925 -32 q 575 -5 738 -32 q 290 80 413 22 q 99 231 168 138 q 31 456 31 324 q 75 650 31 568 q 199 787 119 732 q 384 875 278 842 q 615 922 490 908 q 875 936 740 936 q 1185 912 1021 936 q 1499 843 1349 888 l 1499 903 l 1565 903 l 1565 610 l 1499 610 q 1413 703 1468 657 q 1285 789 1358 750 q 1126 851 1211 828 q 950 874 1042 874 q 803 853 869 874 q 697 788 736 833 q 658 669 658 743 l 658 282 q 669 190 658 235 q 710 108 681 144 q 792 51 739 72 q 929 29 846 29 q 1000 38 961 29 q 1074 68 1039 46 q 1133 133 1110 90 q 1156 243 1156 175 l 1156 343 q 1132 415 1156 383 q 1072 465 1108 447 q 997 483 1036 483 l 838 483 l 838 543 l 1949 543 l 1949 483 l 1685 483 l 1685 0 l 1618 0 q 1593 63 1618 38 q 1519 88 1568 88 q 1431 69 1481 88 q 1312 28 1381 51 q 1148 -14 1243 4 q 925 -32 1053 -32 m 417 93 l 418 99 q 276 248 332 150 q 221 465 221 346 q 276 681 221 585 q 418 828 332 778 l 415 835 q 262 752 329 807 q 156 624 194 697 q 118 465 118 550 q 156 306 118 381 q 262 177 194 232 q 417 93 329 122 m 1269 99 q 1302 126 1286 99 q 1328 199 1318 153 q 1339 299 1339 244 l 1339 481 l 1249 481 l 1249 207 q 1254 119 1249 140 q 1269 99 1260 99 m 721 -550 l 721 -499 q 802 -489 754 -499 q 894 -455 850 -479 q 958 -390 939 -431 q 899 -399 932 -399 q 802 -377 846 -399 q 733 -319 758 -356 q 707 -239 707 -282 q 733 -159 707 -194 q 802 -103 758 -124 q 899 -82 846 -82 q 994 -103 951 -82 q 1062 -162 1036 -125 q 1088 -250 1088 -200 q 1053 -383 1088 -318 q 938 -494 1018 -449 q 721 -550 857 -540 m 846 -351 l 849 -347 q 822 -299 832 -328 q 811 -239 811 -271 q 822 -178 811 -207 q 849 -131 832 -150 l 846 -126 q 786 -174 810 -143 q 763 -239 763 -204 q 786 -304 763 -274 q 846 -351 810 -335 z "},"Ġ":{"ha":1906,"x_min":31,"x_max":1949,"o":"m 925 -32 q 575 -5 738 -32 q 290 80 413 22 q 99 231 168 138 q 31 456 31 324 q 75 650 31 568 q 199 787 119 732 q 384 875 278 842 q 615 922 490 908 q 875 936 740 936 q 1185 912 1021 936 q 1499 843 1349 888 l 1499 903 l 1565 903 l 1565 610 l 1499 610 q 1413 703 1468 657 q 1285 789 1358 750 q 1126 851 1211 828 q 950 874 1042 874 q 803 853 869 874 q 697 788 736 833 q 658 669 658 743 l 658 282 q 669 190 658 235 q 710 108 681 144 q 792 51 739 72 q 929 29 846 29 q 1000 38 961 29 q 1074 68 1039 46 q 1133 133 1110 90 q 1156 243 1156 175 l 1156 343 q 1132 415 1156 383 q 1072 465 1108 447 q 997 483 1036 483 l 838 483 l 838 543 l 1949 543 l 1949 483 l 1685 483 l 1685 0 l 1618 0 q 1593 63 1618 38 q 1519 88 1568 88 q 1431 69 1481 88 q 1312 28 1381 51 q 1148 -14 1243 4 q 925 -32 1053 -32 m 417 93 l 418 99 q 276 248 332 150 q 221 465 221 346 q 276 681 221 585 q 418 828 332 778 l 415 835 q 262 752 329 807 q 156 624 194 697 q 118 465 118 550 q 156 306 118 381 q 262 177 194 232 q 417 93 329 122 m 1269 99 q 1302 126 1286 99 q 1328 199 1318 153 q 1339 299 1339 244 l 1339 481 l 1249 481 l 1249 207 q 1254 119 1249 140 q 1269 99 1260 99 m 896 951 q 801 972 844 951 q 733 1029 758 993 q 707 1108 707 1065 q 733 1189 707 1153 q 801 1247 758 1225 q 896 1268 844 1268 q 993 1247 950 1268 q 1062 1189 1036 1225 q 1088 1108 1088 1153 q 1062 1029 1088 1065 q 993 972 1036 993 q 896 951 950 951 m 828 996 l 831 1000 q 803 1048 814 1019 q 793 1108 793 1076 q 803 1169 793 1140 q 831 1217 814 1197 l 828 1221 q 768 1174 792 1204 q 744 1108 744 1143 q 768 1043 744 1074 q 828 996 792 1013 z "},"H":{"ha":2376,"x_min":101,"x_max":2267,"o":"m 101 0 l 101 60 l 268 60 q 374 93 331 60 q 418 210 418 126 l 418 690 q 398 767 418 732 q 344 822 378 801 q 268 843 310 843 l 101 843 l 101 903 l 1149 903 l 1149 843 q 1032 825 1072 843 q 976 776 992 807 q 961 706 961 746 l 961 515 l 1406 515 l 1406 706 q 1390 776 1406 746 q 1335 825 1375 807 q 1218 843 1294 843 l 1218 903 l 2267 903 l 2267 843 l 2099 843 q 2024 822 2058 843 q 1968 767 1989 801 q 1947 690 1947 732 l 1947 210 q 1992 93 1947 126 q 2099 60 2038 60 l 2267 60 l 2267 0 l 1218 0 l 1218 60 q 1326 69 1288 60 q 1381 97 1364 79 q 1401 140 1397 115 q 1406 193 1406 164 l 1406 381 q 1394 422 1406 403 q 1347 442 1382 442 l 1019 442 q 974 422 986 442 q 961 381 961 403 l 961 189 q 970 122 961 151 q 1018 76 979 93 q 1149 60 1057 60 l 1149 0 l 101 0 m 513 60 l 603 60 l 603 843 l 513 843 l 513 60 m 1501 60 l 1592 60 l 1592 843 l 1501 843 l 1501 60 z "},"Ħ":{"ha":2376,"x_min":101,"x_max":2267,"o":"m 101 0 l 101 60 l 268 60 q 374 93 331 60 q 418 210 418 126 l 418 608 l 251 608 l 251 708 l 417 708 q 368 803 410 764 q 268 843 326 843 l 101 843 l 101 903 l 1149 903 l 1149 843 q 1032 825 1072 843 q 976 777 992 807 q 961 708 961 747 l 1406 708 q 1390 778 1406 747 q 1333 826 1374 808 q 1218 843 1293 843 l 1218 903 l 2267 903 l 2267 843 l 2099 843 q 1999 803 2042 843 q 1949 708 1956 764 l 2114 708 l 2114 608 l 1947 608 l 1947 210 q 1992 93 1947 126 q 2099 60 2038 60 l 2267 60 l 2267 0 l 1218 0 l 1218 60 q 1326 69 1288 60 q 1381 97 1364 79 q 1401 140 1397 115 q 1406 193 1406 164 l 1406 381 q 1394 422 1406 403 q 1347 442 1382 442 l 1019 442 q 974 422 986 442 q 961 381 961 403 l 961 189 q 970 122 961 151 q 1018 76 979 93 q 1149 60 1057 60 l 1149 0 l 101 0 m 513 60 l 603 60 l 603 843 l 513 843 l 513 60 m 1501 60 l 1592 60 l 1592 843 l 1501 843 l 1501 60 m 961 515 l 1406 515 l 1406 608 l 961 608 l 961 515 z "},"Ĥ":{"ha":2376,"x_min":101,"x_max":2267,"o":"m 101 0 l 101 60 l 268 60 q 374 93 331 60 q 418 210 418 126 l 418 690 q 398 767 418 732 q 344 822 378 801 q 268 843 310 843 l 101 843 l 101 903 l 1149 903 l 1149 843 q 1032 825 1072 843 q 976 776 992 807 q 961 706 961 746 l 961 515 l 1406 515 l 1406 706 q 1390 776 1406 746 q 1335 825 1375 807 q 1218 843 1294 843 l 1218 903 l 2267 903 l 2267 843 l 2099 843 q 2024 822 2058 843 q 1968 767 1989 801 q 1947 690 1947 732 l 1947 210 q 1992 93 1947 126 q 2099 60 2038 60 l 2267 60 l 2267 0 l 1218 0 l 1218 60 q 1326 69 1288 60 q 1381 97 1364 79 q 1401 140 1397 115 q 1406 193 1406 164 l 1406 381 q 1394 422 1406 403 q 1347 442 1382 442 l 1019 442 q 974 422 986 442 q 961 381 961 403 l 961 189 q 970 122 961 151 q 1018 76 979 93 q 1149 60 1057 60 l 1149 0 l 101 0 m 513 60 l 603 60 l 603 843 l 513 843 l 513 60 m 1501 60 l 1592 60 l 1592 843 l 1501 843 l 1501 60 m 778 994 l 964 1197 l 1414 1197 l 1599 994 l 1478 994 l 1335 1150 l 1190 994 l 778 994 m 932 1047 l 1018 1047 l 1122 1163 l 1036 1163 l 932 1047 z "},"I":{"ha":1393,"x_min":101,"x_max":1283,"o":"m 101 0 l 101 60 l 271 60 q 378 93 333 60 q 422 210 422 126 l 422 690 q 402 767 422 732 q 347 822 382 801 q 271 843 313 843 l 101 843 l 101 903 l 1283 903 l 1283 843 l 1115 843 q 1040 822 1074 843 q 985 767 1006 801 q 964 690 964 732 l 964 210 q 1008 93 964 126 q 1115 60 1053 60 l 1283 60 l 1283 0 l 101 0 m 515 60 l 606 60 l 606 843 l 515 843 l 515 60 z "},"Ĳ":{"ha":2904,"x_min":101,"x_max":2886,"o":"m 101 0 l 101 60 l 271 60 q 378 93 333 60 q 422 210 422 126 l 422 690 q 402 767 422 732 q 347 822 382 801 q 271 843 313 843 l 101 843 l 101 903 l 1283 903 l 1283 843 l 1115 843 q 1040 822 1074 843 q 985 767 1006 801 q 964 690 964 732 l 964 210 q 1008 93 964 126 q 1115 60 1053 60 l 1283 60 l 1283 0 l 101 0 m 515 60 l 606 60 l 606 843 l 515 843 l 515 60 m 1996 -31 q 1743 -10 1857 -31 q 1551 34 1629 10 q 1442 71 1474 58 l 1442 0 l 1374 0 l 1374 364 l 1442 364 q 1460 330 1442 364 q 1514 247 1478 296 q 1605 147 1550 197 q 1735 63 1660 97 q 1904 29 1810 29 q 2010 63 1965 29 q 2056 179 2056 96 l 2056 690 q 2016 797 2056 751 q 1904 843 1976 843 l 1736 843 l 1736 903 l 2886 903 l 2886 843 l 2749 843 q 2637 797 2676 843 q 2597 690 2597 751 l 2597 272 q 2569 145 2597 201 q 2473 50 2540 89 q 2289 -10 2406 11 q 1996 -31 2172 -31 m 2149 89 q 2188 117 2168 97 q 2223 179 2208 138 q 2238 289 2238 221 l 2238 843 l 2149 843 l 2149 89 z "},"Í":{"ha":1393,"x_min":101,"x_max":1283,"o":"m 101 0 l 101 60 l 271 60 q 378 93 333 60 q 422 210 422 126 l 422 690 q 402 767 422 732 q 347 822 382 801 q 271 843 313 843 l 101 843 l 101 903 l 1283 903 l 1283 843 l 1115 843 q 1040 822 1074 843 q 985 767 1006 801 q 964 690 964 732 l 964 210 q 1008 93 964 126 q 1115 60 1053 60 l 1283 60 l 1283 0 l 101 0 m 515 60 l 606 60 l 606 843 l 515 843 l 515 60 m 315 994 l 315 1044 q 490 1063 424 1044 q 599 1115 557 1081 q 675 1197 640 1149 l 1079 1197 q 1071 1176 1079 1197 q 1041 1124 1063 1154 q 979 1064 1019 1093 q 874 1019 939 1035 q 770 1005 833 1010 q 637 998 707 1000 q 501 995 567 996 q 390 994 436 994 l 315 994 m 590 1049 q 709 1072 663 1053 q 782 1117 756 1092 q 819 1158 808 1142 l 731 1158 q 693 1112 718 1133 q 640 1076 668 1090 q 590 1054 611 1061 l 590 1049 z "},"Ĭ":{"ha":1393,"x_min":101,"x_max":1283,"o":"m 101 0 l 101 60 l 271 60 q 378 93 333 60 q 422 210 422 126 l 422 690 q 402 767 422 732 q 347 822 382 801 q 271 843 313 843 l 101 843 l 101 903 l 1283 903 l 1283 843 l 1115 843 q 1040 822 1074 843 q 985 767 1006 801 q 964 690 964 732 l 964 210 q 1008 93 964 126 q 1115 60 1053 60 l 1283 60 l 1283 0 l 101 0 m 515 60 l 606 60 l 606 843 l 515 843 l 515 60 m 699 949 q 563 984 625 949 q 463 1080 500 1019 q 426 1213 426 1140 l 456 1221 q 556 1161 499 1186 q 699 1136 614 1136 q 842 1161 785 1136 q 940 1221 899 1186 l 968 1213 q 932 1080 968 1140 q 835 984 896 1019 q 699 949 775 949 m 699 993 q 812 1023 760 993 q 892 1103 864 1053 l 885 1107 q 803 1065 851 1082 q 699 1049 756 1049 q 597 1065 646 1049 q 514 1107 547 1082 l 507 1103 q 587 1023 535 1053 q 699 993 639 993 z "},"Î":{"ha":1393,"x_min":101,"x_max":1283,"o":"m 101 0 l 101 60 l 271 60 q 378 93 333 60 q 422 210 422 126 l 422 690 q 402 767 422 732 q 347 822 382 801 q 271 843 313 843 l 101 843 l 101 903 l 1283 903 l 1283 843 l 1115 843 q 1040 822 1074 843 q 985 767 1006 801 q 964 690 964 732 l 964 210 q 1008 93 964 126 q 1115 60 1053 60 l 1283 60 l 1283 0 l 101 0 m 515 60 l 606 60 l 606 843 l 515 843 l 515 60 m 286 994 l 472 1197 l 922 1197 l 1107 994 l 986 994 l 843 1150 l 699 994 l 286 994 m 440 1047 l 526 1047 l 631 1163 l 544 1163 l 440 1047 z "},"Ï":{"ha":1393,"x_min":101,"x_max":1283,"o":"m 101 0 l 101 60 l 271 60 q 378 93 333 60 q 422 210 422 126 l 422 690 q 402 767 422 732 q 347 822 382 801 q 271 843 313 843 l 101 843 l 101 903 l 1283 903 l 1283 843 l 1115 843 q 1040 822 1074 843 q 985 767 1006 801 q 964 690 964 732 l 964 210 q 1008 93 964 126 q 1115 60 1053 60 l 1283 60 l 1283 0 l 101 0 m 515 60 l 606 60 l 606 843 l 515 843 l 515 60 m 1013 951 q 918 972 961 951 q 849 1029 875 993 q 824 1108 824 1065 q 849 1189 824 1153 q 918 1247 875 1225 q 1013 1268 961 1268 q 1110 1247 1067 1268 q 1178 1189 1153 1225 q 1204 1108 1204 1153 q 1178 1029 1204 1065 q 1110 972 1153 993 q 1013 951 1067 951 m 379 951 q 285 972 328 951 q 216 1029 242 993 q 190 1108 190 1065 q 216 1189 190 1153 q 285 1247 242 1225 q 379 1268 328 1268 q 476 1247 433 1268 q 545 1189 519 1225 q 571 1108 571 1153 q 545 1029 571 1065 q 476 972 519 993 q 379 951 433 951 m 338 983 l 342 988 q 310 1040 322 1010 q 299 1108 299 1071 q 310 1176 299 1146 q 342 1229 322 1207 l 338 1233 q 269 1182 296 1215 q 242 1108 242 1149 q 269 1035 242 1069 q 338 983 296 1001 m 971 983 l 975 988 q 944 1040 956 1010 q 932 1108 932 1071 q 944 1176 932 1146 q 975 1229 956 1207 l 971 1233 q 902 1182 929 1215 q 875 1108 875 1149 q 902 1035 875 1069 q 971 983 929 1001 z "},"İ":{"ha":1393,"x_min":101,"x_max":1283,"o":"m 101 0 l 101 60 l 271 60 q 378 93 333 60 q 422 210 422 126 l 422 690 q 402 767 422 732 q 347 822 382 801 q 271 843 313 843 l 101 843 l 101 903 l 1283 903 l 1283 843 l 1115 843 q 1040 822 1074 843 q 985 767 1006 801 q 964 690 964 732 l 964 210 q 1008 93 964 126 q 1115 60 1053 60 l 1283 60 l 1283 0 l 101 0 m 515 60 l 606 60 l 606 843 l 515 843 l 515 60 m 696 951 q 601 972 644 951 q 533 1029 558 993 q 507 1108 507 1065 q 533 1189 507 1153 q 601 1247 558 1225 q 696 1268 644 1268 q 793 1247 750 1268 q 862 1189 836 1225 q 888 1108 888 1153 q 862 1029 888 1065 q 793 972 836 993 q 696 951 750 951 m 628 996 l 631 1000 q 603 1048 614 1019 q 593 1108 593 1076 q 603 1169 593 1140 q 631 1217 614 1197 l 628 1221 q 568 1174 592 1204 q 544 1108 544 1143 q 568 1043 544 1074 q 628 996 592 1013 z "},"Ì":{"ha":1393,"x_min":101,"x_max":1283,"o":"m 101 0 l 101 60 l 271 60 q 378 93 333 60 q 422 210 422 126 l 422 690 q 402 767 422 732 q 347 822 382 801 q 271 843 313 843 l 101 843 l 101 903 l 1283 903 l 1283 843 l 1115 843 q 1040 822 1074 843 q 985 767 1006 801 q 964 690 964 732 l 964 210 q 1008 93 964 126 q 1115 60 1053 60 l 1283 60 l 1283 0 l 101 0 m 515 60 l 606 60 l 606 843 l 515 843 l 515 60 m 1004 994 q 893 995 958 994 q 758 998 828 996 q 624 1005 688 1000 q 521 1019 561 1010 q 416 1064 457 1035 q 353 1124 375 1093 q 324 1176 332 1154 q 315 1197 315 1197 l 719 1197 q 796 1115 754 1149 q 904 1063 838 1081 q 1079 1044 971 1044 l 1079 994 l 1004 994 m 646 1049 l 646 1054 q 597 1076 625 1061 q 543 1112 568 1090 q 506 1158 518 1133 l 417 1158 q 455 1117 429 1142 q 527 1072 481 1092 q 646 1049 574 1053 z "},"Ī":{"ha":1393,"x_min":101,"x_max":1283,"o":"m 101 0 l 101 60 l 271 60 q 378 93 333 60 q 422 210 422 126 l 422 690 q 402 767 422 732 q 347 822 382 801 q 271 843 313 843 l 101 843 l 101 903 l 1283 903 l 1283 843 l 1115 843 q 1040 822 1074 843 q 985 767 1006 801 q 964 690 964 732 l 964 210 q 1008 93 964 126 q 1115 60 1053 60 l 1283 60 l 1283 0 l 101 0 m 515 60 l 606 60 l 606 843 l 515 843 l 515 60 m 415 1003 l 415 1189 l 978 1189 l 978 1003 l 415 1003 m 500 1031 l 575 1031 l 575 1161 l 500 1161 l 500 1031 z "},"Į":{"ha":1393,"x_min":101,"x_max":1283,"o":"m 101 0 l 101 60 l 271 60 q 378 93 333 60 q 422 210 422 126 l 422 690 q 402 767 422 732 q 347 822 382 801 q 271 843 313 843 l 101 843 l 101 903 l 1283 903 l 1283 843 l 1115 843 q 1040 822 1074 843 q 985 767 1006 801 q 964 690 964 732 l 964 210 q 1008 93 964 126 q 1115 60 1053 60 l 1283 60 l 1283 0 l 101 0 m 515 60 l 606 60 l 606 843 l 515 843 l 515 60 m 710 -311 q 597 -307 654 -311 q 492 -290 539 -303 q 415 -252 444 -276 q 386 -186 386 -228 q 426 -97 386 -135 q 535 -32 467 -58 q 687 10 603 -6 q 860 31 771 25 l 860 8 q 723 -48 768 -6 q 678 -147 678 -90 q 710 -222 678 -199 q 786 -244 742 -244 q 863 -226 824 -244 q 933 -178 901 -208 q 979 -111 965 -147 l 1033 -111 l 1033 -262 q 894 -297 981 -282 q 710 -311 808 -311 m 583 -279 l 586 -272 q 534 -228 557 -260 q 511 -165 511 -196 q 574 -61 511 -97 l 569 -54 q 478 -101 515 -71 q 442 -172 442 -131 q 478 -241 442 -211 q 583 -279 515 -271 z "},"Ĩ":{"ha":1393,"x_min":101,"x_max":1283,"o":"m 101 0 l 101 60 l 271 60 q 378 93 333 60 q 422 210 422 126 l 422 690 q 402 767 422 732 q 347 822 382 801 q 271 843 313 843 l 101 843 l 101 903 l 1283 903 l 1283 843 l 1115 843 q 1040 822 1074 843 q 985 767 1006 801 q 964 690 964 732 l 964 210 q 1008 93 964 126 q 1115 60 1053 60 l 1283 60 l 1283 0 l 101 0 m 515 60 l 606 60 l 606 843 l 515 843 l 515 60 m 847 979 q 707 990 765 979 q 599 1013 649 1000 q 499 1037 550 1026 q 379 1047 447 1047 q 326 1033 349 1047 q 293 996 303 1019 l 254 996 q 277 1060 257 1022 q 336 1134 297 1097 q 433 1196 375 1171 q 568 1221 492 1221 q 701 1213 646 1221 q 800 1196 756 1206 q 888 1178 844 1186 q 986 1171 931 1171 q 1056 1184 1032 1171 q 1094 1219 1081 1197 l 1140 1219 q 1119 1151 1138 1192 q 1064 1072 1100 1111 q 974 1006 1028 1032 q 847 979 919 979 m 857 1026 q 956 1044 906 1026 q 1042 1090 1007 1061 l 1039 1096 q 968 1081 1010 1086 q 896 1075 926 1075 q 758 1084 815 1075 q 656 1106 701 1093 q 567 1127 611 1118 q 465 1136 522 1136 q 400 1124 426 1136 q 354 1094 374 1111 l 358 1089 q 388 1094 374 1092 q 417 1096 403 1096 q 540 1078 475 1096 q 682 1044 604 1061 q 857 1026 760 1026 z "},"J":{"ha":1511,"x_min":-19,"x_max":1493,"o":"m 603 -31 q 350 -10 464 -31 q 158 34 236 10 q 49 71 81 58 l 49 0 l -19 0 l -19 364 l 49 364 q 67 330 49 364 q 121 247 85 296 q 212 147 157 197 q 342 63 267 97 q 511 29 417 29 q 617 63 572 29 q 663 179 663 96 l 663 690 q 623 797 663 751 q 511 843 583 843 l 343 843 l 343 903 l 1493 903 l 1493 843 l 1356 843 q 1244 797 1283 843 q 1204 690 1204 751 l 1204 272 q 1176 145 1204 201 q 1080 50 1147 89 q 896 -10 1013 11 q 603 -31 779 -31 m 756 89 q 795 117 775 97 q 830 179 815 138 q 844 289 844 221 l 844 843 l 756 843 l 756 89 z "},"Ĵ":{"ha":1511,"x_min":-19,"x_max":1493,"o":"m 603 -31 q 350 -10 464 -31 q 158 34 236 10 q 49 71 81 58 l 49 0 l -19 0 l -19 364 l 49 364 q 67 330 49 364 q 121 247 85 296 q 212 147 157 197 q 342 63 267 97 q 511 29 417 29 q 617 63 572 29 q 663 179 663 96 l 663 690 q 623 797 663 751 q 511 843 583 843 l 343 843 l 343 903 l 1493 903 l 1493 843 l 1356 843 q 1244 797 1283 843 q 1204 690 1204 751 l 1204 272 q 1176 145 1204 201 q 1080 50 1147 89 q 896 -10 1013 11 q 603 -31 779 -31 m 756 89 q 795 117 775 97 q 830 179 815 138 q 844 289 844 221 l 844 843 l 756 843 l 756 89 m 513 994 l 699 1197 l 1149 1197 l 1333 994 l 1213 994 l 1069 1150 l 925 994 l 513 994 m 667 1047 l 753 1047 l 857 1163 l 771 1163 l 667 1047 z "},"K":{"ha":2299,"x_min":101,"x_max":2268,"o":"m 101 0 l 101 60 l 268 60 q 374 94 331 60 q 418 210 418 128 l 418 692 q 398 767 418 733 q 344 822 378 801 q 268 843 310 843 l 101 843 l 101 903 l 1271 903 l 1271 843 l 1117 843 q 1003 805 1044 843 q 961 707 961 767 l 961 560 q 976 506 961 532 q 1042 479 990 479 l 1069 479 q 1135 489 1107 479 q 1200 515 1164 499 l 1474 639 q 1601 712 1561 679 q 1640 782 1640 744 q 1597 831 1640 819 q 1446 843 1553 843 l 1446 903 l 2268 903 l 2268 843 l 2119 843 q 2034 827 2085 843 q 1928 786 1983 811 q 1822 735 1872 761 q 1735 690 1771 710 q 1689 664 1699 669 q 1660 638 1674 654 q 1647 601 1647 622 q 1668 551 1647 576 l 2082 60 l 2268 60 l 2268 0 l 1496 0 l 1129 411 l 1019 411 q 973 392 985 411 q 961 350 961 372 l 961 210 q 1006 94 961 128 q 1113 60 1050 60 l 1213 60 l 1213 0 l 101 0 m 513 60 l 603 60 l 603 843 l 513 843 l 513 60 m 1564 60 l 1685 60 l 1336 450 l 1215 450 l 1564 60 z "},"Ķ":{"ha":2299,"x_min":101,"x_max":2268,"o":"m 101 0 l 101 60 l 268 60 q 374 94 331 60 q 418 210 418 128 l 418 692 q 398 767 418 733 q 344 822 378 801 q 268 843 310 843 l 101 843 l 101 903 l 1271 903 l 1271 843 l 1117 843 q 1003 805 1044 843 q 961 707 961 767 l 961 560 q 976 506 961 532 q 1042 479 990 479 l 1069 479 q 1135 489 1107 479 q 1200 515 1164 499 l 1474 639 q 1601 712 1561 679 q 1640 782 1640 744 q 1597 831 1640 819 q 1446 843 1553 843 l 1446 903 l 2268 903 l 2268 843 l 2119 843 q 2034 827 2085 843 q 1928 786 1983 811 q 1822 735 1872 761 q 1735 690 1771 710 q 1689 664 1699 669 q 1660 638 1674 654 q 1647 601 1647 622 q 1668 551 1647 576 l 2082 60 l 2268 60 l 2268 0 l 1496 0 l 1129 411 l 1019 411 q 973 392 985 411 q 961 350 961 372 l 961 210 q 1006 94 961 128 q 1113 60 1050 60 l 1213 60 l 1213 0 l 101 0 m 513 60 l 603 60 l 603 843 l 513 843 l 513 60 m 1564 60 l 1685 60 l 1336 450 l 1215 450 l 1564 60 m 1000 -550 l 1000 -499 q 1081 -489 1033 -499 q 1174 -455 1129 -479 q 1238 -390 1218 -431 q 1178 -399 1211 -399 q 1081 -377 1125 -399 q 1012 -319 1038 -356 q 986 -239 986 -282 q 1012 -159 986 -194 q 1081 -103 1038 -124 q 1178 -82 1125 -82 q 1273 -103 1231 -82 q 1341 -162 1315 -125 q 1367 -250 1367 -200 q 1332 -383 1367 -318 q 1217 -494 1297 -449 q 1000 -550 1136 -540 m 1125 -351 l 1128 -347 q 1101 -299 1111 -328 q 1090 -239 1090 -271 q 1101 -178 1090 -207 q 1128 -131 1111 -150 l 1125 -126 q 1065 -174 1089 -143 q 1042 -239 1042 -204 q 1065 -304 1042 -274 q 1125 -351 1089 -335 z "},"L":{"ha":1735,"x_min":101,"x_max":1717,"o":"m 101 0 l 101 60 l 268 60 q 374 93 331 60 q 418 210 418 126 l 418 690 q 398 767 418 732 q 344 822 378 801 q 268 843 310 843 l 101 843 l 101 903 l 1344 903 l 1344 843 l 1113 843 q 1037 822 1071 843 q 982 767 1003 801 q 961 690 961 732 l 961 210 q 974 135 961 169 q 1020 80 988 100 q 1113 60 1053 60 q 1229 74 1164 60 q 1368 124 1294 88 q 1518 228 1442 161 q 1669 400 1594 294 l 1717 400 l 1717 0 l 101 0 m 513 60 l 603 60 l 603 843 l 513 843 l 513 60 z "},"Ĺ":{"ha":1735,"x_min":101,"x_max":1717,"o":"m 101 0 l 101 60 l 268 60 q 374 93 331 60 q 418 210 418 126 l 418 690 q 398 767 418 732 q 344 822 378 801 q 268 843 310 843 l 101 843 l 101 903 l 1344 903 l 1344 843 l 1113 843 q 1037 822 1071 843 q 982 767 1003 801 q 961 690 961 732 l 961 210 q 974 135 961 169 q 1020 80 988 100 q 1113 60 1053 60 q 1229 74 1164 60 q 1368 124 1294 88 q 1518 228 1442 161 q 1669 400 1594 294 l 1717 400 l 1717 0 l 101 0 m 513 60 l 603 60 l 603 843 l 513 843 l 513 60 m 388 994 l 388 1044 q 563 1063 496 1044 q 671 1115 629 1081 q 747 1197 713 1149 l 1151 1197 q 1143 1176 1151 1197 q 1113 1124 1135 1154 q 1051 1064 1092 1093 q 946 1019 1011 1035 q 842 1005 906 1010 q 709 998 779 1000 q 574 995 639 996 q 463 994 508 994 l 388 994 m 663 1049 q 781 1072 735 1053 q 854 1117 828 1092 q 892 1158 881 1142 l 803 1158 q 765 1112 790 1133 q 712 1076 740 1090 q 663 1054 683 1061 l 663 1049 z "},"Ľ":{"ha":1735,"x_min":101,"x_max":1758,"o":"m 101 0 l 101 60 l 268 60 q 374 93 331 60 q 418 210 418 126 l 418 690 q 398 767 418 732 q 344 822 378 801 q 268 843 310 843 l 101 843 l 101 903 l 1344 903 l 1344 843 l 1113 843 q 1037 822 1071 843 q 982 767 1003 801 q 961 690 961 732 l 961 210 q 974 135 961 169 q 1020 80 988 100 q 1113 60 1053 60 q 1229 74 1164 60 q 1368 124 1294 88 q 1518 228 1442 161 q 1669 400 1594 294 l 1717 400 l 1717 0 l 101 0 m 513 60 l 603 60 l 603 843 l 513 843 l 513 60 m 1378 785 q 1403 865 1378 829 q 1473 921 1429 900 q 1569 942 1517 942 q 1665 920 1622 942 q 1733 861 1707 899 q 1758 774 1758 824 q 1724 640 1758 706 q 1608 529 1689 575 q 1392 474 1528 483 l 1392 525 q 1473 535 1425 525 q 1565 569 1521 544 q 1629 633 1610 593 q 1569 625 1603 625 q 1473 647 1517 625 q 1403 705 1429 668 q 1378 785 1378 742 m 1482 785 q 1492 845 1482 817 q 1519 893 1503 874 l 1517 897 q 1457 850 1481 881 q 1433 785 1433 819 q 1457 719 1433 750 q 1517 672 1481 689 l 1519 676 q 1492 724 1503 696 q 1482 785 1482 753 z "},"Ļ":{"ha":1735,"x_min":101,"x_max":1717,"o":"m 101 0 l 101 60 l 268 60 q 374 93 331 60 q 418 210 418 126 l 418 690 q 398 767 418 732 q 344 822 378 801 q 268 843 310 843 l 101 843 l 101 903 l 1344 903 l 1344 843 l 1113 843 q 1037 822 1071 843 q 982 767 1003 801 q 961 690 961 732 l 961 210 q 974 135 961 169 q 1020 80 988 100 q 1113 60 1053 60 q 1229 74 1164 60 q 1368 124 1294 88 q 1518 228 1442 161 q 1669 400 1594 294 l 1717 400 l 1717 0 l 101 0 m 513 60 l 603 60 l 603 843 l 513 843 l 513 60 m 786 -550 l 786 -499 q 867 -489 819 -499 q 960 -455 915 -479 q 1024 -390 1004 -431 q 964 -399 997 -399 q 867 -377 911 -399 q 798 -319 824 -356 q 772 -239 772 -282 q 798 -159 772 -194 q 867 -103 824 -124 q 964 -82 911 -82 q 1059 -103 1017 -82 q 1127 -162 1101 -125 q 1153 -250 1153 -200 q 1118 -383 1153 -318 q 1003 -494 1083 -449 q 786 -550 922 -540 m 911 -351 l 914 -347 q 887 -299 897 -328 q 876 -239 876 -271 q 887 -178 876 -207 q 914 -131 897 -150 l 911 -126 q 851 -174 875 -143 q 828 -239 828 -204 q 851 -304 828 -274 q 911 -351 875 -335 z "},"Ŀ":{"ha":1735,"x_min":101,"x_max":1717,"o":"m 101 0 l 101 60 l 268 60 q 374 93 331 60 q 418 210 418 126 l 418 690 q 398 767 418 732 q 344 822 378 801 q 268 843 310 843 l 101 843 l 101 903 l 1344 903 l 1344 843 l 1113 843 q 1037 822 1071 843 q 982 767 1003 801 q 961 690 961 732 l 961 210 q 974 135 961 169 q 1020 80 988 100 q 1113 60 1053 60 q 1229 74 1164 60 q 1368 124 1294 88 q 1518 228 1442 161 q 1669 400 1594 294 l 1717 400 l 1717 0 l 101 0 m 513 60 l 603 60 l 603 843 l 513 843 l 513 60 m 1428 515 q 1402 436 1428 472 q 1333 379 1376 400 q 1236 358 1290 358 q 1142 379 1185 358 q 1073 436 1099 400 q 1047 515 1047 472 q 1073 596 1047 560 q 1142 653 1099 632 q 1236 675 1185 675 q 1333 653 1290 675 q 1402 596 1376 632 q 1428 515 1428 560 m 1133 515 q 1144 576 1133 547 q 1171 624 1154 604 l 1168 628 q 1108 581 1132 611 q 1085 515 1085 550 q 1108 450 1085 481 q 1168 403 1132 419 l 1171 407 q 1144 455 1154 426 q 1133 515 1133 483 z "},"Ł":{"ha":1735,"x_min":101,"x_max":1717,"o":"m 101 0 l 101 60 l 268 60 q 374 93 331 60 q 418 210 418 126 l 418 301 l 210 235 l 210 346 l 418 413 l 418 690 q 398 767 418 732 q 344 822 378 801 q 268 843 310 843 l 101 843 l 101 903 l 1344 903 l 1344 843 l 1113 843 q 1037 822 1071 843 q 982 767 1003 801 q 961 690 961 732 l 961 589 l 1217 671 l 1217 560 l 961 478 l 961 210 q 974 135 961 169 q 1020 80 988 100 q 1113 60 1053 60 q 1229 74 1164 60 q 1368 124 1294 88 q 1518 228 1442 161 q 1669 400 1594 294 l 1717 400 l 1717 0 l 101 0 m 513 60 l 603 60 l 603 843 l 513 843 l 513 60 z "},"M":{"ha":2581,"x_min":31,"x_max":2535,"o":"m 49 0 l 49 60 q 194 77 118 60 q 337 133 271 94 q 444 233 403 171 q 486 385 486 296 l 486 531 q 448 659 486 601 q 344 758 410 717 q 198 821 279 799 q 31 843 117 843 l 31 903 l 929 903 l 1356 540 l 1589 903 l 2535 903 l 2535 843 l 2303 843 q 2196 817 2240 843 q 2151 731 2151 792 l 2151 210 q 2196 93 2151 126 q 2303 60 2240 60 l 2535 60 l 2535 0 l 1292 0 l 1292 60 l 1458 60 q 1565 93 1521 60 q 1610 210 1610 126 l 1610 776 l 1185 118 l 1113 118 l 576 571 l 576 385 q 618 233 576 296 q 726 133 660 171 q 868 77 792 94 q 1014 60 944 60 l 1014 0 l 49 0 m 1703 60 l 1793 60 l 1793 843 l 1703 843 l 1703 60 m 1126 235 l 1161 235 l 1161 322 l 550 840 l 411 840 l 1126 235 z "},"N":{"ha":2144,"x_min":32,"x_max":2124,"o":"m 1682 -58 l 715 526 q 693 537 714 528 q 646 546 672 546 q 598 526 619 546 q 576 449 576 507 l 576 385 q 618 233 576 294 q 726 133 660 171 q 868 77 792 94 q 1014 60 944 60 l 1014 0 l 49 0 l 49 60 q 194 77 118 60 q 337 133 271 94 q 444 233 403 171 q 486 385 486 294 l 486 531 q 448 659 486 601 q 344 758 410 717 q 199 821 279 799 q 32 843 118 843 l 32 903 l 1072 903 l 1556 599 q 1572 588 1556 599 q 1612 565 1589 578 q 1656 542 1635 551 q 1686 532 1676 532 q 1706 539 1694 532 q 1718 569 1718 546 q 1688 714 1718 660 q 1611 796 1658 768 q 1508 833 1564 824 q 1401 843 1453 843 l 1401 903 l 2124 903 l 2124 843 q 2017 833 2072 843 q 1914 796 1961 824 q 1837 714 1867 768 q 1807 569 1807 660 l 1807 -58 l 1682 -58 m 1682 49 l 1682 149 l 532 843 l 494 843 l 494 767 l 1682 49 z "},"Ń":{"ha":2144,"x_min":32,"x_max":2124,"o":"m 1682 -58 l 715 526 q 693 537 714 528 q 646 546 672 546 q 598 526 619 546 q 576 449 576 507 l 576 385 q 618 233 576 294 q 726 133 660 171 q 868 77 792 94 q 1014 60 944 60 l 1014 0 l 49 0 l 49 60 q 194 77 118 60 q 337 133 271 94 q 444 233 403 171 q 486 385 486 294 l 486 531 q 448 659 486 601 q 344 758 410 717 q 199 821 279 799 q 32 843 118 843 l 32 903 l 1072 903 l 1556 599 q 1572 588 1556 599 q 1612 565 1589 578 q 1656 542 1635 551 q 1686 532 1676 532 q 1706 539 1694 532 q 1718 569 1718 546 q 1688 714 1718 660 q 1611 796 1658 768 q 1508 833 1564 824 q 1401 843 1453 843 l 1401 903 l 2124 903 l 2124 843 q 2017 833 2072 843 q 1914 796 1961 824 q 1837 714 1867 768 q 1807 569 1807 660 l 1807 -58 l 1682 -58 m 1682 49 l 1682 149 l 532 843 l 494 843 l 494 767 l 1682 49 m 704 994 l 704 1044 q 879 1063 813 1044 q 988 1115 946 1081 q 1064 1197 1029 1149 l 1468 1197 q 1460 1176 1468 1197 q 1430 1124 1451 1154 q 1368 1064 1408 1093 q 1263 1019 1328 1035 q 1159 1005 1222 1010 q 1026 998 1096 1000 q 890 995 956 996 q 779 994 825 994 l 704 994 m 979 1049 q 1098 1072 1051 1053 q 1171 1117 1144 1092 q 1208 1158 1197 1142 l 1119 1158 q 1082 1112 1107 1133 q 1028 1076 1057 1090 q 979 1054 1000 1061 l 979 1049 z "},"Ň":{"ha":2144,"x_min":32,"x_max":2124,"o":"m 1682 -58 l 715 526 q 693 537 714 528 q 646 546 672 546 q 598 526 619 546 q 576 449 576 507 l 576 385 q 618 233 576 294 q 726 133 660 171 q 868 77 792 94 q 1014 60 944 60 l 1014 0 l 49 0 l 49 60 q 194 77 118 60 q 337 133 271 94 q 444 233 403 171 q 486 385 486 294 l 486 531 q 448 659 486 601 q 344 758 410 717 q 199 821 279 799 q 32 843 118 843 l 32 903 l 1072 903 l 1556 599 q 1572 588 1556 599 q 1612 565 1589 578 q 1656 542 1635 551 q 1686 532 1676 532 q 1706 539 1694 532 q 1718 569 1718 546 q 1688 714 1718 660 q 1611 796 1658 768 q 1508 833 1564 824 q 1401 843 1453 843 l 1401 903 l 2124 903 l 2124 843 q 2017 833 2072 843 q 1914 796 1961 824 q 1837 714 1867 768 q 1807 569 1807 660 l 1807 -58 l 1682 -58 m 1682 49 l 1682 149 l 532 843 l 494 843 l 494 767 l 1682 49 m 861 994 l 675 1197 l 1088 1197 l 1232 1042 l 1375 1197 l 1496 1197 l 1311 994 l 861 994 m 933 1029 l 1019 1029 l 915 1144 l 829 1144 l 933 1029 z "},"Ņ":{"ha":2144,"x_min":32,"x_max":2124,"o":"m 1682 -58 l 715 526 q 693 537 714 528 q 646 546 672 546 q 598 526 619 546 q 576 449 576 507 l 576 385 q 618 233 576 294 q 726 133 660 171 q 868 77 792 94 q 1014 60 944 60 l 1014 0 l 49 0 l 49 60 q 194 77 118 60 q 337 133 271 94 q 444 233 403 171 q 486 385 486 294 l 486 531 q 448 659 486 601 q 344 758 410 717 q 199 821 279 799 q 32 843 118 843 l 32 903 l 1072 903 l 1556 599 q 1572 588 1556 599 q 1612 565 1589 578 q 1656 542 1635 551 q 1686 532 1676 532 q 1706 539 1694 532 q 1718 569 1718 546 q 1688 714 1718 660 q 1611 796 1658 768 q 1508 833 1564 824 q 1401 843 1453 843 l 1401 903 l 2124 903 l 2124 843 q 2017 833 2072 843 q 1914 796 1961 824 q 1837 714 1867 768 q 1807 569 1807 660 l 1807 -58 l 1682 -58 m 1682 49 l 1682 149 l 532 843 l 494 843 l 494 767 l 1682 49 m 896 -550 l 896 -499 q 977 -489 929 -499 q 1069 -455 1025 -479 q 1133 -390 1114 -431 q 1074 -399 1107 -399 q 977 -377 1021 -399 q 908 -319 933 -356 q 882 -239 882 -282 q 908 -159 882 -194 q 977 -103 933 -124 q 1074 -82 1021 -82 q 1169 -103 1126 -82 q 1237 -162 1211 -125 q 1263 -250 1263 -200 q 1228 -383 1263 -318 q 1113 -494 1193 -449 q 896 -550 1032 -540 m 1021 -351 l 1024 -347 q 997 -299 1007 -328 q 986 -239 986 -271 q 997 -178 986 -207 q 1024 -131 1007 -150 l 1021 -126 q 961 -174 985 -143 q 938 -239 938 -204 q 961 -304 938 -274 q 1021 -351 985 -335 z "},"Ñ":{"ha":2144,"x_min":32,"x_max":2124,"o":"m 1682 -58 l 715 526 q 693 537 714 528 q 646 546 672 546 q 598 526 619 546 q 576 449 576 507 l 576 385 q 618 233 576 294 q 726 133 660 171 q 868 77 792 94 q 1014 60 944 60 l 1014 0 l 49 0 l 49 60 q 194 77 118 60 q 337 133 271 94 q 444 233 403 171 q 486 385 486 294 l 486 531 q 448 659 486 601 q 344 758 410 717 q 199 821 279 799 q 32 843 118 843 l 32 903 l 1072 903 l 1556 599 q 1572 588 1556 599 q 1612 565 1589 578 q 1656 542 1635 551 q 1686 532 1676 532 q 1706 539 1694 532 q 1718 569 1718 546 q 1688 714 1718 660 q 1611 796 1658 768 q 1508 833 1564 824 q 1401 843 1453 843 l 1401 903 l 2124 903 l 2124 843 q 2017 833 2072 843 q 1914 796 1961 824 q 1837 714 1867 768 q 1807 569 1807 660 l 1807 -58 l 1682 -58 m 1682 49 l 1682 149 l 532 843 l 494 843 l 494 767 l 1682 49 m 1236 979 q 1096 990 1154 979 q 988 1013 1038 1000 q 888 1037 939 1026 q 768 1047 836 1047 q 715 1033 738 1047 q 682 996 692 1019 l 643 996 q 666 1060 646 1022 q 725 1134 686 1097 q 822 1196 764 1171 q 957 1221 881 1221 q 1090 1213 1035 1221 q 1189 1196 1144 1206 q 1276 1178 1233 1186 q 1375 1171 1319 1171 q 1445 1184 1421 1171 q 1483 1219 1469 1197 l 1529 1219 q 1508 1151 1526 1192 q 1453 1072 1489 1111 q 1363 1006 1417 1032 q 1236 979 1308 979 m 1246 1026 q 1345 1044 1294 1026 q 1431 1090 1396 1061 l 1428 1096 q 1357 1081 1399 1086 q 1285 1075 1315 1075 q 1147 1084 1204 1075 q 1045 1106 1090 1093 q 956 1127 1000 1118 q 854 1136 911 1136 q 789 1124 815 1136 q 743 1094 763 1111 l 747 1089 q 777 1094 763 1092 q 806 1096 792 1096 q 928 1078 864 1096 q 1071 1044 993 1061 q 1246 1026 1149 1026 z "},"Ŋ":{"ha":2144,"x_min":32,"x_max":2124,"o":"m 1415 -393 q 1226 -368 1317 -393 q 1083 -296 1136 -343 l 1083 -361 l 1018 -361 l 1018 -106 l 1072 -106 q 1128 -242 1083 -185 q 1256 -300 1174 -300 q 1318 -275 1297 -300 q 1339 -187 1339 -250 l 1339 150 l 715 526 q 694 536 715 526 q 646 546 672 546 q 598 526 619 546 q 576 449 576 507 l 576 385 q 618 233 576 294 q 726 133 660 171 q 868 77 792 94 q 1014 60 944 60 l 1014 0 l 49 0 l 49 60 q 194 77 118 60 q 337 133 271 94 q 444 233 403 171 q 486 385 486 294 l 486 531 q 448 659 486 601 q 344 758 410 717 q 199 821 279 799 q 32 843 118 843 l 32 903 l 1072 903 l 1556 599 q 1572 589 1556 599 q 1612 566 1589 579 q 1656 542 1635 553 q 1686 532 1676 532 q 1706 539 1694 532 q 1718 569 1718 546 q 1688 714 1718 660 q 1611 796 1658 768 q 1508 833 1564 824 q 1401 843 1453 843 l 1401 903 l 2124 903 l 2124 843 q 2017 833 2072 843 q 1914 796 1961 824 q 1837 714 1867 768 q 1807 569 1807 660 l 1808 -119 q 1756 -274 1811 -214 q 1611 -364 1701 -335 q 1415 -393 1521 -393 m 1433 -275 q 1473 -247 1453 -267 q 1508 -185 1493 -226 q 1522 -75 1522 -143 l 1522 244 l 532 843 l 494 843 l 494 767 l 1433 199 l 1433 -275 z "},"O":{"ha":1868,"x_min":31,"x_max":1836,"o":"m 933 -31 q 583 7 746 -31 q 295 110 419 44 q 101 264 171 176 q 31 451 31 351 q 94 638 31 551 q 275 791 157 725 q 560 894 393 857 q 933 931 726 931 q 1307 894 1140 931 q 1592 791 1474 857 q 1773 638 1710 725 q 1836 451 1836 551 q 1766 264 1836 351 q 1572 110 1696 176 q 1284 7 1447 44 q 933 -31 1121 -31 m 933 26 q 1145 133 1069 26 q 1221 450 1221 240 q 1197 683 1221 589 q 1110 826 1172 778 q 933 874 1047 874 q 758 826 821 874 q 671 683 696 778 q 646 450 646 589 q 722 133 646 240 q 933 26 799 26 m 533 56 l 535 61 q 363 160 438 100 q 248 294 289 219 q 207 451 207 368 q 249 610 207 535 q 366 744 290 685 q 540 843 442 804 l 539 849 q 312 751 410 811 q 160 614 214 690 q 106 451 106 538 q 159 291 106 367 q 309 155 213 215 q 533 56 406 94 m 1263 65 q 1389 240 1340 138 q 1438 451 1438 342 q 1389 664 1438 563 q 1263 838 1340 765 l 1254 835 q 1312 649 1290 747 q 1333 451 1333 550 q 1312 255 1333 354 q 1254 68 1290 156 l 1263 65 z "},"Ó":{"ha":1868,"x_min":31,"x_max":1836,"o":"m 933 -31 q 583 7 746 -31 q 295 110 419 44 q 101 264 171 176 q 31 451 31 351 q 94 638 31 551 q 275 791 157 725 q 560 894 393 857 q 933 931 726 931 q 1307 894 1140 931 q 1592 791 1474 857 q 1773 638 1710 725 q 1836 451 1836 551 q 1766 264 1836 351 q 1572 110 1696 176 q 1284 7 1447 44 q 933 -31 1121 -31 m 933 26 q 1145 133 1069 26 q 1221 450 1221 240 q 1197 683 1221 589 q 1110 826 1172 778 q 933 874 1047 874 q 758 826 821 874 q 671 683 696 778 q 646 450 646 589 q 722 133 646 240 q 933 26 799 26 m 533 56 l 535 61 q 363 160 438 100 q 248 294 289 219 q 207 451 207 368 q 249 610 207 535 q 366 744 290 685 q 540 843 442 804 l 539 849 q 312 751 410 811 q 160 614 214 690 q 106 451 106 538 q 159 291 106 367 q 309 155 213 215 q 533 56 406 94 m 1263 65 q 1389 240 1340 138 q 1438 451 1438 342 q 1389 664 1438 563 q 1263 838 1340 765 l 1254 835 q 1312 649 1290 747 q 1333 451 1333 550 q 1312 255 1333 354 q 1254 68 1290 156 l 1263 65 m 553 994 l 553 1044 q 728 1063 661 1044 q 836 1115 794 1081 q 913 1197 878 1149 l 1317 1197 q 1308 1176 1317 1197 q 1278 1124 1300 1154 q 1217 1064 1257 1093 q 1111 1019 1176 1035 q 1008 1005 1071 1010 q 874 998 944 1000 q 739 995 804 996 q 628 994 674 994 l 553 994 m 828 1049 q 947 1072 900 1053 q 1019 1117 993 1092 q 1057 1158 1046 1142 l 968 1158 q 931 1112 956 1133 q 877 1076 906 1090 q 828 1054 849 1061 l 828 1049 z "},"Ŏ":{"ha":1868,"x_min":31,"x_max":1836,"o":"m 933 -31 q 583 7 746 -31 q 295 110 419 44 q 101 264 171 176 q 31 451 31 351 q 94 638 31 551 q 275 791 157 725 q 560 894 393 857 q 933 931 726 931 q 1307 894 1140 931 q 1592 791 1474 857 q 1773 638 1710 725 q 1836 451 1836 551 q 1766 264 1836 351 q 1572 110 1696 176 q 1284 7 1447 44 q 933 -31 1121 -31 m 933 26 q 1145 133 1069 26 q 1221 450 1221 240 q 1197 683 1221 589 q 1110 826 1172 778 q 933 874 1047 874 q 758 826 821 874 q 671 683 696 778 q 646 450 646 589 q 722 133 646 240 q 933 26 799 26 m 533 56 l 535 61 q 363 160 438 100 q 248 294 289 219 q 207 451 207 368 q 249 610 207 535 q 366 744 290 685 q 540 843 442 804 l 539 849 q 312 751 410 811 q 160 614 214 690 q 106 451 106 538 q 159 291 106 367 q 309 155 213 215 q 533 56 406 94 m 1263 65 q 1389 240 1340 138 q 1438 451 1438 342 q 1389 664 1438 563 q 1263 838 1340 765 l 1254 835 q 1312 649 1290 747 q 1333 451 1333 550 q 1312 255 1333 354 q 1254 68 1290 156 l 1263 65 m 936 949 q 800 984 863 949 q 701 1080 738 1019 q 664 1213 664 1140 l 693 1221 q 794 1161 736 1186 q 936 1136 851 1136 q 1079 1161 1022 1136 q 1178 1221 1136 1186 l 1206 1213 q 1169 1080 1206 1140 q 1073 984 1133 1019 q 936 949 1013 949 m 936 993 q 1049 1023 997 993 q 1129 1103 1101 1053 l 1122 1107 q 1041 1065 1089 1082 q 936 1049 993 1049 q 834 1065 883 1049 q 751 1107 785 1082 l 744 1103 q 824 1023 772 1053 q 936 993 876 993 z "},"Ô":{"ha":1868,"x_min":31,"x_max":1836,"o":"m 933 -31 q 583 7 746 -31 q 295 110 419 44 q 101 264 171 176 q 31 451 31 351 q 94 638 31 551 q 275 791 157 725 q 560 894 393 857 q 933 931 726 931 q 1307 894 1140 931 q 1592 791 1474 857 q 1773 638 1710 725 q 1836 451 1836 551 q 1766 264 1836 351 q 1572 110 1696 176 q 1284 7 1447 44 q 933 -31 1121 -31 m 933 26 q 1145 133 1069 26 q 1221 450 1221 240 q 1197 683 1221 589 q 1110 826 1172 778 q 933 874 1047 874 q 758 826 821 874 q 671 683 696 778 q 646 450 646 589 q 722 133 646 240 q 933 26 799 26 m 533 56 l 535 61 q 363 160 438 100 q 248 294 289 219 q 207 451 207 368 q 249 610 207 535 q 366 744 290 685 q 540 843 442 804 l 539 849 q 312 751 410 811 q 160 614 214 690 q 106 451 106 538 q 159 291 106 367 q 309 155 213 215 q 533 56 406 94 m 1263 65 q 1389 240 1340 138 q 1438 451 1438 342 q 1389 664 1438 563 q 1263 838 1340 765 l 1254 835 q 1312 649 1290 747 q 1333 451 1333 550 q 1312 255 1333 354 q 1254 68 1290 156 l 1263 65 m 524 994 l 710 1197 l 1160 1197 l 1344 994 l 1224 994 l 1081 1150 l 936 994 l 524 994 m 678 1047 l 764 1047 l 868 1163 l 782 1163 l 678 1047 z "},"Ö":{"ha":1868,"x_min":31,"x_max":1836,"o":"m 933 -31 q 583 7 746 -31 q 295 110 419 44 q 101 264 171 176 q 31 451 31 351 q 94 638 31 551 q 275 791 157 725 q 560 894 393 857 q 933 931 726 931 q 1307 894 1140 931 q 1592 791 1474 857 q 1773 638 1710 725 q 1836 451 1836 551 q 1766 264 1836 351 q 1572 110 1696 176 q 1284 7 1447 44 q 933 -31 1121 -31 m 933 26 q 1145 133 1069 26 q 1221 450 1221 240 q 1197 683 1221 589 q 1110 826 1172 778 q 933 874 1047 874 q 758 826 821 874 q 671 683 696 778 q 646 450 646 589 q 722 133 646 240 q 933 26 799 26 m 533 56 l 535 61 q 363 160 438 100 q 248 294 289 219 q 207 451 207 368 q 249 610 207 535 q 366 744 290 685 q 540 843 442 804 l 539 849 q 312 751 410 811 q 160 614 214 690 q 106 451 106 538 q 159 291 106 367 q 309 155 213 215 q 533 56 406 94 m 1263 65 q 1389 240 1340 138 q 1438 451 1438 342 q 1389 664 1438 563 q 1263 838 1340 765 l 1254 835 q 1312 649 1290 747 q 1333 451 1333 550 q 1312 255 1333 354 q 1254 68 1290 156 l 1263 65 m 1250 951 q 1156 972 1199 951 q 1087 1029 1113 993 q 1061 1108 1061 1065 q 1087 1189 1061 1153 q 1156 1247 1113 1225 q 1250 1268 1199 1268 q 1347 1247 1304 1268 q 1416 1189 1390 1225 q 1442 1108 1442 1153 q 1416 1029 1442 1065 q 1347 972 1390 993 q 1250 951 1304 951 m 617 951 q 522 972 565 951 q 453 1029 479 993 q 428 1108 428 1065 q 453 1189 428 1153 q 522 1247 479 1225 q 617 1268 565 1268 q 714 1247 671 1268 q 783 1189 757 1225 q 808 1108 808 1153 q 783 1029 808 1065 q 714 972 757 993 q 617 951 671 951 m 575 983 l 579 988 q 548 1040 560 1010 q 536 1108 536 1071 q 548 1176 536 1146 q 579 1229 560 1207 l 575 1233 q 506 1182 533 1215 q 479 1108 479 1149 q 506 1035 479 1069 q 575 983 533 1001 m 1208 983 l 1213 988 q 1181 1040 1193 1010 q 1169 1108 1169 1071 q 1181 1176 1169 1146 q 1213 1229 1193 1207 l 1208 1233 q 1140 1182 1167 1215 q 1113 1108 1113 1149 q 1140 1035 1113 1069 q 1208 983 1167 1001 z "},"Ò":{"ha":1868,"x_min":31,"x_max":1836,"o":"m 933 -31 q 583 7 746 -31 q 295 110 419 44 q 101 264 171 176 q 31 451 31 351 q 94 638 31 551 q 275 791 157 725 q 560 894 393 857 q 933 931 726 931 q 1307 894 1140 931 q 1592 791 1474 857 q 1773 638 1710 725 q 1836 451 1836 551 q 1766 264 1836 351 q 1572 110 1696 176 q 1284 7 1447 44 q 933 -31 1121 -31 m 933 26 q 1145 133 1069 26 q 1221 450 1221 240 q 1197 683 1221 589 q 1110 826 1172 778 q 933 874 1047 874 q 758 826 821 874 q 671 683 696 778 q 646 450 646 589 q 722 133 646 240 q 933 26 799 26 m 533 56 l 535 61 q 363 160 438 100 q 248 294 289 219 q 207 451 207 368 q 249 610 207 535 q 366 744 290 685 q 540 843 442 804 l 539 849 q 312 751 410 811 q 160 614 214 690 q 106 451 106 538 q 159 291 106 367 q 309 155 213 215 q 533 56 406 94 m 1263 65 q 1389 240 1340 138 q 1438 451 1438 342 q 1389 664 1438 563 q 1263 838 1340 765 l 1254 835 q 1312 649 1290 747 q 1333 451 1333 550 q 1312 255 1333 354 q 1254 68 1290 156 l 1263 65 m 1242 994 q 1131 995 1196 994 q 995 998 1065 996 q 862 1005 925 1000 q 758 1019 799 1010 q 653 1064 694 1035 q 591 1124 613 1093 q 561 1176 569 1154 q 553 1197 553 1197 l 957 1197 q 1033 1115 992 1149 q 1142 1063 1075 1081 q 1317 1044 1208 1044 l 1317 994 l 1242 994 m 883 1049 l 883 1054 q 834 1076 863 1061 q 781 1112 806 1090 q 743 1158 756 1133 l 654 1158 q 692 1117 667 1142 q 765 1072 718 1092 q 883 1049 811 1053 z "},"Ő":{"ha":1868,"x_min":31,"x_max":1836,"o":"m 933 -31 q 583 7 746 -31 q 295 110 419 44 q 101 264 171 176 q 31 451 31 351 q 94 638 31 551 q 275 791 157 725 q 560 894 393 857 q 933 931 726 931 q 1307 894 1140 931 q 1592 791 1474 857 q 1773 638 1710 725 q 1836 451 1836 551 q 1766 264 1836 351 q 1572 110 1696 176 q 1284 7 1447 44 q 933 -31 1121 -31 m 933 26 q 1145 133 1069 26 q 1221 450 1221 240 q 1197 683 1221 589 q 1110 826 1172 778 q 933 874 1047 874 q 758 826 821 874 q 671 683 696 778 q 646 450 646 589 q 722 133 646 240 q 933 26 799 26 m 533 56 l 535 61 q 363 160 438 100 q 248 294 289 219 q 207 451 207 368 q 249 610 207 535 q 366 744 290 685 q 540 843 442 804 l 539 849 q 312 751 410 811 q 160 614 214 690 q 106 451 106 538 q 159 291 106 367 q 309 155 213 215 q 533 56 406 94 m 1263 65 q 1389 240 1340 138 q 1438 451 1438 342 q 1389 664 1438 563 q 1263 838 1340 765 l 1254 835 q 1312 649 1290 747 q 1333 451 1333 550 q 1312 255 1333 354 q 1254 68 1290 156 l 1263 65 m 968 994 l 968 1044 q 1087 1063 1039 1044 q 1168 1115 1135 1081 q 1231 1197 1201 1149 l 1565 1197 q 1558 1176 1565 1197 q 1528 1124 1550 1154 q 1467 1065 1507 1093 q 1365 1019 1428 1036 q 1248 1003 1317 1008 q 1110 996 1179 997 q 989 994 1040 994 l 968 994 m 414 994 l 414 1044 q 533 1063 485 1044 q 614 1115 581 1081 q 676 1197 647 1149 l 1011 1197 q 1003 1176 1011 1197 q 974 1124 996 1154 q 913 1065 953 1093 q 811 1019 874 1036 q 694 1003 763 1008 q 556 996 625 997 q 435 994 486 994 l 414 994 m 592 1049 q 710 1072 664 1053 q 783 1117 757 1092 q 821 1158 810 1142 l 732 1158 q 694 1112 719 1133 q 641 1076 669 1090 q 592 1054 613 1061 l 592 1049 m 1146 1049 q 1265 1072 1218 1053 q 1338 1117 1311 1092 q 1375 1158 1364 1142 l 1286 1158 q 1248 1112 1274 1133 q 1194 1076 1222 1090 q 1146 1054 1167 1061 l 1146 1049 z "},"Ō":{"ha":1868,"x_min":31,"x_max":1836,"o":"m 933 -31 q 583 7 746 -31 q 295 110 419 44 q 101 264 171 176 q 31 451 31 351 q 94 638 31 551 q 275 791 157 725 q 560 894 393 857 q 933 931 726 931 q 1307 894 1140 931 q 1592 791 1474 857 q 1773 638 1710 725 q 1836 451 1836 551 q 1766 264 1836 351 q 1572 110 1696 176 q 1284 7 1447 44 q 933 -31 1121 -31 m 933 26 q 1145 133 1069 26 q 1221 450 1221 240 q 1197 683 1221 589 q 1110 826 1172 778 q 933 874 1047 874 q 758 826 821 874 q 671 683 696 778 q 646 450 646 589 q 722 133 646 240 q 933 26 799 26 m 533 56 l 535 61 q 363 160 438 100 q 248 294 289 219 q 207 451 207 368 q 249 610 207 535 q 366 744 290 685 q 540 843 442 804 l 539 849 q 312 751 410 811 q 160 614 214 690 q 106 451 106 538 q 159 291 106 367 q 309 155 213 215 q 533 56 406 94 m 1263 65 q 1389 240 1340 138 q 1438 451 1438 342 q 1389 664 1438 563 q 1263 838 1340 765 l 1254 835 q 1312 649 1290 747 q 1333 451 1333 550 q 1312 255 1333 354 q 1254 68 1290 156 l 1263 65 m 653 1003 l 653 1189 l 1215 1189 l 1215 1003 l 653 1003 m 738 1031 l 813 1031 l 813 1161 l 738 1161 l 738 1031 z "},"Ø":{"ha":1868,"x_min":31,"x_max":1836,"o":"m 624 -124 l 678 -11 q 419 55 538 11 q 214 160 301 99 q 78 295 126 221 q 31 451 31 369 q 94 638 31 551 q 275 791 157 725 q 560 894 393 857 q 933 931 726 931 q 1119 922 1029 931 l 1171 1029 l 1243 1029 l 1189 914 q 1535 819 1390 886 q 1758 658 1681 753 q 1836 451 1836 563 q 1766 264 1836 351 q 1572 110 1696 176 q 1284 7 1447 44 q 933 -31 1121 -31 q 744 -19 838 -31 l 696 -124 l 624 -124 m 646 450 q 669 251 646 335 q 736 114 693 167 l 1082 843 q 933 874 1024 874 q 758 826 821 874 q 671 683 696 778 q 646 450 646 589 m 533 56 l 535 61 q 363 160 438 100 q 248 294 289 219 q 207 451 207 368 q 249 610 207 535 q 366 744 290 685 q 540 843 442 804 l 539 849 q 312 751 410 811 q 160 614 214 690 q 106 451 106 538 q 159 291 106 367 q 309 155 213 215 q 533 56 406 94 m 1263 65 q 1389 240 1340 138 q 1438 451 1438 342 q 1389 664 1438 563 q 1263 838 1340 765 l 1254 835 q 1312 649 1290 747 q 1333 451 1333 550 q 1312 255 1333 354 q 1254 68 1290 156 l 1263 65 m 933 26 q 1145 133 1069 26 q 1221 450 1221 240 q 1202 662 1221 574 q 1135 801 1183 750 l 788 68 q 933 26 849 26 z "},"Ǿ":{"ha":1868,"x_min":31,"x_max":1836,"o":"m 624 -124 l 678 -11 q 419 55 538 11 q 214 160 301 99 q 78 295 126 221 q 31 451 31 369 q 94 638 31 551 q 275 791 157 725 q 560 894 393 857 q 933 931 726 931 q 1119 922 1029 931 l 1171 1029 l 1243 1029 l 1189 914 q 1535 819 1390 886 q 1758 658 1681 753 q 1836 451 1836 563 q 1766 264 1836 351 q 1572 110 1696 176 q 1284 7 1447 44 q 933 -31 1121 -31 q 744 -19 838 -31 l 696 -124 l 624 -124 m 646 450 q 669 251 646 335 q 736 114 693 167 l 1082 843 q 933 874 1024 874 q 758 826 821 874 q 671 683 696 778 q 646 450 646 589 m 533 56 l 535 61 q 363 160 438 100 q 248 294 289 219 q 207 451 207 368 q 249 610 207 535 q 366 744 290 685 q 540 843 442 804 l 539 849 q 312 751 410 811 q 160 614 214 690 q 106 451 106 538 q 159 291 106 367 q 309 155 213 215 q 533 56 406 94 m 1263 65 q 1389 240 1340 138 q 1438 451 1438 342 q 1389 664 1438 563 q 1263 838 1340 765 l 1254 835 q 1312 649 1290 747 q 1333 451 1333 550 q 1312 255 1333 354 q 1254 68 1290 156 l 1263 65 m 933 26 q 1145 133 1069 26 q 1221 450 1221 240 q 1202 662 1221 574 q 1135 801 1183 750 l 788 68 q 933 26 849 26 m 553 994 l 553 1044 q 728 1063 661 1044 q 836 1115 794 1081 q 913 1197 878 1149 l 1317 1197 q 1308 1176 1317 1197 q 1278 1124 1300 1154 q 1217 1064 1257 1093 q 1111 1019 1176 1035 q 1008 1005 1071 1010 q 874 998 944 1000 q 739 995 804 996 q 628 994 674 994 l 553 994 m 828 1049 q 947 1072 900 1053 q 1019 1117 993 1092 q 1057 1158 1046 1142 l 968 1158 q 931 1112 956 1133 q 877 1076 906 1090 q 828 1054 849 1061 l 828 1049 z "},"Õ":{"ha":1868,"x_min":31,"x_max":1836,"o":"m 933 -31 q 583 7 746 -31 q 295 110 419 44 q 101 264 171 176 q 31 451 31 351 q 94 638 31 551 q 275 791 157 725 q 560 894 393 857 q 933 931 726 931 q 1307 894 1140 931 q 1592 791 1474 857 q 1773 638 1710 725 q 1836 451 1836 551 q 1766 264 1836 351 q 1572 110 1696 176 q 1284 7 1447 44 q 933 -31 1121 -31 m 933 26 q 1145 133 1069 26 q 1221 450 1221 240 q 1197 683 1221 589 q 1110 826 1172 778 q 933 874 1047 874 q 758 826 821 874 q 671 683 696 778 q 646 450 646 589 q 722 133 646 240 q 933 26 799 26 m 533 56 l 535 61 q 363 160 438 100 q 248 294 289 219 q 207 451 207 368 q 249 610 207 535 q 366 744 290 685 q 540 843 442 804 l 539 849 q 312 751 410 811 q 160 614 214 690 q 106 451 106 538 q 159 291 106 367 q 309 155 213 215 q 533 56 406 94 m 1263 65 q 1389 240 1340 138 q 1438 451 1438 342 q 1389 664 1438 563 q 1263 838 1340 765 l 1254 835 q 1312 649 1290 747 q 1333 451 1333 550 q 1312 255 1333 354 q 1254 68 1290 156 l 1263 65 m 1085 979 q 944 990 1003 979 q 837 1013 886 1000 q 736 1037 788 1026 q 617 1047 685 1047 q 563 1033 586 1047 q 531 996 540 1019 l 492 996 q 515 1060 494 1022 q 574 1134 535 1097 q 671 1196 613 1171 q 806 1221 729 1221 q 938 1213 883 1221 q 1038 1196 993 1206 q 1125 1178 1082 1186 q 1224 1171 1168 1171 q 1294 1184 1269 1171 q 1332 1219 1318 1197 l 1378 1219 q 1356 1151 1375 1192 q 1301 1072 1338 1111 q 1211 1006 1265 1032 q 1085 979 1157 979 m 1094 1026 q 1194 1044 1143 1026 q 1279 1090 1244 1061 l 1276 1096 q 1206 1081 1247 1086 q 1133 1075 1164 1075 q 996 1084 1053 1075 q 894 1106 939 1093 q 804 1127 849 1118 q 703 1136 760 1136 q 638 1124 664 1136 q 592 1094 611 1111 l 596 1089 q 626 1094 611 1092 q 654 1096 640 1096 q 777 1078 713 1096 q 919 1044 842 1061 q 1094 1026 997 1026 z "},"Œ":{"ha":2692,"x_min":31,"x_max":2581,"o":"m 933 0 q 583 35 746 0 q 295 133 419 71 q 101 277 171 194 q 31 453 31 360 q 94 628 31 546 q 275 772 157 710 q 560 868 393 833 q 933 903 726 903 l 2581 903 l 2581 583 l 2540 583 q 2415 703 2496 644 q 2213 801 2335 763 q 1919 840 2092 840 q 1805 803 1847 840 q 1763 706 1763 765 l 1763 658 q 1771 597 1763 631 q 1805 540 1779 564 q 1885 517 1831 517 q 1982 531 1931 517 q 2082 568 2033 544 q 2168 624 2131 592 q 2222 693 2206 656 l 2274 693 l 2274 269 l 2222 269 q 2142 359 2200 322 q 2015 415 2085 396 q 1885 433 1946 433 q 1811 415 1838 433 q 1774 367 1785 396 q 1763 310 1763 339 l 1763 260 q 1769 153 1763 199 q 1801 84 1776 108 q 1882 60 1826 60 l 1917 60 q 2074 65 1992 60 q 2240 92 2157 69 q 2400 162 2324 114 q 2540 294 2476 210 l 2581 294 l 2581 0 l 933 0 m 933 60 l 1071 60 q 1178 93 1135 60 q 1222 210 1222 126 l 1222 690 q 1202 767 1222 732 q 1148 822 1182 801 q 1071 843 1114 843 l 933 843 q 758 799 821 843 q 671 667 696 754 q 646 451 646 581 q 722 159 646 258 q 933 60 799 60 m 1315 60 l 1407 60 l 1407 843 l 1315 843 l 1315 60 m 533 83 l 535 89 q 297 237 388 147 q 207 451 207 326 q 299 667 207 576 q 540 815 392 757 l 539 821 q 312 730 410 783 q 160 607 214 676 q 106 451 106 538 q 159 298 106 367 q 309 176 213 229 q 533 83 406 122 z "},"P":{"ha":2010,"x_min":101,"x_max":1992,"o":"m 101 0 l 101 60 l 269 60 q 377 94 333 60 q 421 210 421 128 l 421 690 q 401 767 421 732 q 347 822 381 801 q 269 843 313 843 l 101 843 l 101 903 l 1503 903 q 1631 898 1564 903 q 1763 878 1699 893 q 1878 836 1826 864 q 1961 763 1931 808 q 1992 651 1992 718 q 1935 500 1992 557 q 1780 419 1878 443 q 1558 394 1682 394 l 1040 394 q 983 373 1001 394 q 964 300 964 351 l 964 210 q 1008 94 964 128 q 1114 60 1051 60 l 1283 60 l 1283 0 l 101 0 m 514 60 l 606 60 l 606 843 l 514 843 l 514 60 m 1035 457 l 1175 457 q 1242 467 1204 457 q 1317 500 1281 478 q 1378 559 1354 522 q 1403 650 1403 596 q 1378 741 1403 704 q 1317 800 1354 778 q 1242 833 1281 822 q 1175 843 1204 843 l 1035 843 q 985 822 1006 843 q 965 772 965 801 l 965 526 q 985 478 965 499 q 1035 457 1006 457 m 1474 463 q 1540 504 1510 475 q 1589 572 1571 533 q 1607 650 1607 611 q 1589 728 1607 690 q 1540 796 1571 767 q 1474 838 1510 825 l 1467 833 q 1501 747 1492 794 q 1511 650 1511 699 q 1501 554 1511 603 q 1467 467 1492 506 l 1474 463 z "},"Þ":{"ha":2010,"x_min":101,"x_max":1990,"o":"m 101 0 l 101 60 l 271 60 q 378 93 333 60 q 422 210 422 126 l 422 690 q 402 767 422 732 q 347 822 382 801 q 271 843 313 843 l 101 843 l 101 903 l 1283 903 l 1283 843 l 963 843 l 963 801 q 981 728 963 750 q 1039 707 1000 707 l 1501 707 q 1630 702 1563 707 q 1761 683 1697 697 q 1877 640 1825 668 q 1960 567 1929 613 q 1990 454 1990 521 q 1933 303 1990 360 q 1778 222 1876 246 q 1557 197 1681 197 l 1039 197 q 981 176 1000 197 q 963 103 963 154 l 963 60 l 1283 60 l 1283 0 l 101 0 m 515 60 l 606 60 l 606 843 l 515 843 l 515 60 m 1033 260 l 1174 260 q 1241 270 1203 260 q 1316 303 1279 281 q 1377 362 1353 325 q 1401 453 1401 399 q 1377 544 1401 507 q 1316 603 1353 581 q 1241 635 1279 625 q 1174 644 1203 644 l 1033 644 q 984 624 1004 644 q 964 574 964 603 l 964 329 q 984 281 964 301 q 1033 260 1004 260 m 1472 265 q 1539 307 1508 278 q 1588 375 1569 336 q 1606 453 1606 414 q 1588 531 1606 493 q 1539 599 1569 569 q 1472 640 1508 628 l 1465 636 q 1500 549 1490 597 q 1510 453 1510 501 q 1500 357 1510 406 q 1465 269 1490 308 l 1472 265 z "},"Q":{"ha":1868,"x_min":31,"x_max":1836,"o":"m 593 -287 l 593 -228 q 660 -148 614 -183 q 767 -84 707 -112 q 886 -35 826 -56 l 886 -29 q 552 15 707 -24 q 280 119 397 54 q 97 269 163 185 q 31 451 31 354 q 94 639 31 551 q 275 792 157 726 q 560 894 393 857 q 933 932 726 932 q 1307 894 1140 932 q 1592 792 1474 857 q 1773 639 1710 726 q 1836 451 1836 551 q 1776 278 1836 360 q 1607 131 1715 196 q 1354 26 1499 67 q 1043 -26 1210 -15 q 1011 -86 1021 -54 q 1001 -147 1001 -118 q 1015 -205 1001 -182 q 1054 -228 1028 -228 l 1272 -228 l 1272 -287 l 593 -287 m 933 28 q 1145 135 1069 28 q 1221 451 1221 242 q 1197 684 1221 590 q 1110 826 1172 778 q 933 874 1047 874 q 758 826 821 874 q 671 684 696 778 q 646 451 646 590 q 722 135 646 242 q 933 28 799 28 m 533 56 l 535 61 q 363 160 438 100 q 248 294 289 219 q 207 451 207 368 q 249 610 207 535 q 366 744 290 685 q 540 843 442 804 l 539 849 q 312 751 410 811 q 160 614 214 690 q 106 451 106 538 q 159 291 106 367 q 309 155 213 215 q 533 56 406 94 m 1263 65 q 1389 240 1340 138 q 1438 451 1438 342 q 1389 664 1438 563 q 1263 838 1340 765 l 1254 835 q 1312 649 1290 747 q 1333 451 1333 550 q 1312 255 1333 354 q 1254 68 1290 156 l 1263 65 m 690 -228 l 775 -228 q 792 -183 775 -208 q 833 -133 810 -158 q 880 -87 857 -108 q 913 -58 903 -67 l 910 -54 q 848 -84 885 -64 q 775 -131 811 -104 q 715 -183 739 -157 q 690 -228 690 -208 z "},"R":{"ha":2201,"x_min":101,"x_max":2182,"o":"m 101 0 l 101 60 l 269 60 q 377 94 333 60 q 421 211 421 128 l 421 690 q 377 798 421 753 q 269 843 333 843 l 101 843 l 101 903 l 1593 903 q 1722 898 1654 903 q 1854 879 1790 893 q 1969 838 1918 865 q 2051 765 2021 810 q 2082 651 2082 719 q 2034 528 2082 575 q 1908 456 1986 481 q 1737 423 1829 432 q 1556 411 1644 414 l 1556 404 q 1658 347 1585 379 q 1832 299 1731 314 l 2018 60 l 2182 60 l 2182 0 l 1358 0 l 1081 356 q 1068 370 1081 356 q 1038 399 1056 385 q 1004 414 1021 414 q 969 390 975 414 q 964 315 964 365 l 964 211 q 1008 94 964 128 q 1114 60 1051 60 l 1218 60 l 1218 0 l 101 0 m 514 60 l 606 60 l 606 843 l 514 843 l 514 60 m 1189 485 q 1301 501 1247 485 q 1390 553 1356 517 q 1425 650 1425 589 q 1401 741 1425 704 q 1340 800 1376 778 q 1265 833 1303 822 q 1197 843 1226 843 l 1035 843 q 985 822 1006 843 q 965 772 965 801 l 965 574 q 997 529 965 550 q 1081 497 1029 508 q 1189 485 1132 485 m 1518 467 q 1613 533 1575 482 q 1650 650 1650 585 q 1613 767 1650 717 q 1517 835 1575 818 l 1513 831 q 1547 747 1539 792 q 1554 650 1554 703 q 1546 555 1554 601 q 1514 471 1538 508 l 1518 467 m 1422 60 l 1538 60 l 1263 414 l 1147 414 l 1422 60 z "},"Ŕ":{"ha":2201,"x_min":101,"x_max":2182,"o":"m 101 0 l 101 60 l 269 60 q 377 94 333 60 q 421 211 421 128 l 421 690 q 377 798 421 753 q 269 843 333 843 l 101 843 l 101 903 l 1593 903 q 1722 898 1654 903 q 1854 879 1790 893 q 1969 838 1918 865 q 2051 765 2021 810 q 2082 651 2082 719 q 2034 528 2082 575 q 1908 456 1986 481 q 1737 423 1829 432 q 1556 411 1644 414 l 1556 404 q 1658 347 1585 379 q 1832 299 1731 314 l 2018 60 l 2182 60 l 2182 0 l 1358 0 l 1081 356 q 1068 370 1081 356 q 1038 399 1056 385 q 1004 414 1021 414 q 969 390 975 414 q 964 315 964 365 l 964 211 q 1008 94 964 128 q 1114 60 1051 60 l 1218 60 l 1218 0 l 101 0 m 514 60 l 606 60 l 606 843 l 514 843 l 514 60 m 1189 485 q 1301 501 1247 485 q 1390 553 1356 517 q 1425 650 1425 589 q 1401 741 1425 704 q 1340 800 1376 778 q 1265 833 1303 822 q 1197 843 1226 843 l 1035 843 q 985 822 1006 843 q 965 772 965 801 l 965 574 q 997 529 965 550 q 1081 497 1029 508 q 1189 485 1132 485 m 1518 467 q 1613 533 1575 482 q 1650 650 1650 585 q 1613 767 1650 717 q 1517 835 1575 818 l 1513 831 q 1547 747 1539 792 q 1554 650 1554 703 q 1546 555 1554 601 q 1514 471 1538 508 l 1518 467 m 1422 60 l 1538 60 l 1263 414 l 1147 414 l 1422 60 m 789 994 l 789 1044 q 964 1063 897 1044 q 1072 1115 1031 1081 q 1149 1197 1114 1149 l 1553 1197 q 1544 1176 1553 1197 q 1515 1124 1536 1154 q 1453 1064 1493 1093 q 1347 1019 1413 1035 q 1244 1005 1307 1010 q 1110 998 1181 1000 q 975 995 1040 996 q 864 994 910 994 l 789 994 m 1064 1049 q 1183 1072 1136 1053 q 1256 1117 1229 1092 q 1293 1158 1282 1142 l 1204 1158 q 1167 1112 1192 1133 q 1113 1076 1142 1090 q 1064 1054 1085 1061 l 1064 1049 z "},"Ř":{"ha":2201,"x_min":101,"x_max":2182,"o":"m 101 0 l 101 60 l 269 60 q 377 94 333 60 q 421 211 421 128 l 421 690 q 377 798 421 753 q 269 843 333 843 l 101 843 l 101 903 l 1593 903 q 1722 898 1654 903 q 1854 879 1790 893 q 1969 838 1918 865 q 2051 765 2021 810 q 2082 651 2082 719 q 2034 528 2082 575 q 1908 456 1986 481 q 1737 423 1829 432 q 1556 411 1644 414 l 1556 404 q 1658 347 1585 379 q 1832 299 1731 314 l 2018 60 l 2182 60 l 2182 0 l 1358 0 l 1081 356 q 1068 370 1081 356 q 1038 399 1056 385 q 1004 414 1021 414 q 969 390 975 414 q 964 315 964 365 l 964 211 q 1008 94 964 128 q 1114 60 1051 60 l 1218 60 l 1218 0 l 101 0 m 514 60 l 606 60 l 606 843 l 514 843 l 514 60 m 1189 485 q 1301 501 1247 485 q 1390 553 1356 517 q 1425 650 1425 589 q 1401 741 1425 704 q 1340 800 1376 778 q 1265 833 1303 822 q 1197 843 1226 843 l 1035 843 q 985 822 1006 843 q 965 772 965 801 l 965 574 q 997 529 965 550 q 1081 497 1029 508 q 1189 485 1132 485 m 1518 467 q 1613 533 1575 482 q 1650 650 1650 585 q 1613 767 1650 717 q 1517 835 1575 818 l 1513 831 q 1547 747 1539 792 q 1554 650 1554 703 q 1546 555 1554 601 q 1514 471 1538 508 l 1518 467 m 1422 60 l 1538 60 l 1263 414 l 1147 414 l 1422 60 m 946 994 l 760 1197 l 1172 1197 l 1317 1042 l 1460 1197 l 1581 1197 l 1396 994 l 946 994 m 1018 1029 l 1104 1029 l 1000 1144 l 914 1144 l 1018 1029 z "},"Ŗ":{"ha":2201,"x_min":101,"x_max":2182,"o":"m 101 0 l 101 60 l 269 60 q 377 94 333 60 q 421 211 421 128 l 421 690 q 377 798 421 753 q 269 843 333 843 l 101 843 l 101 903 l 1593 903 q 1722 898 1654 903 q 1854 879 1790 893 q 1969 838 1918 865 q 2051 765 2021 810 q 2082 651 2082 719 q 2034 528 2082 575 q 1908 456 1986 481 q 1737 423 1829 432 q 1556 411 1644 414 l 1556 404 q 1658 347 1585 379 q 1832 299 1731 314 l 2018 60 l 2182 60 l 2182 0 l 1358 0 l 1081 356 q 1068 370 1081 356 q 1038 399 1056 385 q 1004 414 1021 414 q 969 390 975 414 q 964 315 964 365 l 964 211 q 1008 94 964 128 q 1114 60 1051 60 l 1218 60 l 1218 0 l 101 0 m 514 60 l 606 60 l 606 843 l 514 843 l 514 60 m 1189 485 q 1301 501 1247 485 q 1390 553 1356 517 q 1425 650 1425 589 q 1401 741 1425 704 q 1340 800 1376 778 q 1265 833 1303 822 q 1197 843 1226 843 l 1035 843 q 985 822 1006 843 q 965 772 965 801 l 965 574 q 997 529 965 550 q 1081 497 1029 508 q 1189 485 1132 485 m 1518 467 q 1613 533 1575 482 q 1650 650 1650 585 q 1613 767 1650 717 q 1517 835 1575 818 l 1513 831 q 1547 747 1539 792 q 1554 650 1554 703 q 1546 555 1554 601 q 1514 471 1538 508 l 1518 467 m 1422 60 l 1538 60 l 1263 414 l 1147 414 l 1422 60 m 993 -550 l 993 -499 q 1074 -489 1026 -499 q 1167 -455 1122 -479 q 1231 -390 1211 -431 q 1171 -399 1204 -399 q 1074 -377 1118 -399 q 1005 -319 1031 -356 q 979 -239 979 -282 q 1005 -159 979 -194 q 1074 -103 1031 -124 q 1171 -82 1118 -82 q 1266 -103 1224 -82 q 1334 -162 1308 -125 q 1360 -250 1360 -200 q 1325 -383 1360 -318 q 1210 -494 1290 -449 q 993 -550 1129 -540 m 1118 -351 l 1121 -347 q 1094 -299 1104 -328 q 1083 -239 1083 -271 q 1094 -178 1083 -207 q 1121 -131 1104 -150 l 1118 -126 q 1058 -174 1082 -143 q 1035 -239 1035 -204 q 1058 -304 1035 -274 q 1118 -351 1082 -335 z "},"S":{"ha":1751,"x_min":131,"x_max":1619,"o":"m 894 -29 q 658 -16 765 -29 q 450 22 551 -3 q 235 81 349 46 l 196 0 l 131 0 l 131 390 l 196 390 q 263 301 214 350 q 387 205 313 253 q 553 117 461 157 q 749 52 646 76 q 960 28 853 28 q 1067 33 1014 28 q 1156 53 1121 38 q 1192 97 1192 68 q 1147 151 1192 128 q 1027 196 1103 175 q 857 238 951 217 q 663 283 763 258 q 468 338 563 307 q 298 408 374 368 q 178 501 222 449 q 133 621 133 553 q 175 771 133 713 q 287 862 217 829 q 443 909 357 894 q 619 927 529 924 q 788 931 708 931 q 951 923 860 931 q 1139 902 1043 915 q 1324 874 1235 889 q 1479 843 1413 858 l 1504 903 l 1569 903 l 1569 610 l 1504 610 q 1427 674 1485 639 q 1289 744 1369 708 q 1117 808 1208 779 q 938 856 1026 838 q 775 874 849 874 q 650 858 701 874 q 599 799 599 843 q 642 739 599 763 q 758 699 685 715 q 922 669 831 683 q 1109 637 1013 654 q 1297 593 1206 619 q 1460 527 1388 567 q 1576 428 1533 488 q 1619 286 1619 369 q 1433 44 1619 118 q 894 -29 1246 -29 m 1351 94 l 1357 96 l 1357 128 q 1311 243 1357 200 q 1187 312 1265 286 q 1009 358 1108 338 q 801 404 910 378 q 610 456 704 428 q 439 523 517 485 q 310 613 361 561 q 246 735 258 665 l 236 736 q 223 690 228 718 q 218 639 218 663 q 335 472 218 542 q 700 339 453 403 q 963 275 854 300 q 1147 228 1072 250 q 1269 176 1221 207 q 1351 94 1318 146 z "},"Ś":{"ha":1751,"x_min":131,"x_max":1619,"o":"m 894 -29 q 658 -16 765 -29 q 450 22 551 -3 q 235 81 349 46 l 196 0 l 131 0 l 131 390 l 196 390 q 263 301 214 350 q 387 205 313 253 q 553 117 461 157 q 749 52 646 76 q 960 28 853 28 q 1067 33 1014 28 q 1156 53 1121 38 q 1192 97 1192 68 q 1147 151 1192 128 q 1027 196 1103 175 q 857 238 951 217 q 663 283 763 258 q 468 338 563 307 q 298 408 374 368 q 178 501 222 449 q 133 621 133 553 q 175 771 133 713 q 287 862 217 829 q 443 909 357 894 q 619 927 529 924 q 788 931 708 931 q 951 923 860 931 q 1139 902 1043 915 q 1324 874 1235 889 q 1479 843 1413 858 l 1504 903 l 1569 903 l 1569 610 l 1504 610 q 1427 674 1485 639 q 1289 744 1369 708 q 1117 808 1208 779 q 938 856 1026 838 q 775 874 849 874 q 650 858 701 874 q 599 799 599 843 q 642 739 599 763 q 758 699 685 715 q 922 669 831 683 q 1109 637 1013 654 q 1297 593 1206 619 q 1460 527 1388 567 q 1576 428 1533 488 q 1619 286 1619 369 q 1433 44 1619 118 q 894 -29 1246 -29 m 1351 94 l 1357 96 l 1357 128 q 1311 243 1357 200 q 1187 312 1265 286 q 1009 358 1108 338 q 801 404 910 378 q 610 456 704 428 q 439 523 517 485 q 310 613 361 561 q 246 735 258 665 l 236 736 q 223 690 228 718 q 218 639 218 663 q 335 472 218 542 q 700 339 453 403 q 963 275 854 300 q 1147 228 1072 250 q 1269 176 1221 207 q 1351 94 1318 146 m 506 994 l 506 1044 q 681 1063 614 1044 q 789 1115 747 1081 q 865 1197 831 1149 l 1269 1197 q 1261 1176 1269 1197 q 1231 1124 1253 1154 q 1169 1064 1210 1093 q 1064 1019 1129 1035 q 960 1005 1024 1010 q 827 998 897 1000 q 692 995 757 996 q 581 994 626 994 l 506 994 m 781 1049 q 899 1072 853 1053 q 972 1117 946 1092 q 1010 1158 999 1142 l 921 1158 q 883 1112 908 1133 q 830 1076 858 1090 q 781 1054 801 1061 l 781 1049 z "},"Š":{"ha":1751,"x_min":131,"x_max":1619,"o":"m 894 -29 q 658 -16 765 -29 q 450 22 551 -3 q 235 81 349 46 l 196 0 l 131 0 l 131 390 l 196 390 q 263 301 214 350 q 387 205 313 253 q 553 117 461 157 q 749 52 646 76 q 960 28 853 28 q 1067 33 1014 28 q 1156 53 1121 38 q 1192 97 1192 68 q 1147 151 1192 128 q 1027 196 1103 175 q 857 238 951 217 q 663 283 763 258 q 468 338 563 307 q 298 408 374 368 q 178 501 222 449 q 133 621 133 553 q 175 771 133 713 q 287 862 217 829 q 443 909 357 894 q 619 927 529 924 q 788 931 708 931 q 951 923 860 931 q 1139 902 1043 915 q 1324 874 1235 889 q 1479 843 1413 858 l 1504 903 l 1569 903 l 1569 610 l 1504 610 q 1427 674 1485 639 q 1289 744 1369 708 q 1117 808 1208 779 q 938 856 1026 838 q 775 874 849 874 q 650 858 701 874 q 599 799 599 843 q 642 739 599 763 q 758 699 685 715 q 922 669 831 683 q 1109 637 1013 654 q 1297 593 1206 619 q 1460 527 1388 567 q 1576 428 1533 488 q 1619 286 1619 369 q 1433 44 1619 118 q 894 -29 1246 -29 m 1351 94 l 1357 96 l 1357 128 q 1311 243 1357 200 q 1187 312 1265 286 q 1009 358 1108 338 q 801 404 910 378 q 610 456 704 428 q 439 523 517 485 q 310 613 361 561 q 246 735 258 665 l 236 736 q 223 690 228 718 q 218 639 218 663 q 335 472 218 542 q 700 339 453 403 q 963 275 854 300 q 1147 228 1072 250 q 1269 176 1221 207 q 1351 94 1318 146 m 663 994 l 476 1197 l 889 1197 l 1033 1042 l 1176 1197 l 1297 1197 l 1113 994 l 663 994 m 735 1029 l 821 1029 l 717 1144 l 631 1144 l 735 1029 z "},"Ş":{"ha":1751,"x_min":131,"x_max":1619,"o":"m 894 -29 q 658 -16 765 -29 q 450 22 551 -3 q 235 81 349 46 l 196 0 l 131 0 l 131 390 l 196 390 q 263 301 214 350 q 387 205 313 253 q 553 117 461 157 q 749 52 646 76 q 960 28 853 28 q 1067 33 1014 28 q 1156 53 1121 38 q 1192 97 1192 68 q 1147 151 1192 128 q 1027 196 1103 175 q 857 238 951 217 q 663 283 763 258 q 468 338 563 307 q 298 408 374 368 q 178 501 222 449 q 133 621 133 553 q 175 771 133 713 q 287 862 217 829 q 443 909 357 894 q 619 927 529 924 q 788 931 708 931 q 951 923 860 931 q 1139 902 1043 915 q 1324 874 1235 889 q 1479 843 1413 858 l 1504 903 l 1569 903 l 1569 610 l 1504 610 q 1427 674 1485 639 q 1289 744 1369 708 q 1117 808 1208 779 q 938 856 1026 838 q 775 874 849 874 q 650 858 701 874 q 599 799 599 843 q 642 739 599 763 q 758 699 685 715 q 922 669 831 683 q 1109 637 1013 654 q 1297 593 1206 619 q 1460 527 1388 567 q 1576 428 1533 488 q 1619 286 1619 369 q 1433 44 1619 118 q 894 -29 1246 -29 m 1351 94 l 1357 96 l 1357 128 q 1311 243 1357 200 q 1187 312 1265 286 q 1009 358 1108 338 q 801 404 910 378 q 610 456 704 428 q 439 523 517 485 q 310 613 361 561 q 246 735 258 665 l 236 736 q 223 690 228 718 q 218 639 218 663 q 335 472 218 542 q 700 339 453 403 q 963 275 854 300 q 1147 228 1072 250 q 1269 176 1221 207 q 1351 94 1318 146 m 876 -310 q 692 -295 778 -310 q 553 -261 606 -281 l 553 -110 l 607 -110 q 653 -176 622 -146 q 724 -225 685 -207 q 800 -243 764 -243 q 876 -220 844 -243 q 908 -146 908 -197 q 726 0 908 -26 l 726 22 q 899 9 815 22 q 1051 -31 983 -4 q 1160 -95 1119 -57 q 1200 -185 1200 -133 q 1171 -251 1200 -226 q 1094 -288 1142 -275 q 990 -306 1047 -301 q 876 -310 933 -310 m 933 -261 q 991 -238 961 -254 q 1041 -199 1021 -222 q 1061 -149 1061 -175 q 1024 -78 1061 -104 q 933 -33 988 -51 l 928 -42 q 992 -149 992 -81 q 975 -209 992 -179 q 929 -253 958 -239 l 933 -261 z "},"Ŝ":{"ha":1751,"x_min":131,"x_max":1619,"o":"m 894 -29 q 658 -16 765 -29 q 450 22 551 -3 q 235 81 349 46 l 196 0 l 131 0 l 131 390 l 196 390 q 263 301 214 350 q 387 205 313 253 q 553 117 461 157 q 749 52 646 76 q 960 28 853 28 q 1067 33 1014 28 q 1156 53 1121 38 q 1192 97 1192 68 q 1147 151 1192 128 q 1027 196 1103 175 q 857 238 951 217 q 663 283 763 258 q 468 338 563 307 q 298 408 374 368 q 178 501 222 449 q 133 621 133 553 q 175 771 133 713 q 287 862 217 829 q 443 909 357 894 q 619 927 529 924 q 788 931 708 931 q 951 923 860 931 q 1139 902 1043 915 q 1324 874 1235 889 q 1479 843 1413 858 l 1504 903 l 1569 903 l 1569 610 l 1504 610 q 1427 674 1485 639 q 1289 744 1369 708 q 1117 808 1208 779 q 938 856 1026 838 q 775 874 849 874 q 650 858 701 874 q 599 799 599 843 q 642 739 599 763 q 758 699 685 715 q 922 669 831 683 q 1109 637 1013 654 q 1297 593 1206 619 q 1460 527 1388 567 q 1576 428 1533 488 q 1619 286 1619 369 q 1433 44 1619 118 q 894 -29 1246 -29 m 1351 94 l 1357 96 l 1357 128 q 1311 243 1357 200 q 1187 312 1265 286 q 1009 358 1108 338 q 801 404 910 378 q 610 456 704 428 q 439 523 517 485 q 310 613 361 561 q 246 735 258 665 l 236 736 q 223 690 228 718 q 218 639 218 663 q 335 472 218 542 q 700 339 453 403 q 963 275 854 300 q 1147 228 1072 250 q 1269 176 1221 207 q 1351 94 1318 146 m 476 994 l 663 1197 l 1113 1197 l 1297 994 l 1176 994 l 1033 1150 l 889 994 l 476 994 m 631 1047 l 717 1047 l 821 1163 l 735 1163 l 631 1047 z "},"Ș":{"ha":1751,"x_min":131,"x_max":1619,"o":"m 894 -29 q 658 -16 765 -29 q 450 22 551 -3 q 235 81 349 46 l 196 0 l 131 0 l 131 390 l 196 390 q 263 301 214 350 q 387 205 313 253 q 553 117 461 157 q 749 52 646 76 q 960 28 853 28 q 1067 33 1014 28 q 1156 53 1121 38 q 1192 97 1192 68 q 1147 151 1192 128 q 1027 196 1103 175 q 857 238 951 217 q 663 283 763 258 q 468 338 563 307 q 298 408 374 368 q 178 501 222 449 q 133 621 133 553 q 175 771 133 713 q 287 862 217 829 q 443 909 357 894 q 619 927 529 924 q 788 931 708 931 q 951 923 860 931 q 1139 902 1043 915 q 1324 874 1235 889 q 1479 843 1413 858 l 1504 903 l 1569 903 l 1569 610 l 1504 610 q 1427 674 1485 639 q 1289 744 1369 708 q 1117 808 1208 779 q 938 856 1026 838 q 775 874 849 874 q 650 858 701 874 q 599 799 599 843 q 642 739 599 763 q 758 699 685 715 q 922 669 831 683 q 1109 637 1013 654 q 1297 593 1206 619 q 1460 527 1388 567 q 1576 428 1533 488 q 1619 286 1619 369 q 1433 44 1619 118 q 894 -29 1246 -29 m 1351 94 l 1357 96 l 1357 128 q 1311 243 1357 200 q 1187 312 1265 286 q 1009 358 1108 338 q 801 404 910 378 q 610 456 704 428 q 439 523 517 485 q 310 613 361 561 q 246 735 258 665 l 236 736 q 223 690 228 718 q 218 639 218 663 q 335 472 218 542 q 700 339 453 403 q 963 275 854 300 q 1147 228 1072 250 q 1269 176 1221 207 q 1351 94 1318 146 m 700 -550 l 700 -499 q 781 -489 733 -499 q 874 -455 829 -479 q 938 -390 918 -431 q 878 -399 911 -399 q 781 -377 825 -399 q 712 -319 738 -356 q 686 -239 686 -282 q 712 -159 686 -194 q 781 -103 738 -124 q 878 -82 825 -82 q 973 -103 931 -82 q 1041 -162 1015 -125 q 1067 -250 1067 -200 q 1032 -383 1067 -318 q 917 -494 997 -449 q 700 -550 836 -540 m 825 -351 l 828 -347 q 801 -299 811 -328 q 790 -239 790 -271 q 801 -178 790 -207 q 828 -131 811 -150 l 825 -126 q 765 -174 789 -143 q 742 -239 742 -204 q 765 -304 742 -274 q 825 -351 789 -335 z "},"T":{"ha":1533,"x_min":92,"x_max":1465,"o":"m 176 0 l 176 60 l 344 60 q 451 94 407 60 q 494 211 494 128 l 494 774 q 483 824 494 806 q 443 842 471 842 q 390 817 422 842 q 322 755 358 793 q 250 674 286 717 q 185 594 214 632 q 138 531 156 556 q 119 507 119 507 l 92 507 l 92 903 l 1465 903 l 1465 507 l 1413 507 q 1394 531 1413 507 q 1347 594 1376 556 q 1283 675 1318 632 q 1211 756 1247 718 q 1143 817 1175 793 q 1090 842 1111 842 q 1050 824 1063 842 q 1038 774 1038 806 l 1038 211 q 1082 94 1038 128 q 1189 60 1126 60 l 1357 60 l 1357 0 l 176 0 m 589 60 l 679 60 l 679 843 l 589 843 l 589 60 z "},"Ŧ":{"ha":1533,"x_min":92,"x_max":1465,"o":"m 176 0 l 176 60 l 344 60 q 451 94 407 60 q 494 211 494 128 l 494 331 l 300 331 l 300 431 l 494 431 l 494 774 q 483 824 494 806 q 443 842 471 842 q 390 817 422 842 q 322 755 358 793 q 250 674 286 717 q 185 594 214 632 q 138 531 156 556 q 119 507 119 507 l 92 507 l 92 903 l 1465 903 l 1465 507 l 1413 507 q 1394 531 1413 507 q 1347 594 1376 556 q 1283 675 1318 632 q 1211 756 1247 718 q 1143 817 1175 793 q 1090 842 1111 842 q 1050 824 1063 842 q 1038 774 1038 806 l 1038 431 l 1233 431 l 1233 331 l 1038 331 l 1038 211 q 1082 94 1038 128 q 1189 60 1126 60 l 1357 60 l 1357 0 l 176 0 m 589 60 l 679 60 l 679 843 l 589 843 l 589 60 z "},"Ť":{"ha":1533,"x_min":92,"x_max":1465,"o":"m 176 0 l 176 60 l 344 60 q 451 94 407 60 q 494 211 494 128 l 494 774 q 483 824 494 806 q 443 842 471 842 q 390 817 422 842 q 322 755 358 793 q 250 674 286 717 q 185 594 214 632 q 138 531 156 556 q 119 507 119 507 l 92 507 l 92 903 l 1465 903 l 1465 507 l 1413 507 q 1394 531 1413 507 q 1347 594 1376 556 q 1283 675 1318 632 q 1211 756 1247 718 q 1143 817 1175 793 q 1090 842 1111 842 q 1050 824 1063 842 q 1038 774 1038 806 l 1038 211 q 1082 94 1038 128 q 1189 60 1126 60 l 1357 60 l 1357 0 l 176 0 m 589 60 l 679 60 l 679 843 l 589 843 l 589 60 m 542 994 l 356 1197 l 768 1197 l 913 1042 l 1056 1197 l 1176 1197 l 992 994 l 542 994 m 614 1029 l 700 1029 l 596 1144 l 510 1144 l 614 1029 z "},"Ţ":{"ha":1533,"x_min":92,"x_max":1465,"o":"m 176 0 l 176 60 l 344 60 q 451 94 407 60 q 494 211 494 128 l 494 774 q 483 824 494 806 q 443 842 471 842 q 390 817 422 842 q 322 755 358 793 q 250 674 286 717 q 185 594 214 632 q 138 531 156 556 q 119 507 119 507 l 92 507 l 92 903 l 1465 903 l 1465 507 l 1413 507 q 1394 531 1413 507 q 1347 594 1376 556 q 1283 675 1318 632 q 1211 756 1247 718 q 1143 817 1175 793 q 1090 842 1111 842 q 1050 824 1063 842 q 1038 774 1038 806 l 1038 211 q 1082 94 1038 128 q 1189 60 1126 60 l 1357 60 l 1357 0 l 176 0 m 589 60 l 679 60 l 679 843 l 589 843 l 589 60 m 767 -310 q 582 -295 668 -310 q 443 -261 496 -281 l 443 -110 l 497 -110 q 544 -176 513 -146 q 615 -225 575 -207 q 690 -243 654 -243 q 767 -220 735 -243 q 799 -146 799 -197 q 617 0 799 -26 l 617 22 q 790 9 706 22 q 942 -31 874 -4 q 1050 -95 1010 -57 q 1090 -185 1090 -133 q 1061 -251 1090 -226 q 985 -288 1032 -275 q 881 -306 938 -301 q 767 -310 824 -310 m 824 -261 q 881 -238 851 -254 q 931 -199 911 -222 q 951 -149 951 -175 q 915 -78 951 -104 q 824 -33 878 -51 l 818 -42 q 882 -149 882 -81 q 865 -209 882 -179 q 819 -253 849 -239 l 824 -261 z "},"Ț":{"ha":1533,"x_min":92,"x_max":1465,"o":"m 176 0 l 176 60 l 344 60 q 451 94 407 60 q 494 211 494 128 l 494 774 q 483 824 494 806 q 443 842 471 842 q 390 817 422 842 q 322 755 358 793 q 250 674 286 717 q 185 594 214 632 q 138 531 156 556 q 119 507 119 507 l 92 507 l 92 903 l 1465 903 l 1465 507 l 1413 507 q 1394 531 1413 507 q 1347 594 1376 556 q 1283 675 1318 632 q 1211 756 1247 718 q 1143 817 1175 793 q 1090 842 1111 842 q 1050 824 1063 842 q 1038 774 1038 806 l 1038 211 q 1082 94 1038 128 q 1189 60 1126 60 l 1357 60 l 1357 0 l 176 0 m 589 60 l 679 60 l 679 843 l 589 843 l 589 60 m 590 -550 l 590 -499 q 672 -489 624 -499 q 764 -455 719 -479 q 828 -390 808 -431 q 768 -399 801 -399 q 672 -377 715 -399 q 602 -319 628 -356 q 576 -239 576 -282 q 602 -159 576 -194 q 672 -103 628 -124 q 768 -82 715 -82 q 863 -103 821 -82 q 931 -162 906 -125 q 957 -250 957 -200 q 922 -383 957 -318 q 807 -494 888 -449 q 590 -550 726 -540 m 715 -351 l 718 -347 q 691 -299 701 -328 q 681 -239 681 -271 q 691 -178 681 -207 q 718 -131 701 -150 l 715 -126 q 656 -174 679 -143 q 632 -239 632 -204 q 656 -304 632 -274 q 715 -351 679 -335 z "},"U":{"ha":1690,"x_min":56,"x_max":1683,"o":"m 906 -31 q 607 -13 725 -31 q 419 34 489 4 q 314 100 349 64 q 269 174 279 136 q 258 246 258 213 l 258 693 q 215 810 258 776 q 108 843 171 843 l 56 843 l 56 903 l 974 903 l 974 843 l 951 843 q 845 810 889 843 q 801 693 801 776 l 801 232 q 838 89 801 135 q 961 43 874 43 q 1142 59 1072 43 q 1249 103 1211 75 q 1301 166 1286 131 q 1315 242 1315 201 l 1315 571 q 1287 715 1315 661 q 1215 797 1258 769 q 1128 834 1172 825 q 1051 843 1083 843 l 1051 903 l 1683 903 l 1683 843 q 1583 834 1632 843 q 1493 797 1533 825 q 1429 715 1453 769 q 1406 571 1406 661 l 1406 306 q 1399 205 1406 254 q 1369 113 1393 156 q 1291 38 1344 71 q 1144 -12 1238 6 q 906 -31 1050 -31 m 443 122 l 443 843 l 353 843 q 353 803 353 843 q 353 699 353 763 q 353 560 353 635 q 353 414 353 485 q 353 292 353 343 q 366 193 353 228 q 396 143 379 158 q 427 125 413 128 q 443 122 442 122 z "},"Ú":{"ha":1690,"x_min":56,"x_max":1683,"o":"m 906 -31 q 607 -13 725 -31 q 419 34 489 4 q 314 100 349 64 q 269 174 279 136 q 258 246 258 213 l 258 693 q 215 810 258 776 q 108 843 171 843 l 56 843 l 56 903 l 974 903 l 974 843 l 951 843 q 845 810 889 843 q 801 693 801 776 l 801 232 q 838 89 801 135 q 961 43 874 43 q 1142 59 1072 43 q 1249 103 1211 75 q 1301 166 1286 131 q 1315 242 1315 201 l 1315 571 q 1287 715 1315 661 q 1215 797 1258 769 q 1128 834 1172 825 q 1051 843 1083 843 l 1051 903 l 1683 903 l 1683 843 q 1583 834 1632 843 q 1493 797 1533 825 q 1429 715 1453 769 q 1406 571 1406 661 l 1406 306 q 1399 205 1406 254 q 1369 113 1393 156 q 1291 38 1344 71 q 1144 -12 1238 6 q 906 -31 1050 -31 m 443 122 l 443 843 l 353 843 q 353 803 353 843 q 353 699 353 763 q 353 560 353 635 q 353 414 353 485 q 353 292 353 343 q 366 193 353 228 q 396 143 379 158 q 427 125 413 128 q 443 122 442 122 m 535 994 l 535 1044 q 710 1063 643 1044 q 818 1115 776 1081 q 894 1197 860 1149 l 1299 1197 q 1290 1176 1299 1197 q 1260 1124 1282 1154 q 1199 1064 1239 1093 q 1093 1019 1158 1035 q 990 1005 1053 1010 q 856 998 926 1000 q 721 995 786 996 q 610 994 656 994 l 535 994 m 810 1049 q 928 1072 882 1053 q 1001 1117 975 1092 q 1039 1158 1028 1142 l 950 1158 q 913 1112 938 1133 q 859 1076 888 1090 q 810 1054 831 1061 l 810 1049 z "},"Ŭ":{"ha":1690,"x_min":56,"x_max":1683,"o":"m 906 -31 q 607 -13 725 -31 q 419 34 489 4 q 314 100 349 64 q 269 174 279 136 q 258 246 258 213 l 258 693 q 215 810 258 776 q 108 843 171 843 l 56 843 l 56 903 l 974 903 l 974 843 l 951 843 q 845 810 889 843 q 801 693 801 776 l 801 232 q 838 89 801 135 q 961 43 874 43 q 1142 59 1072 43 q 1249 103 1211 75 q 1301 166 1286 131 q 1315 242 1315 201 l 1315 571 q 1287 715 1315 661 q 1215 797 1258 769 q 1128 834 1172 825 q 1051 843 1083 843 l 1051 903 l 1683 903 l 1683 843 q 1583 834 1632 843 q 1493 797 1533 825 q 1429 715 1453 769 q 1406 571 1406 661 l 1406 306 q 1399 205 1406 254 q 1369 113 1393 156 q 1291 38 1344 71 q 1144 -12 1238 6 q 906 -31 1050 -31 m 443 122 l 443 843 l 353 843 q 353 803 353 843 q 353 699 353 763 q 353 560 353 635 q 353 414 353 485 q 353 292 353 343 q 366 193 353 228 q 396 143 379 158 q 427 125 413 128 q 443 122 442 122 m 918 949 q 782 984 844 949 q 683 1080 719 1019 q 646 1213 646 1140 l 675 1221 q 776 1161 718 1186 q 918 1136 833 1136 q 1061 1161 1004 1136 q 1160 1221 1118 1186 l 1188 1213 q 1151 1080 1188 1140 q 1055 984 1115 1019 q 918 949 994 949 m 918 993 q 1031 1023 979 993 q 1111 1103 1083 1053 l 1104 1107 q 1023 1065 1071 1082 q 918 1049 975 1049 q 816 1065 865 1049 q 733 1107 767 1082 l 726 1103 q 806 1023 754 1053 q 918 993 858 993 z "},"Û":{"ha":1690,"x_min":56,"x_max":1683,"o":"m 906 -31 q 607 -13 725 -31 q 419 34 489 4 q 314 100 349 64 q 269 174 279 136 q 258 246 258 213 l 258 693 q 215 810 258 776 q 108 843 171 843 l 56 843 l 56 903 l 974 903 l 974 843 l 951 843 q 845 810 889 843 q 801 693 801 776 l 801 232 q 838 89 801 135 q 961 43 874 43 q 1142 59 1072 43 q 1249 103 1211 75 q 1301 166 1286 131 q 1315 242 1315 201 l 1315 571 q 1287 715 1315 661 q 1215 797 1258 769 q 1128 834 1172 825 q 1051 843 1083 843 l 1051 903 l 1683 903 l 1683 843 q 1583 834 1632 843 q 1493 797 1533 825 q 1429 715 1453 769 q 1406 571 1406 661 l 1406 306 q 1399 205 1406 254 q 1369 113 1393 156 q 1291 38 1344 71 q 1144 -12 1238 6 q 906 -31 1050 -31 m 443 122 l 443 843 l 353 843 q 353 803 353 843 q 353 699 353 763 q 353 560 353 635 q 353 414 353 485 q 353 292 353 343 q 366 193 353 228 q 396 143 379 158 q 427 125 413 128 q 443 122 442 122 m 506 994 l 692 1197 l 1142 1197 l 1326 994 l 1206 994 l 1063 1150 l 918 994 l 506 994 m 660 1047 l 746 1047 l 850 1163 l 764 1163 l 660 1047 z "},"Ü":{"ha":1690,"x_min":56,"x_max":1683,"o":"m 906 -31 q 607 -13 725 -31 q 419 34 489 4 q 314 100 349 64 q 269 174 279 136 q 258 246 258 213 l 258 693 q 215 810 258 776 q 108 843 171 843 l 56 843 l 56 903 l 974 903 l 974 843 l 951 843 q 845 810 889 843 q 801 693 801 776 l 801 232 q 838 89 801 135 q 961 43 874 43 q 1142 59 1072 43 q 1249 103 1211 75 q 1301 166 1286 131 q 1315 242 1315 201 l 1315 571 q 1287 715 1315 661 q 1215 797 1258 769 q 1128 834 1172 825 q 1051 843 1083 843 l 1051 903 l 1683 903 l 1683 843 q 1583 834 1632 843 q 1493 797 1533 825 q 1429 715 1453 769 q 1406 571 1406 661 l 1406 306 q 1399 205 1406 254 q 1369 113 1393 156 q 1291 38 1344 71 q 1144 -12 1238 6 q 906 -31 1050 -31 m 443 122 l 443 843 l 353 843 q 353 803 353 843 q 353 699 353 763 q 353 560 353 635 q 353 414 353 485 q 353 292 353 343 q 366 193 353 228 q 396 143 379 158 q 427 125 413 128 q 443 122 442 122 m 1232 951 q 1138 972 1181 951 q 1069 1029 1094 993 q 1043 1108 1043 1065 q 1069 1189 1043 1153 q 1138 1247 1094 1225 q 1232 1268 1181 1268 q 1329 1247 1286 1268 q 1398 1189 1372 1225 q 1424 1108 1424 1153 q 1398 1029 1424 1065 q 1329 972 1372 993 q 1232 951 1286 951 m 599 951 q 504 972 547 951 q 435 1029 461 993 q 410 1108 410 1065 q 435 1189 410 1153 q 504 1247 461 1225 q 599 1268 547 1268 q 696 1247 653 1268 q 765 1189 739 1225 q 790 1108 790 1153 q 765 1029 790 1065 q 696 972 739 993 q 599 951 653 951 m 557 983 l 561 988 q 530 1040 542 1010 q 518 1108 518 1071 q 530 1176 518 1146 q 561 1229 542 1207 l 557 1233 q 488 1182 515 1215 q 461 1108 461 1149 q 488 1035 461 1069 q 557 983 515 1001 m 1190 983 l 1194 988 q 1163 1040 1175 1010 q 1151 1108 1151 1071 q 1163 1176 1151 1146 q 1194 1229 1175 1207 l 1190 1233 q 1122 1182 1149 1215 q 1094 1108 1094 1149 q 1122 1035 1094 1069 q 1190 983 1149 1001 z "},"Ù":{"ha":1690,"x_min":56,"x_max":1683,"o":"m 906 -31 q 607 -13 725 -31 q 419 34 489 4 q 314 100 349 64 q 269 174 279 136 q 258 246 258 213 l 258 693 q 215 810 258 776 q 108 843 171 843 l 56 843 l 56 903 l 974 903 l 974 843 l 951 843 q 845 810 889 843 q 801 693 801 776 l 801 232 q 838 89 801 135 q 961 43 874 43 q 1142 59 1072 43 q 1249 103 1211 75 q 1301 166 1286 131 q 1315 242 1315 201 l 1315 571 q 1287 715 1315 661 q 1215 797 1258 769 q 1128 834 1172 825 q 1051 843 1083 843 l 1051 903 l 1683 903 l 1683 843 q 1583 834 1632 843 q 1493 797 1533 825 q 1429 715 1453 769 q 1406 571 1406 661 l 1406 306 q 1399 205 1406 254 q 1369 113 1393 156 q 1291 38 1344 71 q 1144 -12 1238 6 q 906 -31 1050 -31 m 443 122 l 443 843 l 353 843 q 353 803 353 843 q 353 699 353 763 q 353 560 353 635 q 353 414 353 485 q 353 292 353 343 q 366 193 353 228 q 396 143 379 158 q 427 125 413 128 q 443 122 442 122 m 1224 994 q 1113 995 1178 994 q 977 998 1047 996 q 844 1005 907 1000 q 740 1019 781 1010 q 635 1064 676 1035 q 573 1124 594 1093 q 543 1176 551 1154 q 535 1197 535 1197 l 939 1197 q 1015 1115 974 1149 q 1124 1063 1057 1081 q 1299 1044 1190 1044 l 1299 994 l 1224 994 m 865 1049 l 865 1054 q 816 1076 844 1061 q 763 1112 788 1090 q 725 1158 738 1133 l 636 1158 q 674 1117 649 1142 q 747 1072 700 1092 q 865 1049 793 1053 z "},"Ű":{"ha":1690,"x_min":56,"x_max":1683,"o":"m 906 -31 q 607 -13 725 -31 q 419 34 489 4 q 314 100 349 64 q 269 174 279 136 q 258 246 258 213 l 258 693 q 215 810 258 776 q 108 843 171 843 l 56 843 l 56 903 l 974 903 l 974 843 l 951 843 q 845 810 889 843 q 801 693 801 776 l 801 232 q 838 89 801 135 q 961 43 874 43 q 1142 59 1072 43 q 1249 103 1211 75 q 1301 166 1286 131 q 1315 242 1315 201 l 1315 571 q 1287 715 1315 661 q 1215 797 1258 769 q 1128 834 1172 825 q 1051 843 1083 843 l 1051 903 l 1683 903 l 1683 843 q 1583 834 1632 843 q 1493 797 1533 825 q 1429 715 1453 769 q 1406 571 1406 661 l 1406 306 q 1399 205 1406 254 q 1369 113 1393 156 q 1291 38 1344 71 q 1144 -12 1238 6 q 906 -31 1050 -31 m 443 122 l 443 843 l 353 843 q 353 803 353 843 q 353 699 353 763 q 353 560 353 635 q 353 414 353 485 q 353 292 353 343 q 366 193 353 228 q 396 143 379 158 q 427 125 413 128 q 443 122 442 122 m 950 994 l 950 1044 q 1069 1063 1021 1044 q 1150 1115 1117 1081 q 1213 1197 1183 1149 l 1547 1197 q 1540 1176 1547 1197 q 1510 1124 1532 1154 q 1449 1065 1489 1093 q 1347 1019 1410 1036 q 1230 1003 1299 1008 q 1092 996 1161 997 q 971 994 1022 994 l 950 994 m 396 994 l 396 1044 q 515 1063 467 1044 q 596 1115 563 1081 q 658 1197 629 1149 l 993 1197 q 985 1176 993 1197 q 956 1124 978 1154 q 895 1065 935 1093 q 793 1019 856 1036 q 676 1003 744 1008 q 538 996 607 997 q 417 994 468 994 l 396 994 m 574 1049 q 692 1072 646 1053 q 765 1117 739 1092 q 803 1158 792 1142 l 714 1158 q 676 1112 701 1133 q 623 1076 651 1090 q 574 1054 594 1061 l 574 1049 m 1128 1049 q 1247 1072 1200 1053 q 1319 1117 1293 1092 q 1357 1158 1346 1142 l 1268 1158 q 1230 1112 1256 1133 q 1176 1076 1204 1090 q 1128 1054 1149 1061 l 1128 1049 z "},"Ū":{"ha":1690,"x_min":56,"x_max":1683,"o":"m 906 -31 q 607 -13 725 -31 q 419 34 489 4 q 314 100 349 64 q 269 174 279 136 q 258 246 258 213 l 258 693 q 215 810 258 776 q 108 843 171 843 l 56 843 l 56 903 l 974 903 l 974 843 l 951 843 q 845 810 889 843 q 801 693 801 776 l 801 232 q 838 89 801 135 q 961 43 874 43 q 1142 59 1072 43 q 1249 103 1211 75 q 1301 166 1286 131 q 1315 242 1315 201 l 1315 571 q 1287 715 1315 661 q 1215 797 1258 769 q 1128 834 1172 825 q 1051 843 1083 843 l 1051 903 l 1683 903 l 1683 843 q 1583 834 1632 843 q 1493 797 1533 825 q 1429 715 1453 769 q 1406 571 1406 661 l 1406 306 q 1399 205 1406 254 q 1369 113 1393 156 q 1291 38 1344 71 q 1144 -12 1238 6 q 906 -31 1050 -31 m 443 122 l 443 843 l 353 843 q 353 803 353 843 q 353 699 353 763 q 353 560 353 635 q 353 414 353 485 q 353 292 353 343 q 366 193 353 228 q 396 143 379 158 q 427 125 413 128 q 443 122 442 122 m 635 1003 l 635 1189 l 1197 1189 l 1197 1003 l 635 1003 m 719 1031 l 794 1031 l 794 1161 l 719 1161 l 719 1031 z "},"Ų":{"ha":1690,"x_min":56,"x_max":1683,"o":"m 906 -31 q 607 -13 725 -31 q 419 34 489 4 q 314 100 349 64 q 269 174 279 136 q 258 246 258 213 l 258 693 q 215 810 258 776 q 108 843 171 843 l 56 843 l 56 903 l 974 903 l 974 843 l 951 843 q 845 810 889 843 q 801 693 801 776 l 801 232 q 838 89 801 135 q 961 43 874 43 q 1142 59 1072 43 q 1249 103 1211 75 q 1301 166 1286 131 q 1315 242 1315 201 l 1315 571 q 1287 715 1315 661 q 1215 797 1258 769 q 1128 834 1172 825 q 1051 843 1083 843 l 1051 903 l 1683 903 l 1683 843 q 1583 834 1632 843 q 1493 797 1533 825 q 1429 715 1453 769 q 1406 571 1406 661 l 1406 306 q 1399 205 1406 254 q 1369 113 1393 156 q 1291 38 1344 71 q 1144 -12 1238 6 q 906 -31 1050 -31 m 443 122 l 443 843 l 353 843 q 353 803 353 843 q 353 699 353 763 q 353 560 353 635 q 353 414 353 485 q 353 292 353 343 q 366 193 353 228 q 396 143 379 158 q 427 125 413 128 q 443 122 442 122 m 928 -311 q 815 -307 872 -311 q 710 -290 757 -303 q 633 -252 663 -276 q 604 -186 604 -228 q 644 -97 604 -135 q 753 -32 685 -58 q 905 10 821 -6 q 1078 31 989 25 l 1078 8 q 941 -48 986 -6 q 896 -147 896 -90 q 928 -222 896 -199 q 1004 -244 960 -244 q 1081 -226 1042 -244 q 1151 -178 1119 -208 q 1197 -111 1183 -147 l 1251 -111 l 1251 -262 q 1113 -297 1199 -282 q 928 -311 1026 -311 m 801 -279 l 804 -272 q 752 -228 775 -260 q 729 -165 729 -196 q 792 -61 729 -97 l 788 -54 q 697 -101 733 -71 q 660 -172 660 -131 q 697 -241 660 -211 q 801 -279 733 -271 z "},"Ů":{"ha":1690,"x_min":56,"x_max":1683,"o":"m 906 -31 q 607 -13 725 -31 q 419 34 489 4 q 314 100 349 64 q 269 174 279 136 q 258 246 258 213 l 258 693 q 215 810 258 776 q 108 843 171 843 l 56 843 l 56 903 l 974 903 l 974 843 l 951 843 q 845 810 889 843 q 801 693 801 776 l 801 232 q 838 89 801 135 q 961 43 874 43 q 1142 59 1072 43 q 1249 103 1211 75 q 1301 166 1286 131 q 1315 242 1315 201 l 1315 571 q 1287 715 1315 661 q 1215 797 1258 769 q 1128 834 1172 825 q 1051 843 1083 843 l 1051 903 l 1683 903 l 1683 843 q 1583 834 1632 843 q 1493 797 1533 825 q 1429 715 1453 769 q 1406 571 1406 661 l 1406 306 q 1399 205 1406 254 q 1369 113 1393 156 q 1291 38 1344 71 q 1144 -12 1238 6 q 906 -31 1050 -31 m 443 122 l 443 843 l 353 843 q 353 803 353 843 q 353 699 353 763 q 353 560 353 635 q 353 414 353 485 q 353 292 353 343 q 366 193 353 228 q 396 143 379 158 q 427 125 413 128 q 443 122 442 122 m 915 928 q 806 952 856 928 q 727 1017 757 976 q 697 1108 697 1058 q 727 1200 697 1158 q 806 1267 757 1242 q 915 1292 856 1292 q 1026 1267 976 1292 q 1106 1200 1076 1242 q 1136 1108 1136 1158 q 1106 1017 1136 1058 q 1026 952 1076 976 q 915 928 976 928 m 915 971 q 963 1011 943 971 q 982 1108 982 1051 q 963 1206 982 1165 q 915 1246 943 1246 q 869 1206 889 1246 q 849 1108 849 1165 q 869 1011 849 1051 q 915 971 889 971 m 836 979 l 840 983 q 809 1039 821 1007 q 797 1108 797 1071 q 840 1233 797 1183 l 836 1238 q 768 1184 794 1219 q 742 1108 742 1149 q 768 1034 742 1069 q 836 979 794 999 z "},"Ũ":{"ha":1690,"x_min":56,"x_max":1683,"o":"m 906 -31 q 607 -13 725 -31 q 419 34 489 4 q 314 100 349 64 q 269 174 279 136 q 258 246 258 213 l 258 693 q 215 810 258 776 q 108 843 171 843 l 56 843 l 56 903 l 974 903 l 974 843 l 951 843 q 845 810 889 843 q 801 693 801 776 l 801 232 q 838 89 801 135 q 961 43 874 43 q 1142 59 1072 43 q 1249 103 1211 75 q 1301 166 1286 131 q 1315 242 1315 201 l 1315 571 q 1287 715 1315 661 q 1215 797 1258 769 q 1128 834 1172 825 q 1051 843 1083 843 l 1051 903 l 1683 903 l 1683 843 q 1583 834 1632 843 q 1493 797 1533 825 q 1429 715 1453 769 q 1406 571 1406 661 l 1406 306 q 1399 205 1406 254 q 1369 113 1393 156 q 1291 38 1344 71 q 1144 -12 1238 6 q 906 -31 1050 -31 m 443 122 l 443 843 l 353 843 q 353 803 353 843 q 353 699 353 763 q 353 560 353 635 q 353 414 353 485 q 353 292 353 343 q 366 193 353 228 q 396 143 379 158 q 427 125 413 128 q 443 122 442 122 m 1067 979 q 926 990 985 979 q 819 1013 868 1000 q 718 1037 769 1026 q 599 1047 667 1047 q 545 1033 568 1047 q 513 996 522 1019 l 474 996 q 497 1060 476 1022 q 556 1134 517 1097 q 653 1196 594 1171 q 788 1221 711 1221 q 920 1213 865 1221 q 1019 1196 975 1206 q 1107 1178 1064 1186 q 1206 1171 1150 1171 q 1276 1184 1251 1171 q 1314 1219 1300 1197 l 1360 1219 q 1338 1151 1357 1192 q 1283 1072 1319 1111 q 1193 1006 1247 1032 q 1067 979 1139 979 m 1076 1026 q 1176 1044 1125 1026 q 1261 1090 1226 1061 l 1258 1096 q 1188 1081 1229 1086 q 1115 1075 1146 1075 q 978 1084 1035 1075 q 876 1106 921 1093 q 786 1127 831 1118 q 685 1136 742 1136 q 619 1124 646 1136 q 574 1094 593 1111 l 578 1089 q 608 1094 593 1092 q 636 1096 622 1096 q 759 1078 694 1096 q 901 1044 824 1061 q 1076 1026 979 1026 z "},"V":{"ha":1749,"x_min":-19,"x_max":1768,"o":"m 858 -32 l 74 843 l -19 843 l -19 903 l 958 903 l 958 843 l 919 843 q 854 813 876 843 q 832 740 832 782 q 844 680 832 711 q 881 625 857 649 l 1140 361 l 1321 558 q 1353 607 1343 582 q 1363 658 1363 632 q 1332 747 1363 706 q 1247 816 1301 789 q 1118 843 1192 843 l 1049 843 l 1049 903 l 1768 903 l 1768 843 l 1697 843 l 908 -32 l 858 -32 m 882 29 l 943 96 l 274 843 l 153 843 l 882 29 z "},"W":{"ha":2817,"x_min":-19,"x_max":2835,"o":"m 858 -32 l 74 843 l -19 843 l -19 903 l 958 903 l 958 843 l 919 843 q 854 813 876 843 q 832 740 832 782 q 844 680 832 711 q 881 625 857 649 l 1140 361 l 1358 601 l 1142 843 l 1049 843 l 1049 903 l 2026 903 l 2026 843 l 1989 843 q 1924 813 1946 843 q 1901 740 1901 782 q 1914 680 1901 711 q 1950 625 1926 649 l 2207 361 l 2389 558 q 2421 607 2411 582 q 2431 658 2431 632 q 2400 748 2431 706 q 2314 817 2369 790 q 2185 843 2258 843 l 2117 843 l 2117 903 l 2835 903 l 2835 843 l 2767 843 l 1976 -32 l 1926 -32 l 1418 532 l 908 -32 l 858 -32 m 883 29 l 943 96 l 274 843 l 153 843 l 883 29 m 1951 29 l 2011 96 l 1342 843 l 1219 843 l 1951 29 z "},"Ẃ":{"ha":2817,"x_min":-19,"x_max":2835,"o":"m 858 -32 l 74 843 l -19 843 l -19 903 l 958 903 l 958 843 l 919 843 q 854 813 876 843 q 832 740 832 782 q 844 680 832 711 q 881 625 857 649 l 1140 361 l 1358 601 l 1142 843 l 1049 843 l 1049 903 l 2026 903 l 2026 843 l 1989 843 q 1924 813 1946 843 q 1901 740 1901 782 q 1914 680 1901 711 q 1950 625 1926 649 l 2207 361 l 2389 558 q 2421 607 2411 582 q 2431 658 2431 632 q 2400 748 2431 706 q 2314 817 2369 790 q 2185 843 2258 843 l 2117 843 l 2117 903 l 2835 903 l 2835 843 l 2767 843 l 1976 -32 l 1926 -32 l 1418 532 l 908 -32 l 858 -32 m 883 29 l 943 96 l 274 843 l 153 843 l 883 29 m 1951 29 l 2011 96 l 1342 843 l 1219 843 l 1951 29 m 1167 994 l 1167 1044 q 1342 1063 1275 1044 q 1450 1115 1408 1081 q 1526 1197 1492 1149 l 1931 1197 q 1922 1176 1931 1197 q 1892 1124 1914 1154 q 1831 1064 1871 1093 q 1725 1019 1790 1035 q 1622 1005 1685 1010 q 1488 998 1558 1000 q 1353 995 1418 996 q 1242 994 1288 994 l 1167 994 m 1442 1049 q 1560 1072 1514 1053 q 1633 1117 1607 1092 q 1671 1158 1660 1142 l 1582 1158 q 1544 1112 1569 1133 q 1491 1076 1519 1090 q 1442 1054 1463 1061 l 1442 1049 z "},"Ŵ":{"ha":2817,"x_min":-19,"x_max":2835,"o":"m 858 -32 l 74 843 l -19 843 l -19 903 l 958 903 l 958 843 l 919 843 q 854 813 876 843 q 832 740 832 782 q 844 680 832 711 q 881 625 857 649 l 1140 361 l 1358 601 l 1142 843 l 1049 843 l 1049 903 l 2026 903 l 2026 843 l 1989 843 q 1924 813 1946 843 q 1901 740 1901 782 q 1914 680 1901 711 q 1950 625 1926 649 l 2207 361 l 2389 558 q 2421 607 2411 582 q 2431 658 2431 632 q 2400 748 2431 706 q 2314 817 2369 790 q 2185 843 2258 843 l 2117 843 l 2117 903 l 2835 903 l 2835 843 l 2767 843 l 1976 -32 l 1926 -32 l 1418 532 l 908 -32 l 858 -32 m 883 29 l 943 96 l 274 843 l 153 843 l 883 29 m 1951 29 l 2011 96 l 1342 843 l 1219 843 l 1951 29 m 1138 994 l 1324 1197 l 1774 1197 l 1958 994 l 1838 994 l 1694 1150 l 1550 994 l 1138 994 m 1292 1047 l 1378 1047 l 1482 1163 l 1396 1163 l 1292 1047 z "},"Ẅ":{"ha":2817,"x_min":-19,"x_max":2835,"o":"m 858 -32 l 74 843 l -19 843 l -19 903 l 958 903 l 958 843 l 919 843 q 854 813 876 843 q 832 740 832 782 q 844 680 832 711 q 881 625 857 649 l 1140 361 l 1358 601 l 1142 843 l 1049 843 l 1049 903 l 2026 903 l 2026 843 l 1989 843 q 1924 813 1946 843 q 1901 740 1901 782 q 1914 680 1901 711 q 1950 625 1926 649 l 2207 361 l 2389 558 q 2421 607 2411 582 q 2431 658 2431 632 q 2400 748 2431 706 q 2314 817 2369 790 q 2185 843 2258 843 l 2117 843 l 2117 903 l 2835 903 l 2835 843 l 2767 843 l 1976 -32 l 1926 -32 l 1418 532 l 908 -32 l 858 -32 m 883 29 l 943 96 l 274 843 l 153 843 l 883 29 m 1951 29 l 2011 96 l 1342 843 l 1219 843 l 1951 29 m 1864 951 q 1769 972 1813 951 q 1701 1029 1726 993 q 1675 1108 1675 1065 q 1701 1189 1675 1153 q 1769 1247 1726 1225 q 1864 1268 1813 1268 q 1961 1247 1918 1268 q 2030 1189 2004 1225 q 2056 1108 2056 1153 q 2030 1029 2056 1065 q 1961 972 2004 993 q 1864 951 1918 951 m 1231 951 q 1136 972 1179 951 q 1067 1029 1093 993 q 1042 1108 1042 1065 q 1067 1189 1042 1153 q 1136 1247 1093 1225 q 1231 1268 1179 1268 q 1328 1247 1285 1268 q 1397 1189 1371 1225 q 1422 1108 1422 1153 q 1397 1029 1422 1065 q 1328 972 1371 993 q 1231 951 1285 951 m 1189 983 l 1193 988 q 1162 1040 1174 1010 q 1150 1108 1150 1071 q 1162 1176 1150 1146 q 1193 1229 1174 1207 l 1189 1233 q 1120 1182 1147 1215 q 1093 1108 1093 1149 q 1120 1035 1093 1069 q 1189 983 1147 1001 m 1822 983 l 1826 988 q 1795 1040 1807 1010 q 1783 1108 1783 1071 q 1795 1176 1783 1146 q 1826 1229 1807 1207 l 1822 1233 q 1753 1182 1781 1215 q 1726 1108 1726 1149 q 1753 1035 1726 1069 q 1822 983 1781 1001 z "},"Ẁ":{"ha":2817,"x_min":-19,"x_max":2835,"o":"m 858 -32 l 74 843 l -19 843 l -19 903 l 958 903 l 958 843 l 919 843 q 854 813 876 843 q 832 740 832 782 q 844 680 832 711 q 881 625 857 649 l 1140 361 l 1358 601 l 1142 843 l 1049 843 l 1049 903 l 2026 903 l 2026 843 l 1989 843 q 1924 813 1946 843 q 1901 740 1901 782 q 1914 680 1901 711 q 1950 625 1926 649 l 2207 361 l 2389 558 q 2421 607 2411 582 q 2431 658 2431 632 q 2400 748 2431 706 q 2314 817 2369 790 q 2185 843 2258 843 l 2117 843 l 2117 903 l 2835 903 l 2835 843 l 2767 843 l 1976 -32 l 1926 -32 l 1418 532 l 908 -32 l 858 -32 m 883 29 l 943 96 l 274 843 l 153 843 l 883 29 m 1951 29 l 2011 96 l 1342 843 l 1219 843 l 1951 29 m 1856 994 q 1744 995 1810 994 q 1609 998 1679 996 q 1476 1005 1539 1000 q 1372 1019 1413 1010 q 1267 1064 1308 1035 q 1205 1124 1226 1093 q 1175 1176 1183 1154 q 1167 1197 1167 1197 l 1571 1197 q 1647 1115 1606 1149 q 1756 1063 1689 1081 q 1931 1044 1822 1044 l 1931 994 l 1856 994 m 1497 1049 l 1497 1054 q 1448 1076 1476 1061 q 1394 1112 1419 1090 q 1357 1158 1369 1133 l 1268 1158 q 1306 1117 1281 1142 q 1378 1072 1332 1092 q 1497 1049 1425 1053 z "},"X":{"ha":1907,"x_min":18,"x_max":1889,"o":"m 18 0 l 18 60 l 65 60 q 183 80 124 60 q 292 126 243 100 q 365 168 340 153 l 743 411 l 472 690 q 378 767 432 732 q 269 822 324 801 q 174 843 215 843 l 89 843 l 89 903 l 1043 903 l 1043 843 l 1018 843 q 970 829 986 843 q 954 794 954 815 q 1014 690 954 750 l 1118 583 l 1157 610 q 1251 692 1225 656 q 1278 758 1278 729 q 1253 820 1278 797 q 1194 843 1229 843 l 1168 843 l 1168 901 l 1843 901 l 1843 843 l 1797 843 q 1679 822 1739 843 q 1572 773 1619 800 q 1499 729 1524 746 l 1179 522 l 1482 210 q 1640 93 1564 126 q 1781 60 1717 60 l 1889 60 l 1889 0 l 881 0 l 881 60 l 936 60 q 990 69 969 60 q 1010 100 1010 79 q 993 144 1010 118 q 940 210 976 171 l 801 353 l 706 290 q 611 208 638 246 q 585 142 585 171 q 609 81 585 103 q 668 60 633 60 l 800 60 l 800 0 l 18 0 m 1181 60 l 1269 60 l 508 843 l 418 843 l 1181 60 z "},"Y":{"ha":1818,"x_min":-19,"x_max":1838,"o":"m 274 0 l 274 60 l 443 60 q 549 94 506 60 q 593 210 593 128 l 593 375 l 121 843 l -19 843 l -19 903 l 1021 903 l 1021 843 l 982 843 q 933 825 951 843 q 915 779 915 807 q 925 736 915 760 q 957 692 935 713 l 1136 514 l 1218 581 q 1293 663 1268 621 q 1318 742 1318 706 q 1283 814 1318 785 q 1181 843 1247 843 l 1111 843 l 1111 903 l 1838 903 l 1838 843 l 1746 843 l 1136 404 l 1136 210 q 1181 94 1136 128 q 1288 60 1225 60 l 1456 60 l 1456 0 l 274 0 m 688 60 l 778 60 l 778 425 l 354 843 l 244 843 l 688 406 l 688 60 z "},"Ý":{"ha":1818,"x_min":-19,"x_max":1838,"o":"m 274 0 l 274 60 l 443 60 q 549 94 506 60 q 593 210 593 128 l 593 375 l 121 843 l -19 843 l -19 903 l 1021 903 l 1021 843 l 982 843 q 933 825 951 843 q 915 779 915 807 q 925 736 915 760 q 957 692 935 713 l 1136 514 l 1218 581 q 1293 663 1268 621 q 1318 742 1318 706 q 1283 814 1318 785 q 1181 843 1247 843 l 1111 843 l 1111 903 l 1838 903 l 1838 843 l 1746 843 l 1136 404 l 1136 210 q 1181 94 1136 128 q 1288 60 1225 60 l 1456 60 l 1456 0 l 274 0 m 688 60 l 778 60 l 778 425 l 354 843 l 244 843 l 688 406 l 688 60 m 528 994 l 528 1044 q 703 1063 636 1044 q 811 1115 769 1081 q 888 1197 853 1149 l 1292 1197 q 1283 1176 1292 1197 q 1253 1124 1275 1154 q 1192 1064 1232 1093 q 1086 1019 1151 1035 q 983 1005 1046 1010 q 849 998 919 1000 q 714 995 779 996 q 603 994 649 994 l 528 994 m 803 1049 q 922 1072 875 1053 q 994 1117 968 1092 q 1032 1158 1021 1142 l 943 1158 q 906 1112 931 1133 q 852 1076 881 1090 q 803 1054 824 1061 l 803 1049 z "},"Ŷ":{"ha":1818,"x_min":-19,"x_max":1838,"o":"m 274 0 l 274 60 l 443 60 q 549 94 506 60 q 593 210 593 128 l 593 375 l 121 843 l -19 843 l -19 903 l 1021 903 l 1021 843 l 982 843 q 933 825 951 843 q 915 779 915 807 q 925 736 915 760 q 957 692 935 713 l 1136 514 l 1218 581 q 1293 663 1268 621 q 1318 742 1318 706 q 1283 814 1318 785 q 1181 843 1247 843 l 1111 843 l 1111 903 l 1838 903 l 1838 843 l 1746 843 l 1136 404 l 1136 210 q 1181 94 1136 128 q 1288 60 1225 60 l 1456 60 l 1456 0 l 274 0 m 688 60 l 778 60 l 778 425 l 354 843 l 244 843 l 688 406 l 688 60 m 499 994 l 685 1197 l 1135 1197 l 1319 994 l 1199 994 l 1056 1150 l 911 994 l 499 994 m 653 1047 l 739 1047 l 843 1163 l 757 1163 l 653 1047 z "},"Ÿ":{"ha":1818,"x_min":-19,"x_max":1838,"o":"m 274 0 l 274 60 l 443 60 q 549 94 506 60 q 593 210 593 128 l 593 375 l 121 843 l -19 843 l -19 903 l 1021 903 l 1021 843 l 982 843 q 933 825 951 843 q 915 779 915 807 q 925 736 915 760 q 957 692 935 713 l 1136 514 l 1218 581 q 1293 663 1268 621 q 1318 742 1318 706 q 1283 814 1318 785 q 1181 843 1247 843 l 1111 843 l 1111 903 l 1838 903 l 1838 843 l 1746 843 l 1136 404 l 1136 210 q 1181 94 1136 128 q 1288 60 1225 60 l 1456 60 l 1456 0 l 274 0 m 688 60 l 778 60 l 778 425 l 354 843 l 244 843 l 688 406 l 688 60 m 1225 951 q 1131 972 1174 951 q 1062 1029 1088 993 q 1036 1108 1036 1065 q 1062 1189 1036 1153 q 1131 1247 1088 1225 q 1225 1268 1174 1268 q 1322 1247 1279 1268 q 1391 1189 1365 1225 q 1417 1108 1417 1153 q 1391 1029 1417 1065 q 1322 972 1365 993 q 1225 951 1279 951 m 592 951 q 497 972 540 951 q 428 1029 454 993 q 403 1108 403 1065 q 428 1189 403 1153 q 497 1247 454 1225 q 592 1268 540 1268 q 689 1247 646 1268 q 758 1189 732 1225 q 783 1108 783 1153 q 758 1029 783 1065 q 689 972 732 993 q 592 951 646 951 m 550 983 l 554 988 q 523 1040 535 1010 q 511 1108 511 1071 q 523 1176 511 1146 q 554 1229 535 1207 l 550 1233 q 481 1182 508 1215 q 454 1108 454 1149 q 481 1035 454 1069 q 550 983 508 1001 m 1183 983 l 1188 988 q 1156 1040 1168 1010 q 1144 1108 1144 1071 q 1156 1176 1144 1146 q 1188 1229 1168 1207 l 1183 1233 q 1115 1182 1142 1215 q 1088 1108 1088 1149 q 1115 1035 1088 1069 q 1183 983 1142 1001 z "},"Ỳ":{"ha":1818,"x_min":-19,"x_max":1838,"o":"m 274 0 l 274 60 l 443 60 q 549 94 506 60 q 593 210 593 128 l 593 375 l 121 843 l -19 843 l -19 903 l 1021 903 l 1021 843 l 982 843 q 933 825 951 843 q 915 779 915 807 q 925 736 915 760 q 957 692 935 713 l 1136 514 l 1218 581 q 1293 663 1268 621 q 1318 742 1318 706 q 1283 814 1318 785 q 1181 843 1247 843 l 1111 843 l 1111 903 l 1838 903 l 1838 843 l 1746 843 l 1136 404 l 1136 210 q 1181 94 1136 128 q 1288 60 1225 60 l 1456 60 l 1456 0 l 274 0 m 688 60 l 778 60 l 778 425 l 354 843 l 244 843 l 688 406 l 688 60 m 1217 994 q 1106 995 1171 994 q 970 998 1040 996 q 837 1005 900 1000 q 733 1019 774 1010 q 628 1064 669 1035 q 566 1124 588 1093 q 536 1176 544 1154 q 528 1197 528 1197 l 932 1197 q 1008 1115 967 1149 q 1117 1063 1050 1081 q 1292 1044 1183 1044 l 1292 994 l 1217 994 m 858 1049 l 858 1054 q 809 1076 838 1061 q 756 1112 781 1090 q 718 1158 731 1133 l 629 1158 q 667 1117 642 1142 q 740 1072 693 1092 q 858 1049 786 1053 z "},"Z":{"ha":1629,"x_min":75,"x_max":1554,"o":"m 75 0 l 75 60 l 107 60 l 869 843 l 790 843 q 568 817 664 843 q 401 750 472 790 q 279 666 329 710 q 196 589 229 622 l 156 589 l 156 903 l 1554 903 l 1554 843 l 1525 843 l 761 60 l 925 60 q 1147 85 1054 60 q 1306 149 1240 110 q 1417 233 1372 189 q 1493 314 1463 276 l 1533 314 l 1533 0 l 75 0 m 231 60 l 357 60 l 1118 843 l 989 843 l 231 60 z "},"Ź":{"ha":1629,"x_min":75,"x_max":1554,"o":"m 75 0 l 75 60 l 107 60 l 869 843 l 790 843 q 568 817 664 843 q 401 750 472 790 q 279 666 329 710 q 196 589 229 622 l 156 589 l 156 903 l 1554 903 l 1554 843 l 1525 843 l 761 60 l 925 60 q 1147 85 1054 60 q 1306 149 1240 110 q 1417 233 1372 189 q 1493 314 1463 276 l 1533 314 l 1533 0 l 75 0 m 231 60 l 357 60 l 1118 843 l 989 843 l 231 60 m 508 994 l 508 1044 q 683 1063 617 1044 q 792 1115 750 1081 q 868 1197 833 1149 l 1272 1197 q 1264 1176 1272 1197 q 1234 1124 1256 1154 q 1172 1064 1213 1093 q 1067 1019 1132 1035 q 963 1005 1026 1010 q 830 998 900 1000 q 694 995 760 996 q 583 994 629 994 l 508 994 m 783 1049 q 902 1072 856 1053 q 975 1117 949 1092 q 1013 1158 1001 1142 l 924 1158 q 886 1112 911 1133 q 833 1076 861 1090 q 783 1054 804 1061 l 783 1049 z "},"Ž":{"ha":1629,"x_min":75,"x_max":1554,"o":"m 75 0 l 75 60 l 107 60 l 869 843 l 790 843 q 568 817 664 843 q 401 750 472 790 q 279 666 329 710 q 196 589 229 622 l 156 589 l 156 903 l 1554 903 l 1554 843 l 1525 843 l 761 60 l 925 60 q 1147 85 1054 60 q 1306 149 1240 110 q 1417 233 1372 189 q 1493 314 1463 276 l 1533 314 l 1533 0 l 75 0 m 231 60 l 357 60 l 1118 843 l 989 843 l 231 60 m 665 994 l 479 1197 l 892 1197 l 1036 1042 l 1179 1197 l 1300 1197 l 1115 994 l 665 994 m 738 1029 l 824 1029 l 719 1144 l 633 1144 l 738 1029 z "},"Ż":{"ha":1629,"x_min":75,"x_max":1554,"o":"m 75 0 l 75 60 l 107 60 l 869 843 l 790 843 q 568 817 664 843 q 401 750 472 790 q 279 666 329 710 q 196 589 229 622 l 156 589 l 156 903 l 1554 903 l 1554 843 l 1525 843 l 761 60 l 925 60 q 1147 85 1054 60 q 1306 149 1240 110 q 1417 233 1372 189 q 1493 314 1463 276 l 1533 314 l 1533 0 l 75 0 m 231 60 l 357 60 l 1118 843 l 989 843 l 231 60 m 889 951 q 794 972 838 951 q 726 1029 751 993 q 700 1108 700 1065 q 726 1189 700 1153 q 794 1247 751 1225 q 889 1268 838 1268 q 986 1247 943 1268 q 1055 1189 1029 1225 q 1081 1108 1081 1153 q 1055 1029 1081 1065 q 986 972 1029 993 q 889 951 943 951 m 821 996 l 824 1000 q 797 1048 807 1019 q 786 1108 786 1076 q 797 1169 786 1140 q 824 1217 807 1197 l 821 1221 q 761 1174 785 1204 q 738 1108 738 1143 q 761 1043 738 1074 q 821 996 785 1013 z "},"a":{"ha":1614,"x_min":83,"x_max":1572,"o":"m 468 -31 q 243 12 328 -31 q 121 121 158 54 q 83 260 83 188 q 122 395 83 331 q 246 501 161 460 q 468 542 331 542 q 631 540 560 542 q 765 537 703 539 q 888 532 826 535 l 888 536 q 881 594 888 561 q 853 658 875 626 q 788 709 832 689 q 665 729 743 729 q 488 705 574 729 q 337 649 403 681 q 233 590 271 617 l 176 590 l 176 804 l 235 804 q 244 769 238 793 q 254 732 250 744 q 531 789 388 772 q 842 806 674 806 q 1131 788 1017 806 q 1300 724 1244 771 q 1356 588 1356 676 l 1356 183 q 1392 88 1356 115 q 1481 60 1429 60 l 1572 60 l 1572 0 l 888 0 l 888 72 q 681 -3 792 24 q 468 -31 571 -31 m 974 60 l 1044 60 l 1044 568 q 1033 628 1044 596 q 984 690 1021 661 q 872 733 947 718 l 869 724 q 938 678 915 706 q 967 622 960 651 q 974 568 974 593 l 974 60 m 513 11 l 513 19 q 370 55 428 19 q 283 146 313 90 q 254 260 254 201 q 283 370 254 317 q 369 458 311 424 q 514 493 428 493 l 514 501 q 317 466 396 501 q 199 376 238 431 q 160 260 160 321 q 199 140 160 197 q 317 47 239 83 q 513 11 396 11 m 579 288 q 595 210 579 247 q 647 151 611 174 q 738 128 682 128 q 888 157 806 128 l 888 461 q 811 465 849 464 q 739 465 774 465 q 649 438 685 465 q 597 371 614 411 q 579 288 579 331 z "},"á":{"ha":1614,"x_min":83,"x_max":1572,"o":"m 468 -31 q 243 12 328 -31 q 121 121 158 54 q 83 260 83 188 q 122 395 83 331 q 246 501 161 460 q 468 542 331 542 q 631 540 560 542 q 765 537 703 539 q 888 532 826 535 l 888 536 q 881 594 888 561 q 853 658 875 626 q 788 709 832 689 q 665 729 743 729 q 488 705 574 729 q 337 649 403 681 q 233 590 271 617 l 176 590 l 176 804 l 235 804 q 244 769 238 793 q 254 732 250 744 q 531 789 388 772 q 842 806 674 806 q 1131 788 1017 806 q 1300 724 1244 771 q 1356 588 1356 676 l 1356 183 q 1392 88 1356 115 q 1481 60 1429 60 l 1572 60 l 1572 0 l 888 0 l 888 72 q 681 -3 792 24 q 468 -31 571 -31 m 974 60 l 1044 60 l 1044 568 q 1033 628 1044 596 q 984 690 1021 661 q 872 733 947 718 l 869 724 q 938 678 915 706 q 967 622 960 651 q 974 568 974 593 l 974 60 m 513 11 l 513 19 q 370 55 428 19 q 283 146 313 90 q 254 260 254 201 q 283 370 254 317 q 369 458 311 424 q 514 493 428 493 l 514 501 q 317 466 396 501 q 199 376 238 431 q 160 260 160 321 q 199 140 160 197 q 317 47 239 83 q 513 11 396 11 m 579 288 q 595 210 579 247 q 647 151 611 174 q 738 128 682 128 q 888 157 806 128 l 888 461 q 811 465 849 464 q 739 465 774 465 q 649 438 685 465 q 597 371 614 411 q 579 288 579 331 m 425 867 l 425 917 q 600 935 533 917 q 708 987 667 953 q 785 1069 750 1021 l 1189 1069 q 1181 1048 1189 1069 q 1151 996 1172 1026 q 1089 936 1129 965 q 983 892 1049 907 q 880 877 943 882 q 747 870 817 872 q 611 867 676 868 q 500 867 546 867 l 425 867 m 700 921 q 819 944 772 925 q 892 989 865 964 q 929 1031 918 1014 l 840 1031 q 803 984 828 1006 q 749 948 778 963 q 700 926 721 933 l 700 921 z "},"ă":{"ha":1614,"x_min":83,"x_max":1572,"o":"m 468 -31 q 243 12 328 -31 q 121 121 158 54 q 83 260 83 188 q 122 395 83 331 q 246 501 161 460 q 468 542 331 542 q 631 540 560 542 q 765 537 703 539 q 888 532 826 535 l 888 536 q 881 594 888 561 q 853 658 875 626 q 788 709 832 689 q 665 729 743 729 q 488 705 574 729 q 337 649 403 681 q 233 590 271 617 l 176 590 l 176 804 l 235 804 q 244 769 238 793 q 254 732 250 744 q 531 789 388 772 q 842 806 674 806 q 1131 788 1017 806 q 1300 724 1244 771 q 1356 588 1356 676 l 1356 183 q 1392 88 1356 115 q 1481 60 1429 60 l 1572 60 l 1572 0 l 888 0 l 888 72 q 681 -3 792 24 q 468 -31 571 -31 m 974 60 l 1044 60 l 1044 568 q 1033 628 1044 596 q 984 690 1021 661 q 872 733 947 718 l 869 724 q 938 678 915 706 q 967 622 960 651 q 974 568 974 593 l 974 60 m 513 11 l 513 19 q 370 55 428 19 q 283 146 313 90 q 254 260 254 201 q 283 370 254 317 q 369 458 311 424 q 514 493 428 493 l 514 501 q 317 466 396 501 q 199 376 238 431 q 160 260 160 321 q 199 140 160 197 q 317 47 239 83 q 513 11 396 11 m 579 288 q 595 210 579 247 q 647 151 611 174 q 738 128 682 128 q 888 157 806 128 l 888 461 q 811 465 849 464 q 739 465 774 465 q 649 438 685 465 q 597 371 614 411 q 579 288 579 331 m 808 821 q 672 856 735 821 q 573 952 610 892 q 536 1085 536 1013 l 565 1093 q 666 1033 608 1058 q 808 1008 724 1008 q 951 1033 894 1008 q 1050 1093 1008 1058 l 1078 1085 q 1042 952 1078 1013 q 945 856 1006 892 q 808 821 885 821 m 808 865 q 922 895 869 865 q 1001 975 974 925 l 994 979 q 913 938 961 954 q 808 921 865 921 q 706 938 756 921 q 624 979 657 954 l 617 975 q 697 895 644 925 q 808 865 749 865 z "},"â":{"ha":1614,"x_min":83,"x_max":1572,"o":"m 468 -31 q 243 12 328 -31 q 121 121 158 54 q 83 260 83 188 q 122 395 83 331 q 246 501 161 460 q 468 542 331 542 q 631 540 560 542 q 765 537 703 539 q 888 532 826 535 l 888 536 q 881 594 888 561 q 853 658 875 626 q 788 709 832 689 q 665 729 743 729 q 488 705 574 729 q 337 649 403 681 q 233 590 271 617 l 176 590 l 176 804 l 235 804 q 244 769 238 793 q 254 732 250 744 q 531 789 388 772 q 842 806 674 806 q 1131 788 1017 806 q 1300 724 1244 771 q 1356 588 1356 676 l 1356 183 q 1392 88 1356 115 q 1481 60 1429 60 l 1572 60 l 1572 0 l 888 0 l 888 72 q 681 -3 792 24 q 468 -31 571 -31 m 974 60 l 1044 60 l 1044 568 q 1033 628 1044 596 q 984 690 1021 661 q 872 733 947 718 l 869 724 q 938 678 915 706 q 967 622 960 651 q 974 568 974 593 l 974 60 m 513 11 l 513 19 q 370 55 428 19 q 283 146 313 90 q 254 260 254 201 q 283 370 254 317 q 369 458 311 424 q 514 493 428 493 l 514 501 q 317 466 396 501 q 199 376 238 431 q 160 260 160 321 q 199 140 160 197 q 317 47 239 83 q 513 11 396 11 m 579 288 q 595 210 579 247 q 647 151 611 174 q 738 128 682 128 q 888 157 806 128 l 888 461 q 811 465 849 464 q 739 465 774 465 q 649 438 685 465 q 597 371 614 411 q 579 288 579 331 m 396 867 l 582 1069 l 1032 1069 l 1217 867 l 1096 867 l 953 1022 l 808 867 l 396 867 m 550 919 l 636 919 l 740 1035 l 654 1035 l 550 919 z "},"ä":{"ha":1614,"x_min":83,"x_max":1572,"o":"m 468 -31 q 243 12 328 -31 q 121 121 158 54 q 83 260 83 188 q 122 395 83 331 q 246 501 161 460 q 468 542 331 542 q 631 540 560 542 q 765 537 703 539 q 888 532 826 535 l 888 536 q 881 594 888 561 q 853 658 875 626 q 788 709 832 689 q 665 729 743 729 q 488 705 574 729 q 337 649 403 681 q 233 590 271 617 l 176 590 l 176 804 l 235 804 q 244 769 238 793 q 254 732 250 744 q 531 789 388 772 q 842 806 674 806 q 1131 788 1017 806 q 1300 724 1244 771 q 1356 588 1356 676 l 1356 183 q 1392 88 1356 115 q 1481 60 1429 60 l 1572 60 l 1572 0 l 888 0 l 888 72 q 681 -3 792 24 q 468 -31 571 -31 m 974 60 l 1044 60 l 1044 568 q 1033 628 1044 596 q 984 690 1021 661 q 872 733 947 718 l 869 724 q 938 678 915 706 q 967 622 960 651 q 974 568 974 593 l 974 60 m 513 11 l 513 19 q 370 55 428 19 q 283 146 313 90 q 254 260 254 201 q 283 370 254 317 q 369 458 311 424 q 514 493 428 493 l 514 501 q 317 466 396 501 q 199 376 238 431 q 160 260 160 321 q 199 140 160 197 q 317 47 239 83 q 513 11 396 11 m 579 288 q 595 210 579 247 q 647 151 611 174 q 738 128 682 128 q 888 157 806 128 l 888 461 q 811 465 849 464 q 739 465 774 465 q 649 438 685 465 q 597 371 614 411 q 579 288 579 331 m 1122 824 q 1028 844 1071 824 q 959 901 985 865 q 933 981 933 938 q 959 1061 933 1025 q 1028 1119 985 1097 q 1122 1140 1071 1140 q 1219 1119 1176 1140 q 1288 1061 1263 1097 q 1314 981 1314 1025 q 1288 901 1314 938 q 1219 844 1263 865 q 1122 824 1176 824 m 489 824 q 394 844 438 824 q 326 901 351 865 q 300 981 300 938 q 326 1061 300 1025 q 394 1119 351 1097 q 489 1140 438 1140 q 586 1119 543 1140 q 655 1061 629 1097 q 681 981 681 1025 q 655 901 681 938 q 586 844 629 865 q 489 824 543 824 m 447 856 l 451 860 q 420 913 432 882 q 408 981 408 943 q 420 1049 408 1018 q 451 1101 432 1079 l 447 1106 q 378 1054 406 1088 q 351 981 351 1021 q 378 908 351 942 q 447 856 406 874 m 1081 856 l 1085 860 q 1053 913 1065 882 q 1042 981 1042 943 q 1053 1049 1042 1018 q 1085 1101 1065 1079 l 1081 1106 q 1012 1054 1039 1088 q 985 981 985 1021 q 1012 908 985 942 q 1081 856 1039 874 z "},"à":{"ha":1614,"x_min":83,"x_max":1572,"o":"m 468 -31 q 243 12 328 -31 q 121 121 158 54 q 83 260 83 188 q 122 395 83 331 q 246 501 161 460 q 468 542 331 542 q 631 540 560 542 q 765 537 703 539 q 888 532 826 535 l 888 536 q 881 594 888 561 q 853 658 875 626 q 788 709 832 689 q 665 729 743 729 q 488 705 574 729 q 337 649 403 681 q 233 590 271 617 l 176 590 l 176 804 l 235 804 q 244 769 238 793 q 254 732 250 744 q 531 789 388 772 q 842 806 674 806 q 1131 788 1017 806 q 1300 724 1244 771 q 1356 588 1356 676 l 1356 183 q 1392 88 1356 115 q 1481 60 1429 60 l 1572 60 l 1572 0 l 888 0 l 888 72 q 681 -3 792 24 q 468 -31 571 -31 m 974 60 l 1044 60 l 1044 568 q 1033 628 1044 596 q 984 690 1021 661 q 872 733 947 718 l 869 724 q 938 678 915 706 q 967 622 960 651 q 974 568 974 593 l 974 60 m 513 11 l 513 19 q 370 55 428 19 q 283 146 313 90 q 254 260 254 201 q 283 370 254 317 q 369 458 311 424 q 514 493 428 493 l 514 501 q 317 466 396 501 q 199 376 238 431 q 160 260 160 321 q 199 140 160 197 q 317 47 239 83 q 513 11 396 11 m 579 288 q 595 210 579 247 q 647 151 611 174 q 738 128 682 128 q 888 157 806 128 l 888 461 q 811 465 849 464 q 739 465 774 465 q 649 438 685 465 q 597 371 614 411 q 579 288 579 331 m 1114 867 q 1003 867 1068 867 q 867 870 938 868 q 734 877 797 872 q 631 892 671 882 q 526 936 567 907 q 463 996 485 965 q 433 1048 442 1026 q 425 1069 425 1069 l 829 1069 q 906 987 864 1021 q 1014 935 947 953 q 1189 917 1081 917 l 1189 867 l 1114 867 m 756 921 l 756 926 q 706 948 735 933 q 653 984 678 963 q 615 1031 628 1006 l 526 1031 q 565 989 539 1014 q 637 944 590 964 q 756 921 683 925 z "},"ā":{"ha":1614,"x_min":83,"x_max":1572,"o":"m 468 -31 q 243 12 328 -31 q 121 121 158 54 q 83 260 83 188 q 122 395 83 331 q 246 501 161 460 q 468 542 331 542 q 631 540 560 542 q 765 537 703 539 q 888 532 826 535 l 888 536 q 881 594 888 561 q 853 658 875 626 q 788 709 832 689 q 665 729 743 729 q 488 705 574 729 q 337 649 403 681 q 233 590 271 617 l 176 590 l 176 804 l 235 804 q 244 769 238 793 q 254 732 250 744 q 531 789 388 772 q 842 806 674 806 q 1131 788 1017 806 q 1300 724 1244 771 q 1356 588 1356 676 l 1356 183 q 1392 88 1356 115 q 1481 60 1429 60 l 1572 60 l 1572 0 l 888 0 l 888 72 q 681 -3 792 24 q 468 -31 571 -31 m 974 60 l 1044 60 l 1044 568 q 1033 628 1044 596 q 984 690 1021 661 q 872 733 947 718 l 869 724 q 938 678 915 706 q 967 622 960 651 q 974 568 974 593 l 974 60 m 513 11 l 513 19 q 370 55 428 19 q 283 146 313 90 q 254 260 254 201 q 283 370 254 317 q 369 458 311 424 q 514 493 428 493 l 514 501 q 317 466 396 501 q 199 376 238 431 q 160 260 160 321 q 199 140 160 197 q 317 47 239 83 q 513 11 396 11 m 579 288 q 595 210 579 247 q 647 151 611 174 q 738 128 682 128 q 888 157 806 128 l 888 461 q 811 465 849 464 q 739 465 774 465 q 649 438 685 465 q 597 371 614 411 q 579 288 579 331 m 525 875 l 525 1061 l 1088 1061 l 1088 875 l 525 875 m 610 903 l 685 903 l 685 1033 l 610 1033 l 610 903 z "},"ą":{"ha":1614,"x_min":83,"x_max":1572,"o":"m 468 -31 q 243 12 328 -31 q 121 121 158 54 q 83 260 83 188 q 122 395 83 331 q 246 501 161 460 q 468 542 331 542 q 631 540 560 542 q 765 537 703 539 q 888 532 826 535 l 888 536 q 881 594 888 561 q 853 658 875 626 q 788 709 832 689 q 665 729 743 729 q 488 705 574 729 q 337 649 403 681 q 233 590 271 617 l 176 590 l 176 804 l 235 804 q 244 769 238 793 q 254 732 250 744 q 531 789 388 772 q 842 806 674 806 q 1131 788 1017 806 q 1300 724 1244 771 q 1356 588 1356 676 l 1356 183 q 1392 88 1356 115 q 1481 60 1429 60 l 1572 60 l 1572 0 l 888 0 l 888 72 q 681 -3 792 24 q 468 -31 571 -31 m 974 60 l 1044 60 l 1044 568 q 1033 628 1044 596 q 984 690 1021 661 q 872 733 947 718 l 869 724 q 938 678 915 706 q 967 622 960 651 q 974 568 974 593 l 974 60 m 513 11 l 513 19 q 370 55 428 19 q 283 146 313 90 q 254 260 254 201 q 283 370 254 317 q 369 458 311 424 q 514 493 428 493 l 514 501 q 317 466 396 501 q 199 376 238 431 q 160 260 160 321 q 199 140 160 197 q 317 47 239 83 q 513 11 396 11 m 579 288 q 595 210 579 247 q 647 151 611 174 q 738 128 682 128 q 888 157 806 128 l 888 461 q 811 465 849 464 q 739 465 774 465 q 649 438 685 465 q 597 371 614 411 q 579 288 579 331 m 1249 -311 q 1135 -307 1193 -311 q 1031 -290 1078 -303 q 954 -252 983 -276 q 925 -186 925 -228 q 965 -97 925 -135 q 1074 -32 1006 -58 q 1226 10 1142 -6 q 1399 31 1310 25 l 1399 8 q 1262 -48 1307 -6 q 1217 -147 1217 -90 q 1249 -222 1217 -199 q 1325 -244 1281 -244 q 1401 -226 1363 -244 q 1472 -178 1440 -208 q 1518 -111 1504 -147 l 1572 -111 l 1572 -262 q 1433 -297 1519 -282 q 1249 -311 1347 -311 m 1122 -279 l 1125 -272 q 1073 -228 1096 -260 q 1050 -165 1050 -196 q 1113 -61 1050 -97 l 1108 -54 q 1017 -101 1054 -71 q 981 -172 981 -131 q 1017 -241 981 -211 q 1122 -279 1054 -271 z "},"å":{"ha":1614,"x_min":83,"x_max":1572,"o":"m 468 -31 q 243 12 328 -31 q 121 121 158 54 q 83 260 83 188 q 122 395 83 331 q 246 501 161 460 q 468 542 331 542 q 631 540 560 542 q 765 537 703 539 q 888 532 826 535 l 888 536 q 881 594 888 561 q 853 658 875 626 q 788 709 832 689 q 665 729 743 729 q 488 705 574 729 q 337 649 403 681 q 233 590 271 617 l 176 590 l 176 804 l 235 804 q 244 769 238 793 q 254 732 250 744 q 531 789 388 772 q 842 806 674 806 q 1131 788 1017 806 q 1300 724 1244 771 q 1356 588 1356 676 l 1356 183 q 1392 88 1356 115 q 1481 60 1429 60 l 1572 60 l 1572 0 l 888 0 l 888 72 q 681 -3 792 24 q 468 -31 571 -31 m 974 60 l 1044 60 l 1044 568 q 1033 628 1044 596 q 984 690 1021 661 q 872 733 947 718 l 869 724 q 938 678 915 706 q 967 622 960 651 q 974 568 974 593 l 974 60 m 513 11 l 513 19 q 370 55 428 19 q 283 146 313 90 q 254 260 254 201 q 283 370 254 317 q 369 458 311 424 q 514 493 428 493 l 514 501 q 317 466 396 501 q 199 376 238 431 q 160 260 160 321 q 199 140 160 197 q 317 47 239 83 q 513 11 396 11 m 579 288 q 595 210 579 247 q 647 151 611 174 q 738 128 682 128 q 888 157 806 128 l 888 461 q 811 465 849 464 q 739 465 774 465 q 649 438 685 465 q 597 371 614 411 q 579 288 579 331 m 806 800 q 697 824 746 800 q 617 890 647 849 q 588 981 588 931 q 617 1072 588 1031 q 697 1139 647 1114 q 806 1164 746 1164 q 917 1139 867 1164 q 997 1072 967 1114 q 1026 981 1026 1031 q 997 890 1026 931 q 917 824 967 849 q 806 800 867 800 m 806 843 q 853 883 833 843 q 872 981 872 924 q 853 1078 872 1038 q 806 1118 833 1118 q 759 1078 779 1118 q 739 981 739 1038 q 759 883 739 924 q 806 843 779 843 m 726 851 l 731 856 q 699 911 711 879 q 688 981 688 943 q 731 1106 688 1056 l 726 1110 q 658 1056 685 1092 q 632 981 632 1021 q 658 906 632 942 q 726 851 685 871 z "},"ǻ":{"ha":1614,"x_min":83,"x_max":1572,"o":"m 468 -31 q 243 12 328 -31 q 121 121 158 54 q 83 260 83 188 q 122 395 83 331 q 246 501 161 460 q 468 542 331 542 q 631 540 560 542 q 765 537 703 539 q 888 532 826 535 l 888 536 q 881 594 888 561 q 853 658 875 626 q 788 709 832 689 q 665 729 743 729 q 488 705 574 729 q 337 649 403 681 q 233 590 271 617 l 176 590 l 176 804 l 235 804 q 244 769 238 793 q 254 732 250 744 q 497 785 372 768 q 764 804 621 801 q 645 863 693 818 q 597 967 597 907 q 622 1051 597 1019 q 686 1102 647 1082 q 768 1142 725 1122 q 847 1190 811 1161 q 901 1265 883 1218 l 1175 1265 q 1148 1211 1171 1246 q 1076 1144 1125 1176 q 946 1103 1028 1113 q 1011 1044 986 1079 q 1036 967 1036 1008 q 990 864 1036 908 q 872 806 943 819 q 1143 786 1036 804 q 1303 721 1250 768 q 1356 588 1356 674 l 1356 183 q 1392 88 1356 115 q 1481 60 1429 60 l 1572 60 l 1572 0 l 888 0 l 888 72 q 681 -3 792 24 q 468 -31 571 -31 m 807 1117 q 923 1140 878 1121 q 994 1185 968 1160 q 1032 1226 1021 1210 l 943 1226 q 905 1180 931 1201 q 851 1144 879 1158 q 803 1122 824 1129 l 807 1117 m 815 843 q 863 879 843 843 q 882 967 882 915 q 863 1054 882 1018 q 815 1090 843 1090 q 769 1054 789 1090 q 749 967 749 1018 q 769 879 749 915 q 815 843 789 843 m 736 851 l 740 856 q 709 905 721 876 q 697 967 697 933 q 709 1030 697 1000 q 740 1082 721 1060 l 736 1086 q 668 1035 694 1068 q 642 967 642 1003 q 668 900 642 932 q 736 851 694 868 m 974 60 l 1044 60 l 1044 568 q 1033 628 1044 596 q 984 690 1021 661 q 872 733 947 718 l 869 724 q 938 678 915 706 q 967 622 960 651 q 974 568 974 593 l 974 60 m 513 11 l 513 19 q 370 55 428 19 q 283 146 313 90 q 254 260 254 201 q 283 370 254 317 q 369 458 311 424 q 514 493 428 493 l 514 501 q 317 466 396 501 q 199 376 238 431 q 160 260 160 321 q 199 140 160 197 q 317 47 239 83 q 513 11 396 11 m 579 288 q 595 210 579 247 q 647 151 611 174 q 738 128 682 128 q 888 157 806 128 l 888 461 q 811 465 849 464 q 739 465 774 465 q 649 438 685 465 q 597 371 614 411 q 579 288 579 331 z "},"ã":{"ha":1614,"x_min":83,"x_max":1572,"o":"m 468 -31 q 243 12 328 -31 q 121 121 158 54 q 83 260 83 188 q 122 395 83 331 q 246 501 161 460 q 468 542 331 542 q 631 540 560 542 q 765 537 703 539 q 888 532 826 535 l 888 536 q 881 594 888 561 q 853 658 875 626 q 788 709 832 689 q 665 729 743 729 q 488 705 574 729 q 337 649 403 681 q 233 590 271 617 l 176 590 l 176 804 l 235 804 q 244 769 238 793 q 254 732 250 744 q 531 789 388 772 q 842 806 674 806 q 1131 788 1017 806 q 1300 724 1244 771 q 1356 588 1356 676 l 1356 183 q 1392 88 1356 115 q 1481 60 1429 60 l 1572 60 l 1572 0 l 888 0 l 888 72 q 681 -3 792 24 q 468 -31 571 -31 m 974 60 l 1044 60 l 1044 568 q 1033 628 1044 596 q 984 690 1021 661 q 872 733 947 718 l 869 724 q 938 678 915 706 q 967 622 960 651 q 974 568 974 593 l 974 60 m 513 11 l 513 19 q 370 55 428 19 q 283 146 313 90 q 254 260 254 201 q 283 370 254 317 q 369 458 311 424 q 514 493 428 493 l 514 501 q 317 466 396 501 q 199 376 238 431 q 160 260 160 321 q 199 140 160 197 q 317 47 239 83 q 513 11 396 11 m 579 288 q 595 210 579 247 q 647 151 611 174 q 738 128 682 128 q 888 157 806 128 l 888 461 q 811 465 849 464 q 739 465 774 465 q 649 438 685 465 q 597 371 614 411 q 579 288 579 331 m 957 851 q 817 862 875 851 q 709 885 758 872 q 608 909 660 899 q 489 919 557 919 q 435 906 458 919 q 403 868 413 892 l 364 868 q 387 932 367 894 q 446 1006 407 969 q 543 1068 485 1043 q 678 1093 601 1093 q 810 1085 756 1093 q 910 1068 865 1078 q 997 1051 954 1058 q 1096 1043 1040 1043 q 1166 1056 1142 1043 q 1204 1092 1190 1069 l 1250 1092 q 1228 1024 1247 1064 q 1174 944 1210 983 q 1083 878 1138 904 q 957 851 1029 851 m 967 899 q 1066 916 1015 899 q 1151 963 1117 933 l 1149 968 q 1078 953 1119 958 q 1006 947 1036 947 q 868 956 925 947 q 766 978 811 965 q 676 999 721 990 q 575 1008 632 1008 q 510 996 536 1008 q 464 967 483 983 l 468 961 q 498 966 483 964 q 526 968 513 968 q 649 951 585 968 q 792 916 714 933 q 967 899 869 899 z "},"æ":{"ha":2183,"x_min":83,"x_max":2128,"o":"m 468 -31 q 243 12 328 -31 q 121 121 158 54 q 83 260 83 188 q 122 395 83 331 q 246 501 161 460 q 468 542 331 542 q 700 540 604 542 q 888 533 796 538 q 881 592 888 558 q 853 656 875 625 q 788 708 832 688 q 665 729 743 729 q 488 705 574 729 q 337 649 403 681 q 233 590 271 617 l 176 590 l 176 804 l 235 804 q 244 769 238 793 q 254 732 250 744 q 531 789 388 772 q 842 806 674 806 q 992 799 918 806 q 1127 783 1065 793 q 1226 760 1189 772 q 1380 794 1300 783 q 1536 804 1460 804 q 1813 782 1703 804 q 1985 722 1922 760 q 2074 637 2049 683 q 2100 540 2100 590 q 2074 445 2100 492 q 1988 360 2049 399 q 1819 299 1926 322 q 1549 276 1713 276 l 1408 276 q 1475 95 1422 154 q 1633 36 1528 36 q 1815 56 1735 36 q 1953 103 1894 76 q 2047 151 2011 131 q 2096 171 2083 171 q 2116 165 2104 171 q 2128 143 2128 160 q 2094 97 2128 121 q 2006 51 2061 74 q 1881 10 1950 28 q 1741 -19 1813 -8 q 1606 -31 1669 -31 q 1363 -12 1479 -31 q 1152 44 1247 6 q 993 142 1057 82 q 808 35 903 72 q 625 -17 713 -3 q 468 -31 538 -31 m 1683 350 q 1829 437 1779 379 q 1879 558 1879 494 q 1827 676 1879 621 q 1676 757 1775 731 l 1674 746 q 1774 666 1740 717 q 1808 558 1808 615 q 1776 449 1808 503 q 1679 363 1743 394 l 1683 350 m 1403 388 q 1403 360 1403 372 l 1549 360 q 1642 389 1604 360 q 1701 463 1681 418 q 1721 558 1721 508 q 1703 648 1721 606 q 1651 717 1685 690 q 1565 744 1617 744 q 1440 655 1476 744 q 1403 388 1403 565 m 1390 28 l 1393 42 q 1226 119 1299 69 q 1111 235 1153 168 q 1069 386 1069 303 q 1111 538 1069 471 q 1226 653 1153 604 q 1394 729 1300 701 l 1392 742 q 1176 664 1269 715 q 1028 542 1082 613 q 975 386 975 472 q 1028 229 975 300 q 1176 108 1082 158 q 1390 28 1269 57 m 513 11 l 513 19 q 370 55 428 19 q 283 146 313 90 q 254 260 254 201 q 283 370 254 317 q 369 458 311 424 q 514 493 428 493 l 514 501 q 317 466 396 501 q 199 376 238 431 q 160 260 160 321 q 199 140 160 197 q 317 47 239 83 q 513 11 396 11 m 744 128 q 840 145 789 128 q 944 197 892 163 q 889 386 889 278 l 889 460 q 816 463 853 461 q 747 465 779 465 q 653 438 690 465 q 597 371 615 411 q 579 288 579 331 q 626 169 579 211 q 744 128 672 128 z "},"ǽ":{"ha":2183,"x_min":83,"x_max":2128,"o":"m 468 -31 q 243 12 328 -31 q 121 121 158 54 q 83 260 83 188 q 122 395 83 331 q 246 501 161 460 q 468 542 331 542 q 700 540 604 542 q 888 533 796 538 q 881 592 888 558 q 853 656 875 625 q 788 708 832 688 q 665 729 743 729 q 488 705 574 729 q 337 649 403 681 q 233 590 271 617 l 176 590 l 176 804 l 235 804 q 244 769 238 793 q 254 732 250 744 q 531 789 388 772 q 842 806 674 806 q 992 799 918 806 q 1127 783 1065 793 q 1226 760 1189 772 q 1380 794 1300 783 q 1536 804 1460 804 q 1813 782 1703 804 q 1985 722 1922 760 q 2074 637 2049 683 q 2100 540 2100 590 q 2074 445 2100 492 q 1988 360 2049 399 q 1819 299 1926 322 q 1549 276 1713 276 l 1408 276 q 1475 95 1422 154 q 1633 36 1528 36 q 1815 56 1735 36 q 1953 103 1894 76 q 2047 151 2011 131 q 2096 171 2083 171 q 2116 165 2104 171 q 2128 143 2128 160 q 2094 97 2128 121 q 2006 51 2061 74 q 1881 10 1950 28 q 1741 -19 1813 -8 q 1606 -31 1669 -31 q 1363 -12 1479 -31 q 1152 44 1247 6 q 993 142 1057 82 q 808 35 903 72 q 625 -17 713 -3 q 468 -31 538 -31 m 1683 350 q 1829 437 1779 379 q 1879 558 1879 494 q 1827 676 1879 621 q 1676 757 1775 731 l 1674 746 q 1774 666 1740 717 q 1808 558 1808 615 q 1776 449 1808 503 q 1679 363 1743 394 l 1683 350 m 1403 388 q 1403 360 1403 372 l 1549 360 q 1642 389 1604 360 q 1701 463 1681 418 q 1721 558 1721 508 q 1703 648 1721 606 q 1651 717 1685 690 q 1565 744 1617 744 q 1440 655 1476 744 q 1403 388 1403 565 m 1390 28 l 1393 42 q 1226 119 1299 69 q 1111 235 1153 168 q 1069 386 1069 303 q 1111 538 1069 471 q 1226 653 1153 604 q 1394 729 1300 701 l 1392 742 q 1176 664 1269 715 q 1028 542 1082 613 q 975 386 975 472 q 1028 229 975 300 q 1176 108 1082 158 q 1390 28 1269 57 m 513 11 l 513 19 q 370 55 428 19 q 283 146 313 90 q 254 260 254 201 q 283 370 254 317 q 369 458 311 424 q 514 493 428 493 l 514 501 q 317 466 396 501 q 199 376 238 431 q 160 260 160 321 q 199 140 160 197 q 317 47 239 83 q 513 11 396 11 m 744 128 q 840 145 789 128 q 944 197 892 163 q 889 386 889 278 l 889 460 q 816 463 853 461 q 747 465 779 465 q 653 438 690 465 q 597 371 615 411 q 579 288 579 331 q 626 169 579 211 q 744 128 672 128 m 751 867 l 751 917 q 926 935 860 917 q 1035 987 993 953 q 1111 1069 1076 1021 l 1515 1069 q 1507 1048 1515 1069 q 1477 996 1499 1026 q 1415 936 1456 965 q 1310 892 1375 907 q 1206 877 1269 882 q 1073 870 1143 872 q 938 867 1003 868 q 826 867 872 867 l 751 867 m 1026 921 q 1145 944 1099 925 q 1218 989 1192 964 q 1256 1031 1244 1014 l 1167 1031 q 1129 984 1154 1006 q 1076 948 1104 963 q 1026 926 1047 933 l 1026 921 z "},"b":{"ha":1619,"x_min":0,"x_max":1550,"o":"m 217 -31 l 217 817 q 180 903 217 867 q 92 940 143 940 l 0 940 l 0 1000 l 685 1000 l 685 690 q 847 778 754 751 q 1038 806 940 806 q 1257 772 1161 806 q 1418 679 1353 738 q 1517 548 1483 621 q 1550 399 1550 475 q 1513 243 1550 319 q 1400 105 1476 167 q 1206 6 1324 43 q 929 -31 1089 -31 q 585 8 736 -31 q 303 96 435 46 l 257 -31 l 217 -31 m 374 157 l 374 940 l 303 940 l 303 181 l 374 157 m 1007 28 q 1124 107 1076 57 q 1195 217 1171 157 q 1219 340 1219 278 q 1201 475 1219 406 q 1136 603 1182 544 q 1008 694 1090 661 l 1003 686 q 1098 542 1072 636 q 1124 339 1124 449 q 1092 157 1124 238 q 1001 33 1061 76 l 1007 28 m 860 29 q 990 108 944 29 q 1036 339 1036 186 q 1021 520 1036 442 q 967 644 1006 599 q 860 689 929 689 q 784 673 819 689 q 723 636 749 657 q 685 600 697 615 l 685 339 q 731 108 685 186 q 860 29 776 29 z "},"c":{"ha":1310,"x_min":69,"x_max":1282,"o":"m 772 -31 q 504 -7 631 -31 q 280 67 378 17 q 126 197 182 118 q 69 386 69 276 q 108 544 69 476 q 213 662 147 613 q 364 743 279 711 q 541 790 449 775 q 724 804 633 804 q 954 778 844 804 q 1154 719 1064 751 l 1154 775 l 1228 775 l 1228 486 l 1157 486 q 1097 559 1138 515 q 1001 645 1056 603 q 883 716 946 688 q 756 744 821 744 q 640 697 671 744 q 610 576 610 649 l 610 257 q 653 89 610 142 q 807 36 696 36 q 982 56 906 36 q 1114 103 1058 76 q 1203 151 1169 131 q 1250 171 1238 171 q 1270 165 1258 171 q 1282 143 1282 160 q 1258 108 1282 128 q 1197 69 1235 89 q 1117 32 1160 49 q 949 -14 1042 3 q 772 -31 856 -31 m 572 28 l 575 42 q 408 119 481 69 q 293 235 335 168 q 251 386 251 303 q 293 538 251 471 q 408 653 335 604 q 576 729 482 701 l 574 742 q 358 664 451 715 q 210 542 264 613 q 157 386 157 472 q 210 229 157 300 q 358 108 264 158 q 572 28 451 57 z "},"ć":{"ha":1310,"x_min":69,"x_max":1282,"o":"m 772 -31 q 504 -7 631 -31 q 280 67 378 17 q 126 197 182 118 q 69 386 69 276 q 108 544 69 476 q 213 662 147 613 q 364 743 279 711 q 541 790 449 775 q 724 804 633 804 q 954 778 844 804 q 1154 719 1064 751 l 1154 775 l 1228 775 l 1228 486 l 1157 486 q 1097 559 1138 515 q 1001 645 1056 603 q 883 716 946 688 q 756 744 821 744 q 640 697 671 744 q 610 576 610 649 l 610 257 q 653 89 610 142 q 807 36 696 36 q 982 56 906 36 q 1114 103 1058 76 q 1203 151 1169 131 q 1250 171 1238 171 q 1270 165 1258 171 q 1282 143 1282 160 q 1258 108 1282 128 q 1197 69 1235 89 q 1117 32 1160 49 q 949 -14 1042 3 q 772 -31 856 -31 m 572 28 l 575 42 q 408 119 481 69 q 293 235 335 168 q 251 386 251 303 q 293 538 251 471 q 408 653 335 604 q 576 729 482 701 l 574 742 q 358 664 451 715 q 210 542 264 613 q 157 386 157 472 q 210 229 157 300 q 358 108 264 158 q 572 28 451 57 m 329 867 l 329 917 q 504 935 438 917 q 613 987 571 953 q 689 1069 654 1021 l 1093 1069 q 1085 1048 1093 1069 q 1055 996 1076 1026 q 993 936 1033 965 q 888 892 953 907 q 784 877 847 882 q 651 870 721 872 q 515 867 581 868 q 404 867 450 867 l 329 867 m 604 921 q 723 944 676 925 q 796 989 769 964 q 833 1031 822 1014 l 744 1031 q 707 984 732 1006 q 653 948 682 963 q 604 926 625 933 l 604 921 z "},"č":{"ha":1310,"x_min":69,"x_max":1282,"o":"m 772 -31 q 504 -7 631 -31 q 280 67 378 17 q 126 197 182 118 q 69 386 69 276 q 108 544 69 476 q 213 662 147 613 q 364 743 279 711 q 541 790 449 775 q 724 804 633 804 q 954 778 844 804 q 1154 719 1064 751 l 1154 775 l 1228 775 l 1228 486 l 1157 486 q 1097 559 1138 515 q 1001 645 1056 603 q 883 716 946 688 q 756 744 821 744 q 640 697 671 744 q 610 576 610 649 l 610 257 q 653 89 610 142 q 807 36 696 36 q 982 56 906 36 q 1114 103 1058 76 q 1203 151 1169 131 q 1250 171 1238 171 q 1270 165 1258 171 q 1282 143 1282 160 q 1258 108 1282 128 q 1197 69 1235 89 q 1117 32 1160 49 q 949 -14 1042 3 q 772 -31 856 -31 m 572 28 l 575 42 q 408 119 481 69 q 293 235 335 168 q 251 386 251 303 q 293 538 251 471 q 408 653 335 604 q 576 729 482 701 l 574 742 q 358 664 451 715 q 210 542 264 613 q 157 386 157 472 q 210 229 157 300 q 358 108 264 158 q 572 28 451 57 m 486 867 l 300 1069 l 713 1069 l 857 914 l 1000 1069 l 1121 1069 l 936 867 l 486 867 m 558 901 l 644 901 l 540 1017 l 454 1017 l 558 901 z "},"ç":{"ha":1310,"x_min":69,"x_max":1282,"o":"m 772 -31 q 504 -7 631 -31 q 280 67 378 17 q 126 197 182 118 q 69 386 69 276 q 108 544 69 476 q 213 662 147 613 q 364 743 279 711 q 541 790 449 775 q 724 804 633 804 q 954 778 844 804 q 1154 719 1064 751 l 1154 775 l 1228 775 l 1228 486 l 1157 486 q 1097 559 1138 515 q 1001 645 1056 603 q 883 716 946 688 q 756 744 821 744 q 640 697 671 744 q 610 576 610 649 l 610 257 q 653 89 610 142 q 807 36 696 36 q 982 56 906 36 q 1114 103 1058 76 q 1203 151 1169 131 q 1250 171 1238 171 q 1270 165 1258 171 q 1282 143 1282 160 q 1258 108 1282 128 q 1197 69 1235 89 q 1117 32 1160 49 q 949 -14 1042 3 q 772 -31 856 -31 m 572 28 l 575 42 q 408 119 481 69 q 293 235 335 168 q 251 386 251 303 q 293 538 251 471 q 408 653 335 604 q 576 729 482 701 l 574 742 q 358 664 451 715 q 210 542 264 613 q 157 386 157 472 q 210 229 157 300 q 358 108 264 158 q 572 28 451 57 m 631 -310 q 446 -295 532 -310 q 307 -261 360 -281 l 307 -110 l 361 -110 q 408 -176 376 -146 q 478 -225 439 -207 q 554 -243 518 -243 q 631 -220 599 -243 q 663 -146 663 -197 q 481 0 663 -26 l 481 22 q 653 9 569 22 q 806 -31 738 -4 q 914 -95 874 -57 q 954 -185 954 -133 q 925 -251 954 -226 q 849 -288 896 -275 q 744 -306 801 -301 q 631 -310 688 -310 m 688 -261 q 745 -238 715 -254 q 795 -199 775 -222 q 815 -149 815 -175 q 778 -78 815 -104 q 688 -33 742 -51 l 682 -42 q 746 -149 746 -81 q 729 -209 746 -179 q 683 -253 713 -239 l 688 -261 z "},"ĉ":{"ha":1310,"x_min":69,"x_max":1282,"o":"m 772 -31 q 504 -7 631 -31 q 280 67 378 17 q 126 197 182 118 q 69 386 69 276 q 108 544 69 476 q 213 662 147 613 q 364 743 279 711 q 541 790 449 775 q 724 804 633 804 q 954 778 844 804 q 1154 719 1064 751 l 1154 775 l 1228 775 l 1228 486 l 1157 486 q 1097 559 1138 515 q 1001 645 1056 603 q 883 716 946 688 q 756 744 821 744 q 640 697 671 744 q 610 576 610 649 l 610 257 q 653 89 610 142 q 807 36 696 36 q 982 56 906 36 q 1114 103 1058 76 q 1203 151 1169 131 q 1250 171 1238 171 q 1270 165 1258 171 q 1282 143 1282 160 q 1258 108 1282 128 q 1197 69 1235 89 q 1117 32 1160 49 q 949 -14 1042 3 q 772 -31 856 -31 m 572 28 l 575 42 q 408 119 481 69 q 293 235 335 168 q 251 386 251 303 q 293 538 251 471 q 408 653 335 604 q 576 729 482 701 l 574 742 q 358 664 451 715 q 210 542 264 613 q 157 386 157 472 q 210 229 157 300 q 358 108 264 158 q 572 28 451 57 m 300 867 l 486 1069 l 936 1069 l 1121 867 l 1000 867 l 857 1022 l 713 867 l 300 867 m 454 919 l 540 919 l 644 1035 l 558 1035 l 454 919 z "},"ċ":{"ha":1310,"x_min":69,"x_max":1282,"o":"m 772 -31 q 504 -7 631 -31 q 280 67 378 17 q 126 197 182 118 q 69 386 69 276 q 108 544 69 476 q 213 662 147 613 q 364 743 279 711 q 541 790 449 775 q 724 804 633 804 q 954 778 844 804 q 1154 719 1064 751 l 1154 775 l 1228 775 l 1228 486 l 1157 486 q 1097 559 1138 515 q 1001 645 1056 603 q 883 716 946 688 q 756 744 821 744 q 640 697 671 744 q 610 576 610 649 l 610 257 q 653 89 610 142 q 807 36 696 36 q 982 56 906 36 q 1114 103 1058 76 q 1203 151 1169 131 q 1250 171 1238 171 q 1270 165 1258 171 q 1282 143 1282 160 q 1258 108 1282 128 q 1197 69 1235 89 q 1117 32 1160 49 q 949 -14 1042 3 q 772 -31 856 -31 m 572 28 l 575 42 q 408 119 481 69 q 293 235 335 168 q 251 386 251 303 q 293 538 251 471 q 408 653 335 604 q 576 729 482 701 l 574 742 q 358 664 451 715 q 210 542 264 613 q 157 386 157 472 q 210 229 157 300 q 358 108 264 158 q 572 28 451 57 m 710 824 q 615 844 658 824 q 547 901 572 865 q 521 981 521 938 q 547 1061 521 1025 q 615 1119 572 1097 q 710 1140 658 1140 q 807 1119 764 1140 q 876 1061 850 1097 q 901 981 901 1025 q 876 901 901 938 q 807 844 850 865 q 710 824 764 824 m 642 868 l 644 872 q 617 920 628 892 q 607 981 607 949 q 617 1041 607 1013 q 644 1089 628 1069 l 642 1093 q 582 1046 606 1076 q 558 981 558 1015 q 582 915 558 946 q 642 868 606 885 z "},"d":{"ha":1653,"x_min":69,"x_max":1611,"o":"m 547 -31 q 336 2 426 -31 q 187 91 246 35 q 99 218 128 147 q 69 364 69 289 q 102 524 69 446 q 198 666 135 603 q 355 767 261 729 q 571 806 449 806 q 760 778 667 806 q 926 690 854 751 l 926 817 q 894 903 926 867 q 815 940 861 940 l 740 940 l 740 1000 l 1396 1000 l 1396 183 q 1432 88 1396 115 q 1519 60 1468 60 l 1611 60 l 1611 0 l 926 0 l 926 94 q 819 28 882 56 q 685 -15 756 0 q 547 -31 615 -31 m 1013 60 l 1083 60 l 1083 940 l 1013 940 l 1013 60 m 565 14 l 568 25 q 378 88 453 38 q 266 212 303 139 q 229 365 229 285 q 267 527 229 449 q 381 665 306 606 q 565 743 456 724 l 563 757 q 340 678 431 739 q 203 534 250 617 q 157 364 157 451 q 201 205 157 281 q 337 77 246 129 q 565 14 428 25 m 754 75 q 856 108 811 75 q 926 182 900 140 l 926 600 q 890 636 915 615 q 829 673 864 657 q 754 689 794 689 q 650 647 688 689 q 597 532 613 606 q 582 364 582 458 q 627 148 582 221 q 754 75 672 75 z "},"ð":{"ha":1531,"x_min":69,"x_max":1503,"o":"m 722 -31 q 469 -1 588 -31 q 261 78 351 28 q 120 197 171 129 q 69 340 69 264 q 117 484 69 417 q 253 603 164 551 q 467 685 342 656 q 749 715 593 715 q 856 710 804 715 q 956 694 908 704 q 949 772 956 733 q 929 843 943 810 l 644 786 l 644 869 l 879 917 q 801 963 849 946 q 686 981 753 981 q 560 961 622 981 q 444 913 499 942 q 347 854 389 883 q 281 806 304 825 q 257 786 257 786 l 208 786 l 208 1006 l 257 1006 l 257 954 q 499 1015 372 990 q 779 1040 625 1040 q 970 1023 876 1040 q 1146 969 1064 1006 l 1503 1040 l 1503 957 l 1257 908 q 1405 742 1349 843 q 1461 500 1461 640 q 1417 306 1461 400 q 1283 135 1374 211 q 1053 15 1192 60 q 722 -31 914 -31 m 997 81 q 1112 266 1069 158 q 1154 500 1154 374 q 1113 734 1154 626 q 999 918 1071 842 l 993 913 q 1041 715 1024 819 q 1058 500 1058 611 q 1041 285 1058 389 q 992 86 1024 182 l 997 81 m 778 29 q 920 108 869 29 q 971 339 971 186 q 931 573 971 492 q 778 654 892 654 q 624 573 664 654 q 585 339 585 492 q 635 108 585 186 q 778 29 686 29 m 572 31 l 575 40 q 392 107 472 64 q 265 210 311 150 q 219 340 219 269 q 265 472 219 413 q 392 575 311 532 q 576 642 472 618 l 574 649 q 342 581 443 625 q 183 476 240 536 q 125 340 125 415 q 183 205 125 267 q 341 99 240 143 q 572 31 442 56 z "},"ď":{"ha":1653,"x_min":69,"x_max":1844,"o":"m 547 -31 q 336 2 426 -31 q 187 91 246 35 q 99 218 128 147 q 69 364 69 289 q 102 524 69 446 q 198 666 135 603 q 355 767 261 729 q 571 806 449 806 q 760 778 667 806 q 926 690 854 751 l 926 817 q 894 903 926 867 q 815 940 861 940 l 740 940 l 740 1000 l 1396 1000 l 1396 183 q 1432 88 1396 115 q 1519 60 1468 60 l 1611 60 l 1611 0 l 926 0 l 926 94 q 819 28 882 56 q 685 -15 756 0 q 547 -31 615 -31 m 1013 60 l 1083 60 l 1083 940 l 1013 940 l 1013 60 m 565 14 l 568 25 q 378 88 453 38 q 266 212 303 139 q 229 365 229 285 q 267 527 229 449 q 381 665 306 606 q 565 743 456 724 l 563 757 q 340 678 431 739 q 203 534 250 617 q 157 364 157 451 q 201 205 157 281 q 337 77 246 129 q 565 14 428 25 m 754 75 q 856 108 811 75 q 926 182 900 140 l 926 600 q 890 636 915 615 q 829 673 864 657 q 754 689 794 689 q 650 647 688 689 q 597 532 613 606 q 582 364 582 458 q 627 148 582 221 q 754 75 672 75 m 1464 1156 q 1490 1235 1464 1200 q 1559 1292 1515 1271 q 1656 1313 1603 1313 q 1751 1291 1708 1313 q 1819 1232 1793 1269 q 1844 1144 1844 1194 q 1810 1011 1844 1076 q 1694 900 1775 946 q 1478 844 1614 854 l 1478 896 q 1559 906 1511 896 q 1651 940 1607 915 q 1715 1004 1696 964 q 1656 996 1689 996 q 1559 1017 1603 996 q 1490 1076 1515 1039 q 1464 1156 1464 1113 m 1568 1156 q 1578 1216 1568 1188 q 1606 1264 1589 1244 l 1603 1268 q 1543 1221 1567 1251 q 1519 1156 1519 1190 q 1543 1090 1519 1121 q 1603 1043 1567 1060 l 1606 1047 q 1578 1095 1589 1067 q 1568 1156 1568 1124 z "},"đ":{"ha":1653,"x_min":69,"x_max":1611,"o":"m 547 -31 q 280 17 386 -31 q 122 140 174 64 q 69 299 69 215 q 102 432 69 367 q 198 550 135 497 q 355 635 261 603 q 571 667 449 667 q 760 644 667 667 q 926 571 854 621 l 926 761 l 550 761 l 550 861 l 918 861 q 878 918 907 896 q 815 940 850 940 l 740 940 l 740 1000 l 1396 1000 l 1396 861 l 1553 861 l 1553 761 l 1396 761 l 1396 151 q 1432 73 1396 96 q 1519 50 1468 50 l 1611 50 l 1611 0 l 926 0 l 926 94 q 819 28 882 56 q 685 -15 756 0 q 547 -31 615 -31 m 1013 60 l 1083 60 l 1083 940 l 1013 940 l 1013 60 m 565 14 l 568 25 q 378 76 453 36 q 266 176 303 117 q 229 300 229 235 q 267 431 229 367 q 381 542 306 494 q 565 604 456 589 l 563 618 q 340 552 431 601 q 203 436 250 503 q 157 299 157 369 q 201 170 157 232 q 337 66 246 108 q 565 14 428 24 m 754 75 q 856 108 811 75 q 926 182 900 140 l 926 486 q 862 526 908 503 q 754 550 815 550 q 650 517 688 550 q 597 428 613 485 q 582 299 582 372 q 627 132 582 189 q 754 75 672 75 z "},"e":{"ha":1365,"x_min":69,"x_max":1310,"o":"m 788 -31 q 513 -7 643 -31 q 283 67 383 17 q 126 197 183 118 q 69 386 69 276 q 108 544 69 476 q 212 662 146 613 q 362 743 278 711 q 538 790 446 775 q 718 804 629 804 q 994 782 885 804 q 1167 722 1104 760 q 1256 637 1231 683 q 1282 540 1282 590 q 1256 445 1282 492 q 1169 360 1231 399 q 1001 299 1108 322 q 731 276 894 276 l 590 276 q 657 95 604 154 q 815 36 710 36 q 997 56 917 36 q 1135 103 1076 76 q 1229 151 1193 131 q 1278 171 1265 171 q 1298 165 1286 171 q 1310 143 1310 160 q 1285 108 1310 128 q 1221 69 1260 89 q 1138 32 1182 49 q 967 -14 1061 3 q 788 -31 872 -31 m 865 350 q 1011 437 961 379 q 1061 558 1061 494 q 1009 676 1061 621 q 858 757 957 731 l 856 746 q 956 666 922 717 q 990 558 990 615 q 958 449 990 503 q 861 363 925 394 l 865 350 m 585 388 q 585 360 585 372 l 731 360 q 824 389 786 360 q 883 463 863 418 q 903 558 903 508 q 885 648 903 606 q 833 717 867 690 q 747 744 799 744 q 622 655 658 744 q 585 388 585 565 m 572 28 l 575 42 q 408 119 481 69 q 293 235 335 168 q 251 386 251 303 q 293 538 251 471 q 408 653 335 604 q 576 729 482 701 l 574 742 q 358 664 451 715 q 210 542 264 613 q 157 386 157 472 q 210 229 157 300 q 358 108 264 158 q 572 28 451 57 z "},"é":{"ha":1365,"x_min":69,"x_max":1310,"o":"m 788 -31 q 513 -7 643 -31 q 283 67 383 17 q 126 197 183 118 q 69 386 69 276 q 108 544 69 476 q 212 662 146 613 q 362 743 278 711 q 538 790 446 775 q 718 804 629 804 q 994 782 885 804 q 1167 722 1104 760 q 1256 637 1231 683 q 1282 540 1282 590 q 1256 445 1282 492 q 1169 360 1231 399 q 1001 299 1108 322 q 731 276 894 276 l 590 276 q 657 95 604 154 q 815 36 710 36 q 997 56 917 36 q 1135 103 1076 76 q 1229 151 1193 131 q 1278 171 1265 171 q 1298 165 1286 171 q 1310 143 1310 160 q 1285 108 1310 128 q 1221 69 1260 89 q 1138 32 1182 49 q 967 -14 1061 3 q 788 -31 872 -31 m 865 350 q 1011 437 961 379 q 1061 558 1061 494 q 1009 676 1061 621 q 858 757 957 731 l 856 746 q 956 666 922 717 q 990 558 990 615 q 958 449 990 503 q 861 363 925 394 l 865 350 m 585 388 q 585 360 585 372 l 731 360 q 824 389 786 360 q 883 463 863 418 q 903 558 903 508 q 885 648 903 606 q 833 717 867 690 q 747 744 799 744 q 622 655 658 744 q 585 388 585 565 m 572 28 l 575 42 q 408 119 481 69 q 293 235 335 168 q 251 386 251 303 q 293 538 251 471 q 408 653 335 604 q 576 729 482 701 l 574 742 q 358 664 451 715 q 210 542 264 613 q 157 386 157 472 q 210 229 157 300 q 358 108 264 158 q 572 28 451 57 m 344 867 l 344 917 q 519 935 453 917 q 628 987 586 953 q 704 1069 669 1021 l 1108 1069 q 1100 1048 1108 1069 q 1070 996 1092 1026 q 1008 936 1049 965 q 903 892 968 907 q 799 877 863 882 q 666 870 736 872 q 531 867 596 868 q 419 867 465 867 l 344 867 m 619 921 q 738 944 692 925 q 811 989 785 964 q 849 1031 838 1014 l 760 1031 q 722 984 747 1006 q 669 948 697 963 q 619 926 640 933 l 619 921 z "},"ĕ":{"ha":1365,"x_min":69,"x_max":1310,"o":"m 788 -31 q 513 -7 643 -31 q 283 67 383 17 q 126 197 183 118 q 69 386 69 276 q 108 544 69 476 q 212 662 146 613 q 362 743 278 711 q 538 790 446 775 q 718 804 629 804 q 994 782 885 804 q 1167 722 1104 760 q 1256 637 1231 683 q 1282 540 1282 590 q 1256 445 1282 492 q 1169 360 1231 399 q 1001 299 1108 322 q 731 276 894 276 l 590 276 q 657 95 604 154 q 815 36 710 36 q 997 56 917 36 q 1135 103 1076 76 q 1229 151 1193 131 q 1278 171 1265 171 q 1298 165 1286 171 q 1310 143 1310 160 q 1285 108 1310 128 q 1221 69 1260 89 q 1138 32 1182 49 q 967 -14 1061 3 q 788 -31 872 -31 m 865 350 q 1011 437 961 379 q 1061 558 1061 494 q 1009 676 1061 621 q 858 757 957 731 l 856 746 q 956 666 922 717 q 990 558 990 615 q 958 449 990 503 q 861 363 925 394 l 865 350 m 585 388 q 585 360 585 372 l 731 360 q 824 389 786 360 q 883 463 863 418 q 903 558 903 508 q 885 648 903 606 q 833 717 867 690 q 747 744 799 744 q 622 655 658 744 q 585 388 585 565 m 572 28 l 575 42 q 408 119 481 69 q 293 235 335 168 q 251 386 251 303 q 293 538 251 471 q 408 653 335 604 q 576 729 482 701 l 574 742 q 358 664 451 715 q 210 542 264 613 q 157 386 157 472 q 210 229 157 300 q 358 108 264 158 q 572 28 451 57 m 728 821 q 592 856 654 821 q 492 952 529 892 q 456 1085 456 1013 l 485 1093 q 585 1033 528 1058 q 728 1008 643 1008 q 871 1033 814 1008 q 969 1093 928 1058 l 997 1085 q 961 952 997 1013 q 865 856 925 892 q 728 821 804 821 m 728 865 q 841 895 789 865 q 921 975 893 925 l 914 979 q 833 938 881 954 q 728 921 785 921 q 626 938 675 921 q 543 979 576 954 l 536 975 q 616 895 564 925 q 728 865 668 865 z "},"ě":{"ha":1365,"x_min":69,"x_max":1310,"o":"m 788 -31 q 513 -7 643 -31 q 283 67 383 17 q 126 197 183 118 q 69 386 69 276 q 108 544 69 476 q 212 662 146 613 q 362 743 278 711 q 538 790 446 775 q 718 804 629 804 q 994 782 885 804 q 1167 722 1104 760 q 1256 637 1231 683 q 1282 540 1282 590 q 1256 445 1282 492 q 1169 360 1231 399 q 1001 299 1108 322 q 731 276 894 276 l 590 276 q 657 95 604 154 q 815 36 710 36 q 997 56 917 36 q 1135 103 1076 76 q 1229 151 1193 131 q 1278 171 1265 171 q 1298 165 1286 171 q 1310 143 1310 160 q 1285 108 1310 128 q 1221 69 1260 89 q 1138 32 1182 49 q 967 -14 1061 3 q 788 -31 872 -31 m 865 350 q 1011 437 961 379 q 1061 558 1061 494 q 1009 676 1061 621 q 858 757 957 731 l 856 746 q 956 666 922 717 q 990 558 990 615 q 958 449 990 503 q 861 363 925 394 l 865 350 m 585 388 q 585 360 585 372 l 731 360 q 824 389 786 360 q 883 463 863 418 q 903 558 903 508 q 885 648 903 606 q 833 717 867 690 q 747 744 799 744 q 622 655 658 744 q 585 388 585 565 m 572 28 l 575 42 q 408 119 481 69 q 293 235 335 168 q 251 386 251 303 q 293 538 251 471 q 408 653 335 604 q 576 729 482 701 l 574 742 q 358 664 451 715 q 210 542 264 613 q 157 386 157 472 q 210 229 157 300 q 358 108 264 158 q 572 28 451 57 m 501 867 l 315 1069 l 728 1069 l 872 914 l 1015 1069 l 1136 1069 l 951 867 l 501 867 m 574 901 l 660 901 l 556 1017 l 469 1017 l 574 901 z "},"ê":{"ha":1365,"x_min":69,"x_max":1310,"o":"m 788 -31 q 513 -7 643 -31 q 283 67 383 17 q 126 197 183 118 q 69 386 69 276 q 108 544 69 476 q 212 662 146 613 q 362 743 278 711 q 538 790 446 775 q 718 804 629 804 q 994 782 885 804 q 1167 722 1104 760 q 1256 637 1231 683 q 1282 540 1282 590 q 1256 445 1282 492 q 1169 360 1231 399 q 1001 299 1108 322 q 731 276 894 276 l 590 276 q 657 95 604 154 q 815 36 710 36 q 997 56 917 36 q 1135 103 1076 76 q 1229 151 1193 131 q 1278 171 1265 171 q 1298 165 1286 171 q 1310 143 1310 160 q 1285 108 1310 128 q 1221 69 1260 89 q 1138 32 1182 49 q 967 -14 1061 3 q 788 -31 872 -31 m 865 350 q 1011 437 961 379 q 1061 558 1061 494 q 1009 676 1061 621 q 858 757 957 731 l 856 746 q 956 666 922 717 q 990 558 990 615 q 958 449 990 503 q 861 363 925 394 l 865 350 m 585 388 q 585 360 585 372 l 731 360 q 824 389 786 360 q 883 463 863 418 q 903 558 903 508 q 885 648 903 606 q 833 717 867 690 q 747 744 799 744 q 622 655 658 744 q 585 388 585 565 m 572 28 l 575 42 q 408 119 481 69 q 293 235 335 168 q 251 386 251 303 q 293 538 251 471 q 408 653 335 604 q 576 729 482 701 l 574 742 q 358 664 451 715 q 210 542 264 613 q 157 386 157 472 q 210 229 157 300 q 358 108 264 158 q 572 28 451 57 m 315 867 l 501 1069 l 951 1069 l 1136 867 l 1015 867 l 872 1022 l 728 867 l 315 867 m 469 919 l 556 919 l 660 1035 l 574 1035 l 469 919 z "}}}
